0
SECTION
2
HEADER
0
ENDSEC
999
Created using Ray Dream Designer(R) 3
0
SECTION
2
ENTITIES
0
3DFACE
8
Sph_re0
62
1
10
15.03167
20
-22.40490
30
-30.98468
11
14.44207
21
-16.55755
31
-30.98468
12
14.44207
22
-22.40490
32
-25.13732
13
14.44207
23
-22.40490
33
-25.13732
0
3DFACE
8
Sph_re0
62
1
10
13.86444
20
-16.67633
30
-25.13732
11
14.44207
21
-22.40490
31
-25.13732
12
14.44207
22
-16.55755
32
-30.98468
13
14.44207
23
-16.55755
33
-30.98468
0
3DFACE
8
Sph_re0
62
1
10
14.44207
20
-16.55755
30
-30.98468
11
12.75140
21
-11.11102
31
-30.98468
12
13.86444
22
-16.67633
32
-25.13732
13
13.86444
23
-16.67633
33
-25.13732
0
3DFACE
8
Sph_re0
62
1
10
12.20800
20
-11.34063
30
-25.13732
11
13.86444
21
-16.67633
31
-25.13732
12
12.75140
22
-11.11102
32
-30.98468
13
12.75140
23
-11.11102
33
-30.98468
0
3DFACE
8
Sph_re0
62
1
10
14.44207
20
-22.40490
30
-25.13732
11
13.86444
21
-16.67633
31
-25.13732
12
12.75140
22
-22.40490
32
-19.69079
13
12.75140
23
-22.40490
33
-19.69079
0
3DFACE
8
Sph_re0
62
1
10
12.20800
20
-17.01708
30
-19.69079
11
12.75140
21
-22.40490
31
-19.69079
12
13.86444
22
-16.67633
32
-25.13732
13
13.86444
23
-16.67633
33
-25.13732
0
3DFACE
8
Sph_re0
62
1
10
13.86444
20
-16.67633
30
-25.13732
11
12.20800
21
-11.34063
31
-25.13732
12
12.20800
22
-17.01708
32
-19.69079
13
12.20800
23
-17.01708
33
-19.69079
0
3DFACE
8
Sph_re0
62
1
10
10.65032
20
-11.99865
30
-19.69079
11
12.20800
21
-17.01708
31
-19.69079
12
12.20800
22
-11.34063
32
-25.13732
13
12.20800
23
-11.34063
33
-25.13732
0
3DFACE
8
Sph_re0
62
1
10
12.75140
20
-11.11102
30
-30.98468
11
10.07611
21
-6.18243
31
-30.98468
12
12.20800
22
-11.34063
32
-25.13732
13
12.20800
23
-11.34063
33
-25.13732
0
3DFACE
8
Sph_re0
62
1
10
9.58715
20
-6.51214
30
-25.13732
11
12.20800
21
-11.34063
31
-25.13732
12
10.07611
22
-6.18243
32
-30.98468
13
10.07611
23
-6.18243
33
-30.98468
0
3DFACE
8
Sph_re0
62
1
10
10.07611
20
-6.18243
30
-30.98468
11
6.53332
21
-1.88800
31
-30.98468
12
9.58715
22
-6.51214
32
-25.13732
13
9.58715
23
-6.51214
33
-25.13732
0
3DFACE
8
Sph_re0
62
1
10
6.11621
20
-2.30511
30
-25.13732
11
9.58715
21
-6.51214
31
-25.13732
12
6.53332
22
-1.88800
32
-30.98468
13
6.53332
23
-1.88800
33
-30.98468
0
3DFACE
8
Sph_re0
62
1
10
12.20800
20
-11.34063
30
-25.13732
11
9.58715
21
-6.51214
31
-25.13732
12
10.65032
22
-11.99865
32
-19.69079
13
10.65032
23
-11.99865
33
-19.69079
0
3DFACE
8
Sph_re0
62
1
10
8.18530
20
-7.45739
30
-19.69079
11
10.65032
21
-11.99865
31
-19.69079
12
9.58715
22
-6.51214
32
-25.13732
13
9.58715
23
-6.51214
33
-25.13732
0
3DFACE
8
Sph_re0
62
1
10
9.58715
20
-6.51214
30
-25.13732
11
6.11621
21
-2.30511
31
-25.13732
12
8.18530
22
-7.45739
32
-19.69079
13
8.18530
23
-7.45739
33
-19.69079
0
3DFACE
8
Sph_re0
62
1
10
4.92083
20
-3.50048
30
-19.69079
11
8.18530
21
-7.45739
31
-19.69079
12
6.11621
22
-2.30511
32
-25.13732
13
6.11621
23
-2.30511
33
-25.13732
0
3DFACE
8
Sph_re0
62
1
10
12.75140
20
-22.40490
30
-19.69079
11
12.20800
21
-17.01708
31
-19.69079
12
10.07611
22
-22.40490
32
-14.76220
13
10.07611
23
-22.40490
33
-14.76220
0
3DFACE
8
Sph_re0
62
1
10
9.58715
20
-17.55639
30
-14.76220
11
10.07611
21
-22.40490
31
-14.76220
12
12.20800
22
-17.01708
32
-19.69079
13
12.20800
23
-17.01708
33
-19.69079
0
3DFACE
8
Sph_re0
62
1
10
10.07611
20
-22.40490
30
-14.76220
11
9.58715
21
-17.55639
31
-14.76220
12
6.53332
22
-22.40490
32
-10.46777
13
6.53332
23
-22.40490
33
-10.46777
0
3DFACE
8
Sph_re0
62
1
10
6.11621
20
-18.27020
30
-10.46777
11
6.53332
21
-22.40490
31
-10.46777
12
9.58715
22
-17.55639
32
-14.76220
13
9.58715
23
-17.55639
33
-14.76220
0
3DFACE
8
Sph_re0
62
1
10
12.20800
20
-17.01708
30
-19.69079
11
10.65032
21
-11.99865
31
-19.69079
12
9.58715
22
-17.55639
32
-14.76220
13
9.58715
23
-17.55639
33
-14.76220
0
3DFACE
8
Sph_re0
62
1
10
8.18530
20
-13.03997
30
-14.76220
11
9.58715
21
-17.55639
31
-14.76220
12
10.65032
22
-11.99865
32
-19.69079
13
10.65032
23
-11.99865
33
-19.69079
0
3DFACE
8
Sph_re0
62
1
10
9.58715
20
-17.55639
30
-14.76220
11
8.18530
21
-13.03997
31
-14.76220
12
6.11621
22
-18.27020
32
-10.46777
13
6.11621
23
-18.27020
33
-10.46777
0
3DFACE
8
Sph_re0
62
1
10
4.92083
20
-14.41900
30
-10.46777
11
6.11621
21
-18.27020
31
-10.46777
12
8.18530
22
-13.03997
32
-14.76220
13
8.18530
23
-13.03997
33
-14.76220
0
3DFACE
8
Sph_re0
62
1
10
10.65032
20
-11.99865
30
-19.69079
11
8.18530
21
-7.45739
31
-19.69079
12
8.18530
22
-13.03997
32
-14.76220
13
8.18530
23
-13.03997
33
-14.76220
0
3DFACE
8
Sph_re0
62
1
10
5.96685
20
-8.95324
30
-14.76220
11
8.18530
21
-13.03997
31
-14.76220
12
8.18530
22
-7.45739
32
-19.69079
13
8.18530
23
-7.45739
33
-19.69079
0
3DFACE
8
Sph_re0
62
1
10
8.18530
20
-7.45739
30
-19.69079
11
4.92083
21
-3.50048
31
-19.69079
12
5.96685
22
-8.95324
32
-14.76220
13
5.96685
23
-8.95324
33
-14.76220
0
3DFACE
8
Sph_re0
62
1
10
3.02905
20
-5.39227
30
-14.76220
11
5.96685
21
-8.95324
31
-14.76220
12
4.92083
22
-3.50048
32
-19.69079
13
4.92083
23
-3.50048
33
-19.69079
0
3DFACE
8
Sph_re0
62
1
10
8.18530
20
-13.03997
30
-14.76220
11
5.96685
21
-8.95324
31
-14.76220
12
4.92083
22
-14.41900
32
-10.46777
13
4.92083
23
-14.41900
33
-10.46777
0
3DFACE
8
Sph_re0
62
1
10
3.02905
20
-10.93389
30
-10.46777
11
4.92083
21
-14.41900
31
-10.46777
12
5.96685
22
-8.95324
32
-14.76220
13
5.96685
23
-8.95324
33
-14.76220
0
3DFACE
8
Sph_re0
62
1
10
5.96685
20
-8.95324
30
-14.76220
11
3.02905
21
-5.39227
31
-14.76220
12
3.02905
22
-10.93389
32
-10.46777
13
3.02905
23
-10.93389
33
-10.46777
0
3DFACE
8
Sph_re0
62
1
10
0.52404
20
-7.89727
30
-10.46777
11
3.02905
21
-10.93389
31
-10.46777
12
3.02905
22
-5.39227
32
-14.76220
13
3.02905
23
-5.39227
33
-14.76220
0
3DFACE
8
Sph_re0
62
1
10
6.53332
20
-1.88800
30
-30.98468
11
2.23889
21
1.65478
31
-30.98468
12
6.11621
22
-2.30511
32
-25.13732
13
6.11621
23
-2.30511
33
-25.13732
0
3DFACE
8
Sph_re0
62
1
10
1.90917
20
1.16583
30
-25.13732
11
6.11621
21
-2.30511
31
-25.13732
12
2.23889
22
1.65478
32
-30.98468
13
2.23889
23
1.65478
33
-30.98468
0
3DFACE
8
Sph_re0
62
1
10
2.23889
20
1.65478
30
-30.98468
11
-2.68969
21
4.33007
31
-30.98468
12
1.90917
22
1.16583
32
-25.13732
13
1.90917
23
1.16583
33
-25.13732
0
3DFACE
8
Sph_re0
62
1
10
-2.91931
20
3.78668
30
-25.13732
11
1.90917
21
1.16583
31
-25.13732
12
-2.68969
22
4.33007
32
-30.98468
13
-2.68969
23
4.33007
33
-30.98468
0
3DFACE
8
Sph_re0
62
1
10
6.11621
20
-2.30511
30
-25.13732
11
1.90917
21
1.16583
31
-25.13732
12
4.92083
22
-3.50048
32
-19.69079
13
4.92083
23
-3.50048
33
-19.69079
0
3DFACE
8
Sph_re0
62
1
10
0.96392
20
-0.23602
30
-19.69079
11
4.92083
21
-3.50048
31
-19.69079
12
1.90917
22
1.16583
32
-25.13732
13
1.90917
23
1.16583
33
-25.13732
0
3DFACE
8
Sph_re0
62
1
10
1.90917
20
1.16583
30
-25.13732
11
-2.91931
21
3.78668
31
-25.13732
12
0.96392
22
-0.23602
32
-19.69079
13
0.96392
23
-0.23602
33
-19.69079
0
3DFACE
8
Sph_re0
62
1
10
-3.57733
20
2.22900
30
-19.69079
11
0.96392
21
-0.23602
31
-19.69079
12
-2.91931
22
3.78668
32
-25.13732
13
-2.91931
23
3.78668
33
-25.13732
0
3DFACE
8
Sph_re0
62
1
10
-2.68969
20
4.33007
30
-30.98468
11
-8.13623
21
6.02075
31
-30.98468
12
-2.91931
22
3.78668
32
-25.13732
13
-2.91931
23
3.78668
33
-25.13732
0
3DFACE
8
Sph_re0
62
1
10
-8.25500
20
5.44311
30
-25.13732
11
-2.91931
21
3.78668
31
-25.13732
12
-8.13623
22
6.02075
32
-30.98468
13
-8.13623
23
6.02075
33
-30.98468
0
3DFACE
8
Sph_re0
62
1
10
-8.13623
20
6.02075
30
-30.98468
11
-13.98358
21
6.61035
31
-30.98468
12
-8.25500
22
5.44311
32
-25.13732
13
-8.25500
23
5.44311
33
-25.13732
0
3DFACE
8
Sph_re0
62
1
10
-13.98358
20
6.02075
30
-25.13732
11
-8.25500
21
5.44311
31
-25.13732
12
-13.98358
22
6.61035
32
-30.98468
13
-13.98358
23
6.61035
33
-30.98468
0
3DFACE
8
Sph_re0
62
1
10
-2.91931
20
3.78668
30
-25.13732
11
-8.25500
21
5.44311
31
-25.13732
12
-3.57733
22
2.22900
32
-19.69079
13
-3.57733
23
2.22900
33
-19.69079
0
3DFACE
8
Sph_re0
62
1
10
-8.59576
20
3.78668
30
-19.69079
11
-3.57733
21
2.22900
31
-19.69079
12
-8.25500
22
5.44311
32
-25.13732
13
-8.25500
23
5.44311
33
-25.13732
0
3DFACE
8
Sph_re0
62
1
10
-8.25500
20
5.44311
30
-25.13732
11
-13.98358
21
6.02075
31
-25.13732
12
-8.59576
22
3.78668
32
-19.69079
13
-8.59576
23
3.78668
33
-19.69079
0
3DFACE
8
Sph_re0
62
1
10
-13.98358
20
4.33007
30
-19.69079
11
-8.59576
21
3.78668
31
-19.69079
12
-13.98358
22
6.02075
32
-25.13732
13
-13.98358
23
6.02075
33
-25.13732
0
3DFACE
8
Sph_re0
62
1
10
4.92083
20
-3.50048
30
-19.69079
11
0.96392
21
-0.23602
31
-19.69079
12
3.02905
22
-5.39227
32
-14.76220
13
3.02905
23
-5.39227
33
-14.76220
0
3DFACE
8
Sph_re0
62
1
10
-0.53192
20
-2.45446
30
-14.76220
11
3.02905
21
-5.39227
31
-14.76220
12
0.96392
22
-0.23602
32
-19.69079
13
0.96392
23
-0.23602
33
-19.69079
0
3DFACE
8
Sph_re0
62
1
10
0.96392
20
-0.23602
30
-19.69079
11
-3.57733
21
2.22900
31
-19.69079
12
-0.53192
22
-2.45446
32
-14.76220
13
-0.53192
23
-2.45446
33
-14.76220
0
3DFACE
8
Sph_re0
62
1
10
-4.61865
20
-0.23602
30
-14.76220
11
-0.53192
21
-2.45446
31
-14.76220
12
-3.57733
22
2.22900
32
-19.69079
13
-3.57733
23
2.22900
33
-19.69079
0
3DFACE
8
Sph_re0
62
1
10
3.02905
20
-5.39227
30
-14.76220
11
-0.53192
21
-2.45446
31
-14.76220
12
0.52404
22
-7.89727
32
-10.46777
13
0.52404
23
-7.89727
33
-10.46777
0
3DFACE
8
Sph_re0
62
1
10
-2.51257
20
-5.39227
30
-10.46777
11
0.52404
21
-7.89727
31
-10.46777
12
-0.53192
22
-2.45446
32
-14.76220
13
-0.53192
23
-2.45446
33
-14.76220
0
3DFACE
8
Sph_re0
62
1
10
-0.53192
20
-2.45446
30
-14.76220
11
-4.61865
21
-0.23602
31
-14.76220
12
-2.51257
22
-5.39227
32
-10.46777
13
-2.51257
23
-5.39227
33
-10.46777
0
3DFACE
8
Sph_re0
62
1
10
-5.99768
20
-3.50048
30
-10.46777
11
-2.51257
21
-5.39227
31
-10.46777
12
-4.61865
22
-0.23602
32
-14.76220
13
-4.61865
23
-0.23602
33
-14.76220
0
3DFACE
8
Sph_re0
62
1
10
-3.57733
20
2.22900
30
-19.69079
11
-8.59576
21
3.78668
31
-19.69079
12
-4.61865
22
-0.23602
32
-14.76220
13
-4.61865
23
-0.23602
33
-14.76220
0
3DFACE
8
Sph_re0
62
1
10
-9.13507
20
1.16583
30
-14.76220
11
-4.61865
21
-0.23602
31
-14.76220
12
-8.59576
22
3.78668
32
-19.69079
13
-8.59576
23
3.78668
33
-19.69079
0
3DFACE
8
Sph_re0
62
1
10
-4.61865
20
-0.23602
30
-14.76220
11
-9.13507
21
1.16583
31
-14.76220
12
-5.99768
22
-3.50048
32
-10.46777
13
-5.99768
23
-3.50048
33
-10.46777
0
3DFACE
8
Sph_re0
62
1
10
-9.84887
20
-2.30511
30
-10.46777
11
-5.99768
21
-3.50048
31
-10.46777
12
-9.13507
22
1.16583
32
-14.76220
13
-9.13507
23
1.16583
33
-14.76220
0
3DFACE
8
Sph_re0
62
1
10
-8.59576
20
3.78668
30
-19.69079
11
-13.98358
21
4.33007
31
-19.69079
12
-9.13507
22
1.16583
32
-14.76220
13
-9.13507
23
1.16583
33
-14.76220
0
3DFACE
8
Sph_re0
62
1
10
-13.98358
20
1.65478
30
-14.76220
11
-9.13507
21
1.16583
31
-14.76220
12
-13.98358
22
4.33007
32
-19.69079
13
-13.98358
23
4.33007
33
-19.69079
0
3DFACE
8
Sph_re0
62
1
10
-9.13507
20
1.16583
30
-14.76220
11
-13.98358
21
1.65478
31
-14.76220
12
-9.84887
22
-2.30511
32
-10.46777
13
-9.84887
23
-2.30511
33
-10.46777
0
3DFACE
8
Sph_re0
62
1
10
-13.98358
20
-1.88800
30
-10.46777
11
-9.84887
21
-2.30511
31
-10.46777
12
-13.98358
22
1.65478
32
-14.76220
13
-13.98358
23
1.65478
33
-14.76220
0
3DFACE
8
Sph_re0
62
1
10
6.53332
20
-22.40490
30
-10.46777
11
6.11621
21
-18.27020
31
-10.46777
12
2.23889
22
-22.40490
32
-6.92498
13
2.23889
23
-22.40490
33
-6.92498
0
3DFACE
8
Sph_re0
62
1
10
1.88232
20
-19.14550
30
-6.92498
11
2.23889
21
-22.40490
31
-6.92498
12
6.11621
22
-18.27020
32
-10.46777
13
6.11621
23
-18.27020
33
-10.46777
0
3DFACE
8
Sph_re0
62
1
10
6.11621
20
-18.27020
30
-10.46777
11
4.92083
21
-14.41900
31
-10.46777
12
1.88232
22
-19.14550
32
-6.92498
13
1.88232
23
-19.14550
33
-6.92498
0
3DFACE
8
Sph_re0
62
1
10
0.96392
20
-16.09063
30
-6.92498
11
1.88232
21
-19.14550
31
-6.92498
12
4.92083
22
-14.41900
32
-10.46777
13
4.92083
23
-14.41900
33
-10.46777
0
3DFACE
8
Sph_re0
62
1
10
2.23889
20
-22.40490
30
-6.92498
11
1.88232
21
-19.14550
31
-6.92498
12
-2.68969
22
-22.40490
32
-4.24969
13
-2.68969
23
-22.40490
33
-4.24969
0
3DFACE
8
Sph_re0
62
1
10
-3.13372
20
-20.20703
30
-4.24969
11
-2.68969
21
-22.40490
31
-4.24969
12
1.88232
22
-19.14550
32
-6.92498
13
1.88232
23
-19.14550
33
-6.92498
0
3DFACE
8
Sph_re0
62
1
10
1.88232
20
-19.14550
30
-6.92498
11
0.96392
21
-16.09063
31
-6.92498
12
-3.13372
22
-20.20703
32
-4.24969
13
-3.13372
23
-20.20703
33
-4.24969
0
3DFACE
8
Sph_re0
62
1
10
-3.57733
20
-18.00885
30
-4.24969
11
-3.13372
21
-20.20703
31
-4.24969
12
0.96392
22
-16.09063
32
-6.92498
13
0.96392
23
-16.09063
33
-6.92498
0
3DFACE
8
Sph_re0
62
1
10
4.92083
20
-14.41900
30
-10.46777
11
3.02905
21
-10.93389
31
-10.46777
12
0.96392
22
-16.09063
32
-6.92498
13
0.96392
23
-16.09063
33
-6.92498
0
3DFACE
8
Sph_re0
62
1
10
-0.55303
20
-13.35034
30
-6.92498
11
0.96392
21
-16.09063
31
-6.92498
12
3.02905
22
-10.93389
32
-10.46777
13
3.02905
23
-10.93389
33
-10.46777
0
3DFACE
8
Sph_re0
62
1
10
3.02905
20
-10.93389
30
-10.46777
11
0.52404
21
-7.89727
31
-10.46777
12
-0.55303
22
-13.35034
32
-6.92498
13
-0.55303
23
-13.35034
33
-6.92498
0
3DFACE
8
Sph_re0
62
1
10
-2.51269
20
-10.93402
30
-6.92498
11
-0.55303
21
-13.35034
31
-6.92498
12
0.52404
22
-7.89727
32
-10.46777
13
0.52404
23
-7.89727
33
-10.46777
0
3DFACE
8
Sph_re0
62
1
10
0.96392
20
-16.09063
30
-6.92498
11
-0.55303
21
-13.35034
31
-6.92498
12
-3.57733
22
-18.00885
32
-4.24969
13
-3.57733
23
-18.00885
33
-4.24969
0
3DFACE
8
Sph_re0
62
1
10
-4.78765
20
-16.21398
30
-4.24969
11
-3.57733
21
-18.00885
31
-4.24969
12
-0.55303
22
-13.35034
32
-6.92498
13
-0.55303
23
-13.35034
33
-6.92498
0
3DFACE
8
Sph_re0
62
1
10
-0.55303
20
-13.35034
30
-6.92498
11
-2.51269
21
-10.93402
31
-6.92498
12
-4.78765
22
-16.21398
32
-4.24969
13
-4.78765
23
-16.21398
33
-4.24969
0
3DFACE
8
Sph_re0
62
1
10
-5.99768
20
-14.41900
30
-4.24969
11
-4.78765
21
-16.21398
31
-4.24969
12
-2.51269
22
-10.93402
32
-6.92498
13
-2.51269
23
-10.93402
33
-6.92498
0
3DFACE
8
Sph_re0
62
1
10
0.52404
20
-7.89727
30
-10.46777
11
-2.51257
21
-5.39227
31
-10.46777
12
-2.51269
22
-10.93402
32
-6.92498
13
-2.51269
23
-10.93402
33
-6.92498
0
3DFACE
8
Sph_re0
62
1
10
-4.92901
20
-8.97436
30
-6.92498
11
-2.51269
21
-10.93402
31
-6.92498
12
-2.51257
22
-5.39227
32
-10.46777
13
-2.51257
23
-5.39227
33
-10.46777
0
3DFACE
8
Sph_re0
62
1
10
-2.51257
20
-5.39227
30
-10.46777
11
-5.99768
21
-3.50048
31
-10.46777
12
-4.92901
22
-8.97436
32
-6.92498
13
-4.92901
23
-8.97436
33
-6.92498
0
3DFACE
8
Sph_re0
62
1
10
-7.66931
20
-7.45739
30
-6.92498
11
-4.92901
21
-8.97436
31
-6.92498
12
-5.99768
22
-3.50048
32
-10.46777
13
-5.99768
23
-3.50048
33
-10.46777
0
3DFACE
8
Sph_re0
62
1
10
-2.51269
20
-10.93402
30
-6.92498
11
-4.92901
21
-8.97436
31
-6.92498
12
-5.99768
22
-14.41900
32
-4.24969
13
-5.99768
23
-14.41900
33
-4.24969
0
3DFACE
8
Sph_re0
62
1
10
-7.79266
20
-13.20898
30
-4.24969
11
-5.99768
21
-14.41900
31
-4.24969
12
-4.92901
22
-8.97436
32
-6.92498
13
-4.92901
23
-8.97436
33
-6.92498
0
3DFACE
8
Sph_re0
62
1
10
-4.92901
20
-8.97436
30
-6.92498
11
-7.66931
21
-7.45739
31
-6.92498
12
-7.79266
22
-13.20898
32
-4.24969
13
-7.79266
23
-13.20898
33
-4.24969
0
3DFACE
8
Sph_re0
62
1
10
-9.58752
20
-11.99865
30
-4.24969
11
-7.79266
21
-13.20898
31
-4.24969
12
-7.66931
22
-7.45739
32
-6.92498
13
-7.66931
23
-7.45739
33
-6.92498
0
3DFACE
8
Sph_re0
62
1
10
-5.99768
20
-3.50048
30
-10.46777
11
-9.84887
21
-2.30511
31
-10.46777
12
-7.66931
22
-7.45739
32
-6.92498
13
-7.66931
23
-7.45739
33
-6.92498
0
3DFACE
8
Sph_re0
62
1
10
-10.72418
20
-6.53900
30
-6.92498
11
-7.66931
21
-7.45739
31
-6.92498
12
-9.84887
22
-2.30511
32
-10.46777
13
-9.84887
23
-2.30511
33
-10.46777
0
3DFACE
8
Sph_re0
62
1
10
-9.84887
20
-2.30511
30
-10.46777
11
-13.98358
21
-1.88800
31
-10.46777
12
-10.72418
22
-6.53900
32
-6.92498
13
-10.72418
23
-6.53900
33
-6.92498
0
3DFACE
8
Sph_re0
62
1
10
-13.98358
20
-6.18243
30
-6.92498
11
-10.72418
21
-6.53900
31
-6.92498
12
-13.98358
22
-1.88800
32
-10.46777
13
-13.98358
23
-1.88800
33
-10.46777
0
3DFACE
8
Sph_re0
62
1
10
-7.66931
20
-7.45739
30
-6.92498
11
-10.72418
21
-6.53900
31
-6.92498
12
-9.58752
22
-11.99865
32
-4.24969
13
-9.58752
23
-11.99865
33
-4.24969
0
3DFACE
8
Sph_re0
62
1
10
-11.78570
20
-11.55505
30
-4.24969
11
-9.58752
21
-11.99865
31
-4.24969
12
-10.72418
22
-6.53900
32
-6.92498
13
-10.72418
23
-6.53900
33
-6.92498
0
3DFACE
8
Sph_re0
62
1
10
-10.72418
20
-6.53900
30
-6.92498
11
-13.98358
21
-6.18243
31
-6.92498
12
-11.78570
22
-11.55505
32
-4.24969
13
-11.78570
23
-11.55505
33
-4.24969
0
3DFACE
8
Sph_re0
62
1
10
-13.98358
20
-11.11102
30
-4.24969
11
-11.78570
21
-11.55505
31
-4.24969
12
-13.98358
22
-6.18243
32
-6.92498
13
-13.98358
23
-6.18243
33
-6.92498
0
3DFACE
8
Sph_re0
62
1
10
-2.68969
20
-22.40490
30
-4.24969
11
-3.57733
21
-18.00885
31
-4.24969
12
-8.13623
22
-22.40490
32
-2.55902
13
-8.13623
23
-22.40490
33
-2.55902
0
3DFACE
8
Sph_re0
62
1
10
-8.59594
20
-20.12908
30
-2.55902
11
-8.13623
21
-22.40490
31
-2.55902
12
-3.57733
22
-18.00885
32
-4.24969
13
-3.57733
23
-18.00885
33
-4.24969
0
3DFACE
8
Sph_re0
62
1
10
-3.57733
20
-18.00885
30
-4.24969
11
-5.99768
21
-14.41900
31
-4.24969
12
-8.59594
22
-20.12908
32
-2.55902
13
-8.59594
23
-20.12908
33
-2.55902
0
3DFACE
8
Sph_re0
62
1
10
-9.84906
20
-18.27038
30
-2.55902
11
-8.59594
21
-20.12908
31
-2.55902
12
-5.99768
22
-14.41900
32
-4.24969
13
-5.99768
23
-14.41900
33
-4.24969
0
3DFACE
8
Sph_re0
62
1
10
-5.99768
20
-14.41900
30
-4.24969
11
-9.58752
21
-11.99865
31
-4.24969
12
-9.84906
22
-18.27038
32
-2.55902
13
-9.84906
23
-18.27038
33
-2.55902
0
3DFACE
8
Sph_re0
62
1
10
-11.70776
20
-17.01727
30
-2.55902
11
-9.84906
21
-18.27038
31
-2.55902
12
-9.58752
22
-11.99865
32
-4.24969
13
-9.58752
23
-11.99865
33
-4.24969
0
3DFACE
8
Sph_re0
62
1
10
-9.58752
20
-11.99865
30
-4.24969
11
-13.98358
21
-11.11102
31
-4.24969
12
-11.70776
22
-17.01727
32
-2.55902
13
-11.70776
23
-17.01727
33
-2.55902
0
3DFACE
8
Sph_re0
62
1
10
-13.98358
20
-16.55755
30
-2.55902
11
-11.70776
21
-17.01727
31
-2.55902
12
-13.98358
22
-11.11102
32
-4.24969
13
-13.98358
23
-11.11102
33
-4.24969
0
3DFACE
8
Sph_re0
62
1
10
-8.13623
20
-22.40490
30
-2.55902
11
-8.59594
21
-20.12908
31
-2.55902
12
-13.98358
22
-22.40490
32
-1.96942
13
-13.98358
23
-22.40490
33
-1.96942
0
3DFACE
8
Sph_re0
62
1
10
-13.98358
20
-22.40490
30
-1.96942
11
-13.98358
21
-22.40490
31
-1.96942
12
-8.59594
22
-20.12908
32
-2.55902
13
-8.59594
23
-20.12908
33
-2.55902
0
3DFACE
8
Sph_re0
62
1
10
-8.59594
20
-20.12908
30
-2.55902
11
-9.84906
21
-18.27038
31
-2.55902
12
-13.98358
22
-22.40490
32
-1.96942
13
-13.98358
23
-22.40490
33
-1.96942
0
3DFACE
8
Sph_re0
62
1
10
-13.98358
20
-22.40490
30
-1.96942
11
-13.98358
21
-22.40490
31
-1.96942
12
-9.84906
22
-18.27038
32
-2.55902
13
-9.84906
23
-18.27038
33
-2.55902
0
3DFACE
8
Sph_re0
62
1
10
-9.84906
20
-18.27038
30
-2.55902
11
-11.70776
21
-17.01727
31
-2.55902
12
-13.98358
22
-22.40490
32
-1.96942
13
-13.98358
23
-22.40490
33
-1.96942
0
3DFACE
8
Sph_re0
62
1
10
-13.98358
20
-22.40490
30
-1.96942
11
-13.98358
21
-22.40490
31
-1.96942
12
-11.70776
22
-17.01727
32
-2.55902
13
-11.70776
23
-17.01727
33
-2.55902
0
3DFACE
8
Sph_re0
62
1
10
-11.70776
20
-17.01727
30
-2.55902
11
-13.98358
21
-16.55755
31
-2.55902
12
-13.98358
22
-22.40490
32
-1.96942
13
-13.98358
23
-22.40490
33
-1.96942
0
3DFACE
8
Sph_re0
62
1
10
-13.98358
20
-22.40490
30
-1.96942
11
-13.98358
21
-22.40490
31
-1.96942
12
-13.98358
22
-16.55755
32
-2.55902
13
-13.98358
23
-16.55755
33
-2.55902
0
3DFACE
8
Sph_re0
62
1
10
-13.98358
20
6.61035
30
-30.98468
11
-19.83142
21
6.02075
31
-30.98468
12
-13.98358
22
6.02075
32
-25.13732
13
-13.98358
23
6.02075
33
-25.13732
0
3DFACE
8
Sph_re0
62
1
10
-19.71276
20
5.44311
30
-25.13732
11
-13.98358
21
6.02075
31
-25.13732
12
-19.83142
22
6.02075
32
-30.98468
13
-19.83142
23
6.02075
33
-30.98468
0
3DFACE
8
Sph_re0
62
1
10
-13.98358
20
6.02075
30
-25.13732
11
-19.71276
21
5.44311
31
-25.13732
12
-13.98358
22
4.33007
32
-19.69079
13
-13.98358
23
4.33007
33
-19.69079
0
3DFACE
8
Sph_re0
62
1
10
-19.37200
20
3.78668
30
-19.69079
11
-13.98358
21
4.33007
31
-19.69079
12
-19.71276
22
5.44311
32
-25.13732
13
-19.71276
23
5.44311
33
-25.13732
0
3DFACE
8
Sph_re0
62
1
10
-19.83142
20
6.02075
30
-30.98468
11
-25.27783
21
4.33007
31
-30.98468
12
-19.71276
22
5.44311
32
-25.13732
13
-19.71276
23
5.44311
33
-25.13732
0
3DFACE
8
Sph_re0
62
1
10
-25.04852
20
3.78668
30
-25.13732
11
-19.71276
21
5.44311
31
-25.13732
12
-25.27783
22
4.33007
32
-30.98468
13
-25.27783
23
4.33007
33
-30.98468
0
3DFACE
8
Sph_re0
62
1
10
-19.71276
20
5.44311
30
-25.13732
11
-25.04852
21
3.78668
31
-25.13732
12
-19.37200
22
3.78668
32
-19.69079
13
-19.37200
23
3.78668
33
-19.69079
0
3DFACE
8
Sph_re0
62
1
10
-24.39044
20
2.22900
30
-19.69079
11
-19.37200
21
3.78668
31
-19.69079
12
-25.04852
22
3.78668
32
-25.13732
13
-25.04852
23
3.78668
33
-25.13732
0
3DFACE
8
Sph_re0
62
1
10
-13.98358
20
4.33007
30
-19.69079
11
-19.37200
21
3.78668
31
-19.69079
12
-13.98358
22
1.65478
32
-14.76220
13
-13.98358
23
1.65478
33
-14.76220
0
3DFACE
8
Sph_re0
62
1
10
-18.83294
20
1.16583
30
-14.76220
11
-13.98358
21
1.65478
31
-14.76220
12
-19.37200
22
3.78668
32
-19.69079
13
-19.37200
23
3.78668
33
-19.69079
0
3DFACE
8
Sph_re0
62
1
10
-13.98358
20
1.65478
30
-14.76220
11
-18.83294
21
1.16583
31
-14.76220
12
-13.98358
22
-1.88800
32
-10.46777
13
-13.98358
23
-1.88800
33
-10.46777
0
3DFACE
8
Sph_re0
62
1
10
-18.11877
20
-2.30511
30
-10.46777
11
-13.98358
21
-1.88800
31
-10.46777
12
-18.83294
22
1.16583
32
-14.76220
13
-18.83294
23
1.16583
33
-14.76220
0
3DFACE
8
Sph_re0
62
1
10
-19.37200
20
3.78668
30
-19.69079
11
-24.39044
21
2.22900
31
-19.69079
12
-18.83294
22
1.16583
32
-14.76220
13
-18.83294
23
1.16583
33
-14.76220
0
3DFACE
8
Sph_re0
62
1
10
-23.34930
20
-0.23602
30
-14.76220
11
-18.83294
21
1.16583
31
-14.76220
12
-24.39044
22
2.22900
32
-19.69079
13
-24.39044
23
2.22900
33
-19.69079
0
3DFACE
8
Sph_re0
62
1
10
-18.83294
20
1.16583
30
-14.76220
11
-23.34930
21
-0.23602
31
-14.76220
12
-18.11877
22
-2.30511
32
-10.46777
13
-18.11877
23
-2.30511
33
-10.46777
0
3DFACE
8
Sph_re0
62
1
10
-21.97003
20
-3.50048
30
-10.46777
11
-18.11877
21
-2.30511
31
-10.46777
12
-23.34930
22
-0.23602
32
-14.76220
13
-23.34930
23
-0.23602
33
-14.76220
0
3DFACE
8
Sph_re0
62
1
10
-25.27783
20
4.33007
30
-30.98468
11
-30.20672
21
1.65478
31
-30.98468
12
-25.04852
22
3.78668
32
-25.13732
13
-25.04852
23
3.78668
33
-25.13732
0
3DFACE
8
Sph_re0
62
1
10
-29.87713
20
1.16583
30
-25.13732
11
-25.04852
21
3.78668
31
-25.13732
12
-30.20672
22
1.65478
32
-30.98468
13
-30.20672
23
1.65478
33
-30.98468
0
3DFACE
8
Sph_re0
62
1
10
-30.20672
20
1.65478
30
-30.98468
11
-34.50067
21
-1.88800
31
-30.98468
12
-29.87713
22
1.16583
32
-25.13732
13
-29.87713
23
1.16583
33
-25.13732
0
3DFACE
8
Sph_re0
62
1
10
-34.08392
20
-2.30511
30
-25.13732
11
-29.87713
21
1.16583
31
-25.13732
12
-34.50067
22
-1.88800
32
-30.98468
13
-34.50067
23
-1.88800
33
-30.98468
0
3DFACE
8
Sph_re0
62
1
10
-25.04852
20
3.78668
30
-25.13732
11
-29.87713
21
1.16583
31
-25.13732
12
-24.39044
22
2.22900
32
-19.69079
13
-24.39044
23
2.22900
33
-19.69079
0
3DFACE
8
Sph_re0
62
1
10
-28.93188
20
-0.23602
30
-19.69079
11
-24.39044
21
2.22900
31
-19.69079
12
-29.87713
22
1.16583
32
-25.13732
13
-29.87713
23
1.16583
33
-25.13732
0
3DFACE
8
Sph_re0
62
1
10
-29.87713
20
1.16583
30
-25.13732
11
-34.08392
21
-2.30511
31
-25.13732
12
-28.93188
22
-0.23602
32
-19.69079
13
-28.93188
23
-0.23602
33
-19.69079
0
3DFACE
8
Sph_re0
62
1
10
-32.88848
20
-3.50048
30
-19.69079
11
-28.93188
21
-0.23602
31
-19.69079
12
-34.08392
22
-2.30511
32
-25.13732
13
-34.08392
23
-2.30511
33
-25.13732
0
3DFACE
8
Sph_re0
62
1
10
-24.39044
20
2.22900
30
-19.69079
11
-28.93188
21
-0.23602
31
-19.69079
12
-23.34930
22
-0.23602
32
-14.76220
13
-23.34930
23
-0.23602
33
-14.76220
0
3DFACE
8
Sph_re0
62
1
10
-27.43634
20
-2.45446
30
-14.76220
11
-23.34930
21
-0.23602
31
-14.76220
12
-28.93188
22
-0.23602
32
-19.69079
13
-28.93188
23
-0.23602
33
-19.69079
0
3DFACE
8
Sph_re0
62
1
10
-28.93188
20
-0.23602
30
-19.69079
11
-32.88848
21
-3.50048
31
-19.69079
12
-27.43634
22
-2.45446
32
-14.76220
13
-27.43634
23
-2.45446
33
-14.76220
0
3DFACE
8
Sph_re0
62
1
10
-30.99700
20
-5.39227
30
-14.76220
11
-27.43634
21
-2.45446
31
-14.76220
12
-32.88848
22
-3.50048
32
-19.69079
13
-32.88848
23
-3.50048
33
-19.69079
0
3DFACE
8
Sph_re0
62
1
10
-23.34930
20
-0.23602
30
-14.76220
11
-27.43634
21
-2.45446
31
-14.76220
12
-21.97003
22
-3.50048
32
-10.46777
13
-21.97003
23
-3.50048
33
-10.46777
0
3DFACE
8
Sph_re0
62
1
10
-25.45526
20
-5.39227
30
-10.46777
11
-21.97003
21
-3.50048
31
-10.46777
12
-27.43634
22
-2.45446
32
-14.76220
13
-27.43634
23
-2.45446
33
-14.76220
0
3DFACE
8
Sph_re0
62
1
10
-27.43634
20
-2.45446
30
-14.76220
11
-30.99700
21
-5.39227
31
-14.76220
12
-25.45526
22
-5.39227
32
-10.46777
13
-25.45526
23
-5.39227
33
-10.46777
0
3DFACE
8
Sph_re0
62
1
10
-28.49151
20
-7.89727
30
-10.46777
11
-25.45526
21
-5.39227
31
-10.46777
12
-30.99700
22
-5.39227
32
-14.76220
13
-30.99700
23
-5.39227
33
-14.76220
0
3DFACE
8
Sph_re0
62
1
10
-34.50067
20
-1.88800
30
-30.98468
11
-38.04388
21
-6.18243
31
-30.98468
12
-34.08392
22
-2.30511
32
-25.13732
13
-34.08392
23
-2.30511
33
-25.13732
0
3DFACE
8
Sph_re0
62
1
10
-37.55511
20
-6.51214
30
-25.13732
11
-34.08392
21
-2.30511
31
-25.13732
12
-38.04388
22
-6.18243
32
-30.98468
13
-38.04388
23
-6.18243
33
-30.98468
0
3DFACE
8
Sph_re0
62
1
10
-38.04388
20
-6.18243
30
-30.98468
11
-40.71893
21
-11.11102
31
-30.98468
12
-37.55511
22
-6.51214
32
-25.13732
13
-37.55511
23
-6.51214
33
-25.13732
0
3DFACE
8
Sph_re0
62
1
10
-40.17584
20
-11.34063
30
-25.13732
11
-37.55511
21
-6.51214
31
-25.13732
12
-40.71893
22
-11.11102
32
-30.98468
13
-40.71893
23
-11.11102
33
-30.98468
0
3DFACE
8
Sph_re0
62
1
10
-34.08392
20
-2.30511
30
-25.13732
11
-37.55511
21
-6.51214
31
-25.13732
12
-32.88848
22
-3.50048
32
-19.69079
13
-32.88848
23
-3.50048
33
-19.69079
0
3DFACE
8
Sph_re0
62
1
10
-36.15325
20
-7.45739
30
-19.69079
11
-32.88848
21
-3.50048
31
-19.69079
12
-37.55511
22
-6.51214
32
-25.13732
13
-37.55511
23
-6.51214
33
-25.13732
0
3DFACE
8
Sph_re0
62
1
10
-37.55511
20
-6.51214
30
-25.13732
11
-40.17584
21
-11.34063
31
-25.13732
12
-36.15325
22
-7.45739
32
-19.69079
13
-36.15325
23
-7.45739
33
-19.69079
0
3DFACE
8
Sph_re0
62
1
10
-38.61810
20
-11.99865
30
-19.69079
11
-36.15325
21
-7.45739
31
-19.69079
12
-40.17584
22
-11.34063
32
-25.13732
13
-40.17584
23
-11.34063
33
-25.13732
0
3DFACE
8
Sph_re0
62
1
10
-40.71893
20
-11.11102
30
-30.98468
11
-42.40960
21
-16.55755
31
-30.98468
12
-40.17584
22
-11.34063
32
-25.13732
13
-40.17584
23
-11.34063
33
-25.13732
0
3DFACE
8
Sph_re0
62
1
10
-41.83227
20
-16.67633
30
-25.13732
11
-40.17584
21
-11.34063
31
-25.13732
12
-42.40960
22
-16.55755
32
-30.98468
13
-42.40960
23
-16.55755
33
-30.98468
0
3DFACE
8
Sph_re0
62
1
10
-42.40960
20
-16.55755
30
-30.98468
11
-42.99884
21
-22.40490
31
-30.98468
12
-41.83227
22
-16.67633
32
-25.13732
13
-41.83227
23
-16.67633
33
-25.13732
0
3DFACE
8
Sph_re0
62
1
10
-42.40960
20
-22.40490
30
-25.13732
11
-41.83227
21
-16.67633
31
-25.13732
12
-42.99884
22
-22.40490
32
-30.98468
13
-42.99884
23
-22.40490
33
-30.98468
0
3DFACE
8
Sph_re0
62
1
10
-40.17584
20
-11.34063
30
-25.13732
11
-41.83227
21
-16.67633
31
-25.13732
12
-38.61810
22
-11.99865
32
-19.69079
13
-38.61810
23
-11.99865
33
-19.69079
0
3DFACE
8
Sph_re0
62
1
10
-40.17584
20
-17.01708
30
-19.69079
11
-38.61810
21
-11.99865
31
-19.69079
12
-41.83227
22
-16.67633
32
-25.13732
13
-41.83227
23
-16.67633
33
-25.13732
0
3DFACE
8
Sph_re0
62
1
10
-41.83227
20
-16.67633
30
-25.13732
11
-42.40960
21
-22.40490
31
-25.13732
12
-40.17584
22
-17.01708
32
-19.69079
13
-40.17584
23
-17.01708
33
-19.69079
0
3DFACE
8
Sph_re0
62
1
10
-40.71893
20
-22.40490
30
-19.69079
11
-40.17584
21
-17.01708
31
-19.69079
12
-42.40960
22
-22.40490
32
-25.13732
13
-42.40960
23
-22.40490
33
-25.13732
0
3DFACE
8
Sph_re0
62
1
10
-32.88848
20
-3.50048
30
-19.69079
11
-36.15325
21
-7.45739
31
-19.69079
12
-30.99700
22
-5.39227
32
-14.76220
13
-30.99700
23
-5.39227
33
-14.76220
0
3DFACE
8
Sph_re0
62
1
10
-33.93511
20
-8.95324
30
-14.76220
11
-30.99700
21
-5.39227
31
-14.76220
12
-36.15325
22
-7.45739
32
-19.69079
13
-36.15325
23
-7.45739
33
-19.69079
0
3DFACE
8
Sph_re0
62
1
10
-36.15325
20
-7.45739
30
-19.69079
11
-38.61810
21
-11.99865
31
-19.69079
12
-33.93511
22
-8.95324
32
-14.76220
13
-33.93511
23
-8.95324
33
-14.76220
0
3DFACE
8
Sph_re0
62
1
10
-36.15325
20
-13.03997
30
-14.76220
11
-33.93511
21
-8.95324
31
-14.76220
12
-38.61810
22
-11.99865
32
-19.69079
13
-38.61810
23
-11.99865
33
-19.69079
0
3DFACE
8
Sph_re0
62
1
10
-30.99700
20
-5.39227
30
-14.76220
11
-33.93511
21
-8.95324
31
-14.76220
12
-28.49151
22
-7.89727
32
-10.46777
13
-28.49151
23
-7.89727
33
-10.46777
0
3DFACE
8
Sph_re0
62
1
10
-30.99700
20
-10.93389
30
-10.46777
11
-28.49151
21
-7.89727
31
-10.46777
12
-33.93511
22
-8.95324
32
-14.76220
13
-33.93511
23
-8.95324
33
-14.76220
0
3DFACE
8
Sph_re0
62
1
10
-33.93511
20
-8.95324
30
-14.76220
11
-36.15325
21
-13.03997
31
-14.76220
12
-30.99700
22
-10.93389
32
-10.46777
13
-30.99700
23
-10.93389
33
-10.46777
0
3DFACE
8
Sph_re0
62
1
10
-32.88848
20
-14.41900
30
-10.46777
11
-30.99700
21
-10.93389
31
-10.46777
12
-36.15325
22
-13.03997
32
-14.76220
13
-36.15325
23
-13.03997
33
-14.76220
0
3DFACE
8
Sph_re0
62
1
10
-38.61810
20
-11.99865
30
-19.69079
11
-40.17584
21
-17.01708
31
-19.69079
12
-36.15325
22
-13.03997
32
-14.76220
13
-36.15325
23
-13.03997
33
-14.76220
0
3DFACE
8
Sph_re0
62
1
10
-37.55523
20
-17.55639
30
-14.76220
11
-36.15325
21
-13.03997
31
-14.76220
12
-40.17584
22
-17.01708
32
-19.69079
13
-40.17584
23
-17.01708
33
-19.69079
0
3DFACE
8
Sph_re0
62
1
10
-36.15325
20
-13.03997
30
-14.76220
11
-37.55523
21
-17.55639
31
-14.76220
12
-32.88848
22
-14.41900
32
-10.46777
13
-32.88848
23
-14.41900
33
-10.46777
0
3DFACE
8
Sph_re0
62
1
10
-34.08392
20
-18.27020
30
-10.46777
11
-32.88848
21
-14.41900
31
-10.46777
12
-37.55523
22
-17.55639
32
-14.76220
13
-37.55523
23
-17.55639
33
-14.76220
0
3DFACE
8
Sph_re0
62
1
10
-40.17584
20
-17.01708
30
-19.69079
11
-40.71893
21
-22.40490
31
-19.69079
12
-37.55523
22
-17.55639
32
-14.76220
13
-37.55523
23
-17.55639
33
-14.76220
0
3DFACE
8
Sph_re0
62
1
10
-38.04388
20
-22.40490
30
-14.76220
11
-37.55523
21
-17.55639
31
-14.76220
12
-40.71893
22
-22.40490
32
-19.69079
13
-40.71893
23
-22.40490
33
-19.69079
0
3DFACE
8
Sph_re0
62
1
10
-37.55523
20
-17.55639
30
-14.76220
11
-38.04388
21
-22.40490
31
-14.76220
12
-34.08392
22
-18.27020
32
-10.46777
13
-34.08392
23
-18.27020
33
-10.46777
0
3DFACE
8
Sph_re0
62
1
10
-34.50067
20
-22.40490
30
-10.46777
11
-34.08392
21
-18.27020
31
-10.46777
12
-38.04388
22
-22.40490
32
-14.76220
13
-38.04388
23
-22.40490
33
-14.76220
0
3DFACE
8
Sph_re0
62
1
10
-13.98358
20
-1.88800
30
-10.46777
11
-18.11877
21
-2.30511
31
-10.46777
12
-13.98358
22
-6.18243
32
-6.92498
13
-13.98358
23
-6.18243
33
-6.92498
0
3DFACE
8
Sph_re0
62
1
10
-17.24365
20
-6.53900
30
-6.92498
11
-13.98358
21
-6.18243
31
-6.92498
12
-18.11877
22
-2.30511
32
-10.46777
13
-18.11877
23
-2.30511
33
-10.46777
0
3DFACE
8
Sph_re0
62
1
10
-18.11877
20
-2.30511
30
-10.46777
11
-21.97003
21
-3.50048
31
-10.46777
12
-17.24365
22
-6.53900
32
-6.92498
13
-17.24365
23
-6.53900
33
-6.92498
0
3DFACE
8
Sph_re0
62
1
10
-20.29864
20
-7.45739
30
-6.92498
11
-17.24365
21
-6.53900
31
-6.92498
12
-21.97003
22
-3.50048
32
-10.46777
13
-21.97003
23
-3.50048
33
-10.46777
0
3DFACE
8
Sph_re0
62
1
10
-13.98358
20
-6.18243
30
-6.92498
11
-17.24365
21
-6.53900
31
-6.92498
12
-13.98358
22
-11.11102
32
-4.24969
13
-13.98358
23
-11.11102
33
-4.24969
0
3DFACE
8
Sph_re0
62
1
10
-16.18194
20
-11.55505
30
-4.24969
11
-13.98358
21
-11.11102
31
-4.24969
12
-17.24365
22
-6.53900
32
-6.92498
13
-17.24365
23
-6.53900
33
-6.92498
0
3DFACE
8
Sph_re0
62
1
10
-17.24365
20
-6.53900
30
-6.92498
11
-20.29864
21
-7.45739
31
-6.92498
12
-16.18194
22
-11.55505
32
-4.24969
13
-16.18194
23
-11.55505
33
-4.24969
0
3DFACE
8
Sph_re0
62
1
10
-18.38012
20
-11.99865
30
-4.24969
11
-16.18194
21
-11.55505
31
-4.24969
12
-20.29864
22
-7.45739
32
-6.92498
13
-20.29864
23
-7.45739
33
-6.92498
0
3DFACE
8
Sph_re0
62
1
10
-21.97003
20
-3.50048
30
-10.46777
11
-25.45526
21
-5.39227
31
-10.46777
12
-20.29864
22
-7.45739
32
-6.92498
13
-20.29864
23
-7.45739
33
-6.92498
0
3DFACE
8
Sph_re0
62
1
10
-23.03894
20
-8.97436
30
-6.92498
11
-20.29864
21
-7.45739
31
-6.92498
12
-25.45526
22
-5.39227
32
-10.46777
13
-25.45526
23
-5.39227
33
-10.46777
0
3DFACE
8
Sph_re0
62
1
10
-25.45526
20
-5.39227
30
-10.46777
11
-28.49151
21
-7.89727
31
-10.46777
12
-23.03894
22
-8.97436
32
-6.92498
13
-23.03894
23
-8.97436
33
-6.92498
0
3DFACE
8
Sph_re0
62
1
10
-25.45526
20
-10.93402
30
-6.92498
11
-23.03894
21
-8.97436
31
-6.92498
12
-28.49151
22
-7.89727
32
-10.46777
13
-28.49151
23
-7.89727
33
-10.46777
0
3DFACE
8
Sph_re0
62
1
10
-20.29864
20
-7.45739
30
-6.92498
11
-23.03894
21
-8.97436
31
-6.92498
12
-18.38012
22
-11.99865
32
-4.24969
13
-18.38012
23
-11.99865
33
-4.24969
0
3DFACE
8
Sph_re0
62
1
10
-20.17517
20
-13.20898
30
-4.24969
11
-18.38012
21
-11.99865
31
-4.24969
12
-23.03894
22
-8.97436
32
-6.92498
13
-23.03894
23
-8.97436
33
-6.92498
0
3DFACE
8
Sph_re0
62
1
10
-23.03894
20
-8.97436
30
-6.92498
11
-25.45526
21
-10.93402
31
-6.92498
12
-20.17517
22
-13.20898
32
-4.24969
13
-20.17517
23
-13.20898
33
-4.24969
0
3DFACE
8
Sph_re0
62
1
10
-21.97003
20
-14.41900
30
-4.24969
11
-20.17517
21
-13.20898
31
-4.24969
12
-25.45526
22
-10.93402
32
-6.92498
13
-25.45526
23
-10.93402
33
-6.92498
0
3DFACE
8
Sph_re0
62
1
10
-28.49151
20
-7.89727
30
-10.46777
11
-30.99700
21
-10.93389
31
-10.46777
12
-25.45526
22
-10.93402
32
-6.92498
13
-25.45526
23
-10.93402
33
-6.92498
0
3DFACE
8
Sph_re0
62
1
10
-27.41510
20
-13.35034
30
-6.92498
11
-25.45526
21
-10.93402
31
-6.92498
12
-30.99700
22
-10.93389
32
-10.46777
13
-30.99700
23
-10.93389
33
-10.46777
0
3DFACE
8
Sph_re0
62
1
10
-30.99700
20
-10.93389
30
-10.46777
11
-32.88848
21
-14.41900
31
-10.46777
12
-27.41510
22
-13.35034
32
-6.92498
13
-27.41510
23
-13.35034
33
-6.92498
0
3DFACE
8
Sph_re0
62
1
10
-28.93188
20
-16.09063
30
-6.92498
11
-27.41510
21
-13.35034
31
-6.92498
12
-32.88848
22
-14.41900
32
-10.46777
13
-32.88848
23
-14.41900
33
-10.46777
0
3DFACE
8
Sph_re0
62
1
10
-25.45526
20
-10.93402
30
-6.92498
11
-27.41510
21
-13.35034
31
-6.92498
12
-21.97003
22
-14.41900
32
-4.24969
13
-21.97003
23
-14.41900
33
-4.24969
0
3DFACE
8
Sph_re0
62
1
10
-23.18048
20
-16.21398
30
-4.24969
11
-21.97003
21
-14.41900
31
-4.24969
12
-27.41510
22
-13.35034
32
-6.92498
13
-27.41510
23
-13.35034
33
-6.92498
0
3DFACE
8
Sph_re0
62
1
10
-27.41510
20
-13.35034
30
-6.92498
11
-28.93188
21
-16.09063
31
-6.92498
12
-23.18048
22
-16.21398
32
-4.24969
13
-23.18048
23
-16.21398
33
-4.24969
0
3DFACE
8
Sph_re0
62
1
10
-24.39044
20
-18.00885
30
-4.24969
11
-23.18048
21
-16.21398
31
-4.24969
12
-28.93188
22
-16.09063
32
-6.92498
13
-28.93188
23
-16.09063
33
-6.92498
0
3DFACE
8
Sph_re0
62
1
10
-32.88848
20
-14.41900
30
-10.46777
11
-34.08392
21
-18.27020
31
-10.46777
12
-28.93188
22
-16.09063
32
-6.92498
13
-28.93188
23
-16.09063
33
-6.92498
0
3DFACE
8
Sph_re0
62
1
10
-29.85046
20
-19.14550
30
-6.92498
11
-28.93188
21
-16.09063
31
-6.92498
12
-34.08392
22
-18.27020
32
-10.46777
13
-34.08392
23
-18.27020
33
-10.46777
0
3DFACE
8
Sph_re0
62
1
10
-34.08392
20
-18.27020
30
-10.46777
11
-34.50067
21
-22.40490
31
-10.46777
12
-29.85046
22
-19.14550
32
-6.92498
13
-29.85046
23
-19.14550
33
-6.92498
0
3DFACE
8
Sph_re0
62
1
10
-30.20672
20
-22.40490
30
-6.92498
11
-29.85046
21
-19.14550
31
-6.92498
12
-34.50067
22
-22.40490
32
-10.46777
13
-34.50067
23
-22.40490
33
-10.46777
0
3DFACE
8
Sph_re0
62
1
10
-28.93188
20
-16.09063
30
-6.92498
11
-29.85046
21
-19.14550
31
-6.92498
12
-24.39044
22
-18.00885
32
-4.24969
13
-24.39044
23
-18.00885
33
-4.24969
0
3DFACE
8
Sph_re0
62
1
10
-24.83422
20
-20.20703
30
-4.24969
11
-24.39044
21
-18.00885
31
-4.24969
12
-29.85046
22
-19.14550
32
-6.92498
13
-29.85046
23
-19.14550
33
-6.92498
0
3DFACE
8
Sph_re0
62
1
10
-29.85046
20
-19.14550
30
-6.92498
11
-30.20672
21
-22.40490
31
-6.92498
12
-24.83422
22
-20.20703
32
-4.24969
13
-24.83422
23
-20.20703
33
-4.24969
0
3DFACE
8
Sph_re0
62
1
10
-25.27783
20
-22.40490
30
-4.24969
11
-24.83422
21
-20.20703
31
-4.24969
12
-30.20672
22
-22.40490
32
-6.92498
13
-30.20672
23
-22.40490
33
-6.92498
0
3DFACE
8
Sph_re0
62
1
10
-13.98358
20
-11.11102
30
-4.24969
11
-18.38012
21
-11.99865
31
-4.24969
12
-13.98358
22
-16.55755
32
-2.55902
13
-13.98358
23
-16.55755
33
-2.55902
0
3DFACE
8
Sph_re0
62
1
10
-16.26000
20
-17.01727
30
-2.55902
11
-13.98358
21
-16.55755
31
-2.55902
12
-18.38012
22
-11.99865
32
-4.24969
13
-18.38012
23
-11.99865
33
-4.24969
0
3DFACE
8
Sph_re0
62
1
10
-18.38012
20
-11.99865
30
-4.24969
11
-21.97003
21
-14.41900
31
-4.24969
12
-16.26000
22
-17.01727
32
-2.55902
13
-16.26000
23
-17.01727
33
-2.55902
0
3DFACE
8
Sph_re0
62
1
10
-18.11877
20
-18.27038
30
-2.55902
11
-16.26000
21
-17.01727
31
-2.55902
12
-21.97003
22
-14.41900
32
-4.24969
13
-21.97003
23
-14.41900
33
-4.24969
0
3DFACE
8
Sph_re0
62
1
10
-21.97003
20
-14.41900
30
-4.24969
11
-24.39044
21
-18.00885
31
-4.24969
12
-18.11877
22
-18.27038
32
-2.55902
13
-18.11877
23
-18.27038
33
-2.55902
0
3DFACE
8
Sph_re0
62
1
10
-19.37200
20
-20.12908
30
-2.55902
11
-18.11877
21
-18.27038
31
-2.55902
12
-24.39044
22
-18.00885
32
-4.24969
13
-24.39044
23
-18.00885
33
-4.24969
0
3DFACE
8
Sph_re0
62
1
10
-24.39044
20
-18.00885
30
-4.24969
11
-25.27783
21
-22.40490
31
-4.24969
12
-19.37200
22
-20.12908
32
-2.55902
13
-19.37200
23
-20.12908
33
-2.55902
0
3DFACE
8
Sph_re0
62
1
10
-19.83142
20
-22.40490
30
-2.55902
11
-19.37200
21
-20.12908
31
-2.55902
12
-25.27783
22
-22.40490
32
-4.24969
13
-25.27783
23
-22.40490
33
-4.24969
0
3DFACE
8
Sph_re0
62
1
10
-13.98358
20
-16.55755
30
-2.55902
11
-16.26000
21
-17.01727
31
-2.55902
12
-13.98358
22
-22.40490
32
-1.96942
13
-13.98358
23
-22.40490
33
-1.96942
0
3DFACE
8
Sph_re0
62
1
10
-13.98358
20
-22.40490
30
-1.96942
11
-13.98358
21
-22.40490
31
-1.96942
12
-16.26000
22
-17.01727
32
-2.55902
13
-16.26000
23
-17.01727
33
-2.55902
0
3DFACE
8
Sph_re0
62
1
10
-16.26000
20
-17.01727
30
-2.55902
11
-18.11877
21
-18.27038
31
-2.55902
12
-13.98358
22
-22.40490
32
-1.96942
13
-13.98358
23
-22.40490
33
-1.96942
0
3DFACE
8
Sph_re0
62
1
10
-13.98358
20
-22.40490
30
-1.96942
11
-13.98358
21
-22.40490
31
-1.96942
12
-18.11877
22
-18.27038
32
-2.55902
13
-18.11877
23
-18.27038
33
-2.55902
0
3DFACE
8
Sph_re0
62
1
10
-18.11877
20
-18.27038
30
-2.55902
11
-19.37200
21
-20.12908
31
-2.55902
12
-13.98358
22
-22.40490
32
-1.96942
13
-13.98358
23
-22.40490
33
-1.96942
0
3DFACE
8
Sph_re0
62
1
10
-13.98358
20
-22.40490
30
-1.96942
11
-13.98358
21
-22.40490
31
-1.96942
12
-19.37200
22
-20.12908
32
-2.55902
13
-19.37200
23
-20.12908
33
-2.55902
0
3DFACE
8
Sph_re0
62
1
10
-19.37200
20
-20.12908
30
-2.55902
11
-19.83142
21
-22.40490
31
-2.55902
12
-13.98358
22
-22.40490
32
-1.96942
13
-13.98358
23
-22.40490
33
-1.96942
0
3DFACE
8
Sph_re0
62
1
10
-13.98358
20
-22.40490
30
-1.96942
11
-13.98358
21
-22.40490
31
-1.96942
12
-19.83142
22
-22.40490
32
-2.55902
13
-19.83142
23
-22.40490
33
-2.55902
0
3DFACE
8
Sph_re0
62
1
10
-13.98358
20
-51.42016
30
-30.98468
11
-8.13623
21
-50.83093
31
-30.98468
12
-13.98358
22
-50.83093
32
-25.13732
13
-13.98358
23
-50.83093
33
-25.13732
0
3DFACE
8
Sph_re0
62
1
10
-8.25500
20
-50.25360
30
-25.13732
11
-13.98358
21
-50.83093
31
-25.13732
12
-8.13623
22
-50.83093
32
-30.98468
13
-8.13623
23
-50.83093
33
-30.98468
0
3DFACE
8
Sph_re0
62
1
10
-8.13623
20
-50.83093
30
-30.98468
11
-2.68969
21
-49.14025
31
-30.98468
12
-8.25500
22
-50.25360
32
-25.13732
13
-8.25500
23
-50.25360
33
-25.13732
0
3DFACE
8
Sph_re0
62
1
10
-2.91931
20
-48.59716
30
-25.13732
11
-8.25500
21
-50.25360
31
-25.13732
12
-2.68969
22
-49.14025
32
-30.98468
13
-2.68969
23
-49.14025
33
-30.98468
0
3DFACE
8
Sph_re0
62
1
10
-13.98358
20
-50.83093
30
-25.13732
11
-8.25500
21
-50.25360
31
-25.13732
12
-13.98358
22
-49.14025
32
-19.69079
13
-13.98358
23
-49.14025
33
-19.69079
0
3DFACE
8
Sph_re0
62
1
10
-8.59576
20
-48.59716
30
-19.69079
11
-13.98358
21
-49.14025
31
-19.69079
12
-8.25500
22
-50.25360
32
-25.13732
13
-8.25500
23
-50.25360
33
-25.13732
0
3DFACE
8
Sph_re0
62
1
10
-8.25500
20
-50.25360
30
-25.13732
11
-2.91931
21
-48.59716
31
-25.13732
12
-8.59576
22
-48.59716
32
-19.69079
13
-8.59576
23
-48.59716
33
-19.69079
0
3DFACE
8
Sph_re0
62
1
10
-3.57733
20
-47.03942
30
-19.69079
11
-8.59576
21
-48.59716
31
-19.69079
12
-2.91931
22
-48.59716
32
-25.13732
13
-2.91931
23
-48.59716
33
-25.13732
0
3DFACE
8
Sph_re0
62
1
10
-2.68969
20
-49.14025
30
-30.98468
11
2.23889
21
-46.46520
31
-30.98468
12
-2.91931
22
-48.59716
32
-25.13732
13
-2.91931
23
-48.59716
33
-25.13732
0
3DFACE
8
Sph_re0
62
1
10
1.90917
20
-45.97644
30
-25.13732
11
-2.91931
21
-48.59716
31
-25.13732
12
2.23889
22
-46.46520
32
-30.98468
13
2.23889
23
-46.46520
33
-30.98468
0
3DFACE
8
Sph_re0
62
1
10
2.23889
20
-46.46520
30
-30.98468
11
6.53332
21
-42.92199
31
-30.98468
12
1.90917
22
-45.97644
32
-25.13732
13
1.90917
23
-45.97644
33
-25.13732
0
3DFACE
8
Sph_re0
62
1
10
6.11621
20
-42.50524
30
-25.13732
11
1.90917
21
-45.97644
31
-25.13732
12
6.53332
22
-42.92199
32
-30.98468
13
6.53332
23
-42.92199
33
-30.98468
0
3DFACE
8
Sph_re0
62
1
10
-2.91931
20
-48.59716
30
-25.13732
11
1.90917
21
-45.97644
31
-25.13732
12
-3.57733
22
-47.03942
32
-19.69079
13
-3.57733
23
-47.03942
33
-19.69079
0
3DFACE
8
Sph_re0
62
1
10
0.96392
20
-44.57458
30
-19.69079
11
-3.57733
21
-47.03942
31
-19.69079
12
1.90917
22
-45.97644
32
-25.13732
13
1.90917
23
-45.97644
33
-25.13732
0
3DFACE
8
Sph_re0
62
1
10
1.90917
20
-45.97644
30
-25.13732
11
6.11621
21
-42.50524
31
-25.13732
12
0.96392
22
-44.57458
32
-19.69079
13
0.96392
23
-44.57458
33
-19.69079
0
3DFACE
8
Sph_re0
62
1
10
4.92083
20
-41.30981
30
-19.69079
11
0.96392
21
-44.57458
31
-19.69079
12
6.11621
22
-42.50524
32
-25.13732
13
6.11621
23
-42.50524
33
-25.13732
0
3DFACE
8
Sph_re0
62
1
10
-13.98358
20
-49.14025
30
-19.69079
11
-8.59576
21
-48.59716
31
-19.69079
12
-13.98358
22
-46.46520
32
-14.76220
13
-13.98358
23
-46.46520
33
-14.76220
0
3DFACE
8
Sph_re0
62
1
10
-9.13507
20
-45.97656
30
-14.76220
11
-13.98358
21
-46.46520
31
-14.76220
12
-8.59576
22
-48.59716
32
-19.69079
13
-8.59576
23
-48.59716
33
-19.69079
0
3DFACE
8
Sph_re0
62
1
10
-13.98358
20
-46.46520
30
-14.76220
11
-9.13507
21
-45.97656
31
-14.76220
12
-13.98358
22
-42.92199
32
-10.46777
13
-13.98358
23
-42.92199
33
-10.46777
0
3DFACE
8
Sph_re0
62
1
10
-9.84887
20
-42.50524
30
-10.46777
11
-13.98358
21
-42.92199
31
-10.46777
12
-9.13507
22
-45.97656
32
-14.76220
13
-9.13507
23
-45.97656
33
-14.76220
0
3DFACE
8
Sph_re0
62
1
10
-8.59576
20
-48.59716
30
-19.69079
11
-3.57733
21
-47.03942
31
-19.69079
12
-9.13507
22
-45.97656
32
-14.76220
13
-9.13507
23
-45.97656
33
-14.76220
0
3DFACE
8
Sph_re0
62
1
10
-4.61865
20
-44.57458
30
-14.76220
11
-9.13507
21
-45.97656
31
-14.76220
12
-3.57733
22
-47.03942
32
-19.69079
13
-3.57733
23
-47.03942
33
-19.69079
0
3DFACE
8
Sph_re0
62
1
10
-9.13507
20
-45.97656
30
-14.76220
11
-4.61865
21
-44.57458
31
-14.76220
12
-9.84887
22
-42.50524
32
-10.46777
13
-9.84887
23
-42.50524
33
-10.46777
0
3DFACE
8
Sph_re0
62
1
10
-5.99768
20
-41.30981
30
-10.46777
11
-9.84887
21
-42.50524
31
-10.46777
12
-4.61865
22
-44.57458
32
-14.76220
13
-4.61865
23
-44.57458
33
-14.76220
0
3DFACE
8
Sph_re0
62
1
10
-3.57733
20
-47.03942
30
-19.69079
11
0.96392
21
-44.57458
31
-19.69079
12
-4.61865
22
-44.57458
32
-14.76220
13
-4.61865
23
-44.57458
33
-14.76220
0
3DFACE
8
Sph_re0
62
1
10
-0.53192
20
-42.35644
30
-14.76220
11
-4.61865
21
-44.57458
31
-14.76220
12
0.96392
22
-44.57458
32
-19.69079
13
0.96392
23
-44.57458
33
-19.69079
0
3DFACE
8
Sph_re0
62
1
10
0.96392
20
-44.57458
30
-19.69079
11
4.92083
21
-41.30981
31
-19.69079
12
-0.53192
22
-42.35644
32
-14.76220
13
-0.53192
23
-42.35644
33
-14.76220
0
3DFACE
8
Sph_re0
62
1
10
3.02905
20
-39.41833
30
-14.76220
11
-0.53192
21
-42.35644
31
-14.76220
12
4.92083
22
-41.30981
32
-19.69079
13
4.92083
23
-41.30981
33
-19.69079
0
3DFACE
8
Sph_re0
62
1
10
-4.61865
20
-44.57458
30
-14.76220
11
-0.53192
21
-42.35644
31
-14.76220
12
-5.99768
22
-41.30981
32
-10.46777
13
-5.99768
23
-41.30981
33
-10.46777
0
3DFACE
8
Sph_re0
62
1
10
-2.51257
20
-39.41833
30
-10.46777
11
-5.99768
21
-41.30981
31
-10.46777
12
-0.53192
22
-42.35644
32
-14.76220
13
-0.53192
23
-42.35644
33
-14.76220
0
3DFACE
8
Sph_re0
62
1
10
-0.53192
20
-42.35644
30
-14.76220
11
3.02905
21
-39.41833
31
-14.76220
12
-2.51257
22
-39.41833
32
-10.46777
13
-2.51257
23
-39.41833
33
-10.46777
0
3DFACE
8
Sph_re0
62
1
10
0.52404
20
-36.91284
30
-10.46777
11
-2.51257
21
-39.41833
31
-10.46777
12
3.02905
22
-39.41833
32
-14.76220
13
3.02905
23
-39.41833
33
-14.76220
0
3DFACE
8
Sph_re0
62
1
10
6.53332
20
-42.92199
30
-30.98468
11
10.07611
21
-38.62805
31
-30.98468
12
6.11621
22
-42.50524
32
-25.13732
13
6.11621
23
-42.50524
33
-25.13732
0
3DFACE
8
Sph_re0
62
1
10
9.58715
20
-38.29846
30
-25.13732
11
6.11621
21
-42.50524
31
-25.13732
12
10.07611
22
-38.62805
32
-30.98468
13
10.07611
23
-38.62805
33
-30.98468
0
3DFACE
8
Sph_re0
62
1
10
10.07611
20
-38.62805
30
-30.98468
11
12.75140
21
-33.69915
31
-30.98468
12
9.58715
22
-38.29846
32
-25.13732
13
9.58715
23
-38.29846
33
-25.13732
0
3DFACE
8
Sph_re0
62
1
10
12.20800
20
-33.46984
30
-25.13732
11
9.58715
21
-38.29846
31
-25.13732
12
12.75140
22
-33.69915
32
-30.98468
13
12.75140
23
-33.69915
33
-30.98468
0
3DFACE
8
Sph_re0
62
1
10
6.11621
20
-42.50524
30
-25.13732
11
9.58715
21
-38.29846
31
-25.13732
12
4.92083
22
-41.30981
32
-19.69079
13
4.92083
23
-41.30981
33
-19.69079
0
3DFACE
8
Sph_re0
62
1
10
8.18530
20
-37.35321
30
-19.69079
11
4.92083
21
-41.30981
31
-19.69079
12
9.58715
22
-38.29846
32
-25.13732
13
9.58715
23
-38.29846
33
-25.13732
0
3DFACE
8
Sph_re0
62
1
10
9.58715
20
-38.29846
30
-25.13732
11
12.20800
21
-33.46984
31
-25.13732
12
8.18530
22
-37.35321
32
-19.69079
13
8.18530
23
-37.35321
33
-19.69079
0
3DFACE
8
Sph_re0
62
1
10
10.65032
20
-32.81176
30
-19.69079
11
8.18530
21
-37.35321
31
-19.69079
12
12.20800
22
-33.46984
32
-25.13732
13
12.20800
23
-33.46984
33
-25.13732
0
3DFACE
8
Sph_re0
62
1
10
4.92083
20
-41.30981
30
-19.69079
11
8.18530
21
-37.35321
31
-19.69079
12
3.02905
22
-39.41833
32
-14.76220
13
3.02905
23
-39.41833
33
-14.76220
0
3DFACE
8
Sph_re0
62
1
10
5.96685
20
-35.85766
30
-14.76220
11
3.02905
21
-39.41833
31
-14.76220
12
8.18530
22
-37.35321
32
-19.69079
13
8.18530
23
-37.35321
33
-19.69079
0
3DFACE
8
Sph_re0
62
1
10
8.18530
20
-37.35321
30
-19.69079
11
10.65032
21
-32.81176
31
-19.69079
12
5.96685
22
-35.85766
32
-14.76220
13
5.96685
23
-35.85766
33
-14.76220
0
3DFACE
8
Sph_re0
62
1
10
8.18530
20
-31.77062
30
-14.76220
11
5.96685
21
-35.85766
31
-14.76220
12
10.65032
22
-32.81176
32
-19.69079
13
10.65032
23
-32.81176
33
-19.69079
0
3DFACE
8
Sph_re0
62
1
10
3.02905
20
-39.41833
30
-14.76220
11
5.96685
21
-35.85766
31
-14.76220
12
0.52404
22
-36.91284
32
-10.46777
13
0.52404
23
-36.91284
33
-10.46777
0
3DFACE
8
Sph_re0
62
1
10
3.02905
20
-33.87658
30
-10.46777
11
0.52404
21
-36.91284
31
-10.46777
12
5.96685
22
-35.85766
32
-14.76220
13
5.96685
23
-35.85766
33
-14.76220
0
3DFACE
8
Sph_re0
62
1
10
5.96685
20
-35.85766
30
-14.76220
11
8.18530
21
-31.77062
31
-14.76220
12
3.02905
22
-33.87658
32
-10.46777
13
3.02905
23
-33.87658
33
-10.46777
0
3DFACE
8
Sph_re0
62
1
10
4.92083
20
-30.39135
30
-10.46777
11
3.02905
21
-33.87658
31
-10.46777
12
8.18530
22
-31.77062
32
-14.76220
13
8.18530
23
-31.77062
33
-14.76220
0
3DFACE
8
Sph_re0
62
1
10
12.75140
20
-33.69915
30
-30.98468
11
14.44207
21
-28.25274
31
-30.98468
12
12.20800
22
-33.46984
32
-25.13732
13
12.20800
23
-33.46984
33
-25.13732
0
3DFACE
8
Sph_re0
62
1
10
13.86444
20
-28.13409
30
-25.13732
11
12.20800
21
-33.46984
31
-25.13732
12
14.44207
22
-28.25274
32
-30.98468
13
14.44207
23
-28.25274
33
-30.98468
0
3DFACE
8
Sph_re0
62
1
10
12.20800
20
-33.46984
30
-25.13732
11
13.86444
21
-28.13409
31
-25.13732
12
10.65032
22
-32.81176
32
-19.69079
13
10.65032
23
-32.81176
33
-19.69079
0
3DFACE
8
Sph_re0
62
1
10
12.20800
20
-27.79333
30
-19.69079
11
10.65032
21
-32.81176
31
-19.69079
12
13.86444
22
-28.13409
32
-25.13732
13
13.86444
23
-28.13409
33
-25.13732
0
3DFACE
8
Sph_re0
62
1
10
14.44207
20
-28.25274
30
-30.98468
11
15.03167
21
-22.40490
31
-30.98468
12
13.86444
22
-28.13409
32
-25.13732
13
13.86444
23
-28.13409
33
-25.13732
0
3DFACE
8
Sph_re0
62
1
10
14.44207
20
-22.40490
30
-25.13732
11
13.86444
21
-28.13409
31
-25.13732
12
15.03167
22
-22.40490
32
-30.98468
13
15.03167
23
-22.40490
33
-30.98468
0
3DFACE
8
Sph_re0
62
1
10
13.86444
20
-28.13409
30
-25.13732
11
14.44207
21
-22.40490
31
-25.13732
12
12.20800
22
-27.79333
32
-19.69079
13
12.20800
23
-27.79333
33
-19.69079
0
3DFACE
8
Sph_re0
62
1
10
12.75140
20
-22.40490
30
-19.69079
11
12.20800
21
-27.79333
31
-19.69079
12
14.44207
22
-22.40490
32
-25.13732
13
14.44207
23
-22.40490
33
-25.13732
0
3DFACE
8
Sph_re0
62
1
10
10.65032
20
-32.81176
30
-19.69079
11
12.20800
21
-27.79333
31
-19.69079
12
8.18530
22
-31.77062
32
-14.76220
13
8.18530
23
-31.77062
33
-14.76220
0
3DFACE
8
Sph_re0
62
1
10
9.58715
20
-27.25427
30
-14.76220
11
8.18530
21
-31.77062
31
-14.76220
12
12.20800
22
-27.79333
32
-19.69079
13
12.20800
23
-27.79333
33
-19.69079
0
3DFACE
8
Sph_re0
62
1
10
8.18530
20
-31.77062
30
-14.76220
11
9.58715
21
-27.25427
31
-14.76220
12
4.92083
22
-30.39135
32
-10.46777
13
4.92083
23
-30.39135
33
-10.46777
0
3DFACE
8
Sph_re0
62
1
10
6.11621
20
-26.54010
30
-10.46777
11
4.92083
21
-30.39135
31
-10.46777
12
9.58715
22
-27.25427
32
-14.76220
13
9.58715
23
-27.25427
33
-14.76220
0
3DFACE
8
Sph_re0
62
1
10
12.20800
20
-27.79333
30
-19.69079
11
12.75140
21
-22.40490
31
-19.69079
12
9.58715
22
-27.25427
32
-14.76220
13
9.58715
23
-27.25427
33
-14.76220
0
3DFACE
8
Sph_re0
62
1
10
10.07611
20
-22.40490
30
-14.76220
11
9.58715
21
-27.25427
31
-14.76220
12
12.75140
22
-22.40490
32
-19.69079
13
12.75140
23
-22.40490
33
-19.69079
0
3DFACE
8
Sph_re0
62
1
10
9.58715
20
-27.25427
30
-14.76220
11
10.07611
21
-22.40490
31
-14.76220
12
6.11621
22
-26.54010
32
-10.46777
13
6.11621
23
-26.54010
33
-10.46777
0
3DFACE
8
Sph_re0
62
1
10
6.53332
20
-22.40490
30
-10.46777
11
6.11621
21
-26.54010
31
-10.46777
12
10.07611
22
-22.40490
32
-14.76220
13
10.07611
23
-22.40490
33
-14.76220
0
3DFACE
8
Sph_re0
62
1
10
-13.98358
20
-42.92199
30
-10.46777
11
-9.84887
21
-42.50524
31
-10.46777
12
-13.98358
22
-38.62805
32
-6.92498
13
-13.98358
23
-38.62805
33
-6.92498
0
3DFACE
8
Sph_re0
62
1
10
-10.72418
20
-38.27178
30
-6.92498
11
-13.98358
21
-38.62805
31
-6.92498
12
-9.84887
22
-42.50524
32
-10.46777
13
-9.84887
23
-42.50524
33
-10.46777
0
3DFACE
8
Sph_re0
62
1
10
-9.84887
20
-42.50524
30
-10.46777
11
-5.99768
21
-41.30981
31
-10.46777
12
-10.72418
22
-38.27178
32
-6.92498
13
-10.72418
23
-38.27178
33
-6.92498
0
3DFACE
8
Sph_re0
62
1
10
-7.66931
20
-37.35321
30
-6.92498
11
-10.72418
21
-38.27178
31
-6.92498
12
-5.99768
22
-41.30981
32
-10.46777
13
-5.99768
23
-41.30981
33
-10.46777
0
3DFACE
8
Sph_re0
62
1
10
-13.98358
20
-38.62805
30
-6.92498
11
-10.72418
21
-38.27178
31
-6.92498
12
-13.98358
22
-33.69915
32
-4.24969
13
-13.98358
23
-33.69915
33
-4.24969
0
3DFACE
8
Sph_re0
62
1
10
-11.78570
20
-33.25555
30
-4.24969
11
-13.98358
21
-33.69915
31
-4.24969
12
-10.72418
22
-38.27178
32
-6.92498
13
-10.72418
23
-38.27178
33
-6.92498
0
3DFACE
8
Sph_re0
62
1
10
-10.72418
20
-38.27178
30
-6.92498
11
-7.66931
21
-37.35321
31
-6.92498
12
-11.78570
22
-33.25555
32
-4.24969
13
-11.78570
23
-33.25555
33
-4.24969
0
3DFACE
8
Sph_re0
62
1
10
-9.58752
20
-32.81176
30
-4.24969
11
-11.78570
21
-33.25555
31
-4.24969
12
-7.66931
22
-37.35321
32
-6.92498
13
-7.66931
23
-37.35321
33
-6.92498
0
3DFACE
8
Sph_re0
62
1
10
-5.99768
20
-41.30981
30
-10.46777
11
-2.51257
21
-39.41833
31
-10.46777
12
-7.66931
22
-37.35321
32
-6.92498
13
-7.66931
23
-37.35321
33
-6.92498
0
3DFACE
8
Sph_re0
62
1
10
-4.92901
20
-35.83642
30
-6.92498
11
-7.66931
21
-37.35321
31
-6.92498
12
-2.51257
22
-39.41833
32
-10.46777
13
-2.51257
23
-39.41833
33
-10.46777
0
3DFACE
8
Sph_re0
62
1
10
-2.51257
20
-39.41833
30
-10.46777
11
0.52404
21
-36.91284
31
-10.46777
12
-4.92901
22
-35.83642
32
-6.92498
13
-4.92901
23
-35.83642
33
-6.92498
0
3DFACE
8
Sph_re0
62
1
10
-2.51269
20
-33.87658
30
-6.92498
11
-4.92901
21
-35.83642
31
-6.92498
12
0.52404
22
-36.91284
32
-10.46777
13
0.52404
23
-36.91284
33
-10.46777
0
3DFACE
8
Sph_re0
62
1
10
-7.66931
20
-37.35321
30
-6.92498
11
-4.92901
21
-35.83642
31
-6.92498
12
-9.58752
22
-32.81176
32
-4.24969
13
-9.58752
23
-32.81176
33
-4.24969
0
3DFACE
8
Sph_re0
62
1
10
-7.79266
20
-31.60180
30
-4.24969
11
-9.58752
21
-32.81176
31
-4.24969
12
-4.92901
22
-35.83642
32
-6.92498
13
-4.92901
23
-35.83642
33
-6.92498
0
3DFACE
8
Sph_re0
62
1
10
-4.92901
20
-35.83642
30
-6.92498
11
-2.51269
21
-33.87658
31
-6.92498
12
-7.79266
22
-31.60180
32
-4.24969
13
-7.79266
23
-31.60180
33
-4.24969
0
3DFACE
8
Sph_re0
62
1
10
-5.99768
20
-30.39135
30
-4.24969
11
-7.79266
21
-31.60180
31
-4.24969
12
-2.51269
22
-33.87658
32
-6.92498
13
-2.51269
23
-33.87658
33
-6.92498
0
3DFACE
8
Sph_re0
62
1
10
0.52404
20
-36.91284
30
-10.46777
11
3.02905
21
-33.87658
31
-10.46777
12
-2.51269
22
-33.87658
32
-6.92498
13
-2.51269
23
-33.87658
33
-6.92498
0
3DFACE
8
Sph_re0
62
1
10
-0.55303
20
-31.46026
30
-6.92498
11
-2.51269
21
-33.87658
31
-6.92498
12
3.02905
22
-33.87658
32
-10.46777
13
3.02905
23
-33.87658
33
-10.46777
0
3DFACE
8
Sph_re0
62
1
10
3.02905
20
-33.87658
30
-10.46777
11
4.92083
21
-30.39135
31
-10.46777
12
-0.55303
22
-31.46026
32
-6.92498
13
-0.55303
23
-31.46026
33
-6.92498
0
3DFACE
8
Sph_re0
62
1
10
0.96392
20
-28.71997
30
-6.92498
11
-0.55303
21
-31.46026
31
-6.92498
12
4.92083
22
-30.39135
32
-10.46777
13
4.92083
23
-30.39135
33
-10.46777
0
3DFACE
8
Sph_re0
62
1
10
-2.51269
20
-33.87658
30
-6.92498
11
-0.55303
21
-31.46026
31
-6.92498
12
-5.99768
22
-30.39135
32
-4.24969
13
-5.99768
23
-30.39135
33
-4.24969
0
3DFACE
8
Sph_re0
62
1
10
-4.78765
20
-28.59649
30
-4.24969
11
-5.99768
21
-30.39135
31
-4.24969
12
-0.55303
22
-31.46026
32
-6.92498
13
-0.55303
23
-31.46026
33
-6.92498
0
3DFACE
8
Sph_re0
62
1
10
-0.55303
20
-31.46026
30
-6.92498
11
0.96392
21
-28.71997
31
-6.92498
12
-4.78765
22
-28.59649
32
-4.24969
13
-4.78765
23
-28.59649
33
-4.24969
0
3DFACE
8
Sph_re0
62
1
10
-3.57733
20
-26.80145
30
-4.24969
11
-4.78765
21
-28.59649
31
-4.24969
12
0.96392
22
-28.71997
32
-6.92498
13
0.96392
23
-28.71997
33
-6.92498
0
3DFACE
8
Sph_re0
62
1
10
4.92083
20
-30.39135
30
-10.46777
11
6.11621
21
-26.54010
31
-10.46777
12
0.96392
22
-28.71997
32
-6.92498
13
0.96392
23
-28.71997
33
-6.92498
0
3DFACE
8
Sph_re0
62
1
10
1.88232
20
-25.66497
30
-6.92498
11
0.96392
21
-28.71997
31
-6.92498
12
6.11621
22
-26.54010
32
-10.46777
13
6.11621
23
-26.54010
33
-10.46777
0
3DFACE
8
Sph_re0
62
1
10
6.11621
20
-26.54010
30
-10.46777
11
6.53332
21
-22.40490
31
-10.46777
12
1.88232
22
-25.66497
32
-6.92498
13
1.88232
23
-25.66497
33
-6.92498
0
3DFACE
8
Sph_re0
62
1
10
2.23889
20
-22.40490
30
-6.92498
11
1.88232
21
-25.66497
31
-6.92498
12
6.53332
22
-22.40490
32
-10.46777
13
6.53332
23
-22.40490
33
-10.46777
0
3DFACE
8
Sph_re0
62
1
10
0.96392
20
-28.71997
30
-6.92498
11
1.88232
21
-25.66497
31
-6.92498
12
-3.57733
22
-26.80145
32
-4.24969
13
-3.57733
23
-26.80145
33
-4.24969
0
3DFACE
8
Sph_re0
62
1
10
-3.13372
20
-24.60327
30
-4.24969
11
-3.57733
21
-26.80145
31
-4.24969
12
1.88232
22
-25.66497
32
-6.92498
13
1.88232
23
-25.66497
33
-6.92498
0
3DFACE
8
Sph_re0
62
1
10
1.88232
20
-25.66497
30
-6.92498
11
2.23889
21
-22.40490
31
-6.92498
12
-3.13372
22
-24.60327
32
-4.24969
13
-3.13372
23
-24.60327
33
-4.24969
0
3DFACE
8
Sph_re0
62
1
10
-2.68969
20
-22.40490
30
-4.24969
11
-3.13372
21
-24.60327
31
-4.24969
12
2.23889
22
-22.40490
32
-6.92498
13
2.23889
23
-22.40490
33
-6.92498
0
3DFACE
8
Sph_re0
62
1
10
-13.98358
20
-33.69915
30
-4.24969
11
-9.58752
21
-32.81176
31
-4.24969
12
-13.98358
22
-28.25274
32
-2.55902
13
-13.98358
23
-28.25274
33
-2.55902
0
3DFACE
8
Sph_re0
62
1
10
-11.70776
20
-27.79333
30
-2.55902
11
-13.98358
21
-28.25274
31
-2.55902
12
-9.58752
22
-32.81176
32
-4.24969
13
-9.58752
23
-32.81176
33
-4.24969
0
3DFACE
8
Sph_re0
62
1
10
-9.58752
20
-32.81176
30
-4.24969
11
-5.99768
21
-30.39135
31
-4.24969
12
-11.70776
22
-27.79333
32
-2.55902
13
-11.70776
23
-27.79333
33
-2.55902
0
3DFACE
8
Sph_re0
62
1
10
-9.84906
20
-26.54010
30
-2.55902
11
-11.70776
21
-27.79333
31
-2.55902
12
-5.99768
22
-30.39135
32
-4.24969
13
-5.99768
23
-30.39135
33
-4.24969
0
3DFACE
8
Sph_re0
62
1
10
-5.99768
20
-30.39135
30
-4.24969
11
-3.57733
21
-26.80145
31
-4.24969
12
-9.84906
22
-26.54010
32
-2.55902
13
-9.84906
23
-26.54010
33
-2.55902
0
3DFACE
8
Sph_re0
62
1
10
-8.59594
20
-24.68133
30
-2.55902
11
-9.84906
21
-26.54010
31
-2.55902
12
-3.57733
22
-26.80145
32
-4.24969
13
-3.57733
23
-26.80145
33
-4.24969
0
3DFACE
8
Sph_re0
62
1
10
-3.57733
20
-26.80145
30
-4.24969
11
-2.68969
21
-22.40490
31
-4.24969
12
-8.59594
22
-24.68133
32
-2.55902
13
-8.59594
23
-24.68133
33
-2.55902
0
3DFACE
8
Sph_re0
62
1
10
-8.13623
20
-22.40490
30
-2.55902
11
-8.59594
21
-24.68133
31
-2.55902
12
-2.68969
22
-22.40490
32
-4.24969
13
-2.68969
23
-22.40490
33
-4.24969
0
3DFACE
8
Sph_re0
62
1
10
-13.98358
20
-28.25274
30
-2.55902
11
-11.70776
21
-27.79333
31
-2.55902
12
-13.98358
22
-22.40490
32
-1.96942
13
-13.98358
23
-22.40490
33
-1.96942
0
3DFACE
8
Sph_re0
62
1
10
-13.98358
20
-22.40490
30
-1.96942
11
-13.98358
21
-22.40490
31
-1.96942
12
-11.70776
22
-27.79333
32
-2.55902
13
-11.70776
23
-27.79333
33
-2.55902
0
3DFACE
8
Sph_re0
62
1
10
-11.70776
20
-27.79333
30
-2.55902
11
-9.84906
21
-26.54010
31
-2.55902
12
-13.98358
22
-22.40490
32
-1.96942
13
-13.98358
23
-22.40490
33
-1.96942
0
3DFACE
8
Sph_re0
62
1
10
-13.98358
20
-22.40490
30
-1.96942
11
-13.98358
21
-22.40490
31
-1.96942
12
-9.84906
22
-26.54010
32
-2.55902
13
-9.84906
23
-26.54010
33
-2.55902
0
3DFACE
8
Sph_re0
62
1
10
-9.84906
20
-26.54010
30
-2.55902
11
-8.59594
21
-24.68133
31
-2.55902
12
-13.98358
22
-22.40490
32
-1.96942
13
-13.98358
23
-22.40490
33
-1.96942
0
3DFACE
8
Sph_re0
62
1
10
-13.98358
20
-22.40490
30
-1.96942
11
-13.98358
21
-22.40490
31
-1.96942
12
-8.59594
22
-24.68133
32
-2.55902
13
-8.59594
23
-24.68133
33
-2.55902
0
3DFACE
8
Sph_re0
62
1
10
-8.59594
20
-24.68133
30
-2.55902
11
-8.13623
21
-22.40490
31
-2.55902
12
-13.98358
22
-22.40490
32
-1.96942
13
-13.98358
23
-22.40490
33
-1.96942
0
3DFACE
8
Sph_re0
62
1
10
-13.98358
20
-22.40490
30
-1.96942
11
-13.98358
21
-22.40490
31
-1.96942
12
-8.13623
22
-22.40490
32
-2.55902
13
-8.13623
23
-22.40490
33
-2.55902
0
3DFACE
8
Sph_re0
62
1
10
-42.99884
20
-22.40490
30
-30.98468
11
-42.40960
21
-28.25274
31
-30.98468
12
-42.40960
22
-22.40490
32
-25.13732
13
-42.40960
23
-22.40490
33
-25.13732
0
3DFACE
8
Sph_re0
62
1
10
-41.83227
20
-28.13409
30
-25.13732
11
-42.40960
21
-22.40490
31
-25.13732
12
-42.40960
22
-28.25274
32
-30.98468
13
-42.40960
23
-28.25274
33
-30.98468
0
3DFACE
8
Sph_re0
62
1
10
-42.40960
20
-22.40490
30
-25.13732
11
-41.83227
21
-28.13409
31
-25.13732
12
-40.71893
22
-22.40490
32
-19.69079
13
-40.71893
23
-22.40490
33
-19.69079
0
3DFACE
8
Sph_re0
62
1
10
-40.17584
20
-27.79333
30
-19.69079
11
-40.71893
21
-22.40490
31
-19.69079
12
-41.83227
22
-28.13409
32
-25.13732
13
-41.83227
23
-28.13409
33
-25.13732
0
3DFACE
8
Sph_re0
62
1
10
-42.40960
20
-28.25274
30
-30.98468
11
-40.71893
21
-33.69915
31
-30.98468
12
-41.83227
22
-28.13409
32
-25.13732
13
-41.83227
23
-28.13409
33
-25.13732
0
3DFACE
8
Sph_re0
62
1
10
-40.17584
20
-33.46984
30
-25.13732
11
-41.83227
21
-28.13409
31
-25.13732
12
-40.71893
22
-33.69915
32
-30.98468
13
-40.71893
23
-33.69915
33
-30.98468
0
3DFACE
8
Sph_re0
62
1
10
-41.83227
20
-28.13409
30
-25.13732
11
-40.17584
21
-33.46984
31
-25.13732
12
-40.17584
22
-27.79333
32
-19.69079
13
-40.17584
23
-27.79333
33
-19.69079
0
3DFACE
8
Sph_re0
62
1
10
-38.61810
20
-32.81176
30
-19.69079
11
-40.17584
21
-27.79333
31
-19.69079
12
-40.17584
22
-33.46984
32
-25.13732
13
-40.17584
23
-33.46984
33
-25.13732
0
3DFACE
8
Sph_re0
62
1
10
-40.71893
20
-22.40490
30
-19.69079
11
-40.17584
21
-27.79333
31
-19.69079
12
-38.04388
22
-22.40490
32
-14.76220
13
-38.04388
23
-22.40490
33
-14.76220
0
3DFACE
8
Sph_re0
62
1
10
-37.55511
20
-27.25427
30
-14.76220
11
-38.04388
21
-22.40490
31
-14.76220
12
-40.17584
22
-27.79333
32
-19.69079
13
-40.17584
23
-27.79333
33
-19.69079
0
3DFACE
8
Sph_re0
62
1
10
-38.04388
20
-22.40490
30
-14.76220
11
-37.55511
21
-27.25427
31
-14.76220
12
-34.50067
22
-22.40490
32
-10.46777
13
-34.50067
23
-22.40490
33
-10.46777
0
3DFACE
8
Sph_re0
62
1
10
-34.08392
20
-26.54010
30
-10.46777
11
-34.50067
21
-22.40490
31
-10.46777
12
-37.55511
22
-27.25427
32
-14.76220
13
-37.55511
23
-27.25427
33
-14.76220
0
3DFACE
8
Sph_re0
62
1
10
-40.17584
20
-27.79333
30
-19.69079
11
-38.61810
21
-32.81176
31
-19.69079
12
-37.55511
22
-27.25427
32
-14.76220
13
-37.55511
23
-27.25427
33
-14.76220
0
3DFACE
8
Sph_re0
62
1
10
-36.15325
20
-31.77062
30
-14.76220
11
-37.55511
21
-27.25427
31
-14.76220
12
-38.61810
22
-32.81176
32
-19.69079
13
-38.61810
23
-32.81176
33
-19.69079
0
3DFACE
8
Sph_re0
62
1
10
-37.55511
20
-27.25427
30
-14.76220
11
-36.15325
21
-31.77062
31
-14.76220
12
-34.08392
22
-26.54010
32
-10.46777
13
-34.08392
23
-26.54010
33
-10.46777
0
3DFACE
8
Sph_re0
62
1
10
-32.88848
20
-30.39135
30
-10.46777
11
-34.08392
21
-26.54010
31
-10.46777
12
-36.15325
22
-31.77062
32
-14.76220
13
-36.15325
23
-31.77062
33
-14.76220
0
3DFACE
8
Sph_re0
62
1
10
-40.71893
20
-33.69915
30
-30.98468
11
-38.04388
21
-38.62805
31
-30.98468
12
-40.17584
22
-33.46984
32
-25.13732
13
-40.17584
23
-33.46984
33
-25.13732
0
3DFACE
8
Sph_re0
62
1
10
-37.55523
20
-38.29846
30
-25.13732
11
-40.17584
21
-33.46984
31
-25.13732
12
-38.04388
22
-38.62805
32
-30.98468
13
-38.04388
23
-38.62805
33
-30.98468
0
3DFACE
8
Sph_re0
62
1
10
-38.04388
20
-38.62805
30
-30.98468
11
-34.50067
21
-42.92199
31
-30.98468
12
-37.55523
22
-38.29846
32
-25.13732
13
-37.55523
23
-38.29846
33
-25.13732
0
3DFACE
8
Sph_re0
62
1
10
-34.08392
20
-42.50524
30
-25.13732
11
-37.55523
21
-38.29846
31
-25.13732
12
-34.50067
22
-42.92199
32
-30.98468
13
-34.50067
23
-42.92199
33
-30.98468
0
3DFACE
8
Sph_re0
62
1
10
-40.17584
20
-33.46984
30
-25.13732
11
-37.55523
21
-38.29846
31
-25.13732
12
-38.61810
22
-32.81176
32
-19.69079
13
-38.61810
23
-32.81176
33
-19.69079
0
3DFACE
8
Sph_re0
62
1
10
-36.15325
20
-37.35321
30
-19.69079
11
-38.61810
21
-32.81176
31
-19.69079
12
-37.55523
22
-38.29846
32
-25.13732
13
-37.55523
23
-38.29846
33
-25.13732
0
3DFACE
8
Sph_re0
62
1
10
-37.55523
20
-38.29846
30
-25.13732
11
-34.08392
21
-42.50524
31
-25.13732
12
-36.15325
22
-37.35321
32
-19.69079
13
-36.15325
23
-37.35321
33
-19.69079
0
3DFACE
8
Sph_re0
62
1
10
-32.88848
20
-41.30981
30
-19.69079
11
-36.15325
21
-37.35321
31
-19.69079
12
-34.08392
22
-42.50524
32
-25.13732
13
-34.08392
23
-42.50524
33
-25.13732
0
3DFACE
8
Sph_re0
62
1
10
-38.61810
20
-32.81176
30
-19.69079
11
-36.15325
21
-37.35321
31
-19.69079
12
-36.15325
22
-31.77062
32
-14.76220
13
-36.15325
23
-31.77062
33
-14.76220
0
3DFACE
8
Sph_re0
62
1
10
-33.93511
20
-35.85766
30
-14.76220
11
-36.15325
21
-31.77062
31
-14.76220
12
-36.15325
22
-37.35321
32
-19.69079
13
-36.15325
23
-37.35321
33
-19.69079
0
3DFACE
8
Sph_re0
62
1
10
-36.15325
20
-37.35321
30
-19.69079
11
-32.88848
21
-41.30981
31
-19.69079
12
-33.93511
22
-35.85766
32
-14.76220
13
-33.93511
23
-35.85766
33
-14.76220
0
3DFACE
8
Sph_re0
62
1
10
-30.99700
20
-39.41833
30
-14.76220
11
-33.93511
21
-35.85766
31
-14.76220
12
-32.88848
22
-41.30981
32
-19.69079
13
-32.88848
23
-41.30981
33
-19.69079
0
3DFACE
8
Sph_re0
62
1
10
-36.15325
20
-31.77062
30
-14.76220
11
-33.93511
21
-35.85766
31
-14.76220
12
-32.88848
22
-30.39135
32
-10.46777
13
-32.88848
23
-30.39135
33
-10.46777
0
3DFACE
8
Sph_re0
62
1
10
-30.99700
20
-33.87658
30
-10.46777
11
-32.88848
21
-30.39135
31
-10.46777
12
-33.93511
22
-35.85766
32
-14.76220
13
-33.93511
23
-35.85766
33
-14.76220
0
3DFACE
8
Sph_re0
62
1
10
-33.93511
20
-35.85766
30
-14.76220
11
-30.99700
21
-39.41833
31
-14.76220
12
-30.99700
22
-33.87658
32
-10.46777
13
-30.99700
23
-33.87658
33
-10.46777
0
3DFACE
8
Sph_re0
62
1
10
-28.49151
20
-36.91284
30
-10.46777
11
-30.99700
21
-33.87658
31
-10.46777
12
-30.99700
22
-39.41833
32
-14.76220
13
-30.99700
23
-39.41833
33
-14.76220
0
3DFACE
8
Sph_re0
62
1
10
-34.50067
20
-42.92199
30
-30.98468
11
-30.20672
21
-46.46520
31
-30.98468
12
-34.08392
22
-42.50524
32
-25.13732
13
-34.08392
23
-42.50524
33
-25.13732
0
3DFACE
8
Sph_re0
62
1
10
-29.87713
20
-45.97656
30
-25.13732
11
-34.08392
21
-42.50524
31
-25.13732
12
-30.20672
22
-46.46520
32
-30.98468
13
-30.20672
23
-46.46520
33
-30.98468
0
3DFACE
8
Sph_re0
62
1
10
-30.20672
20
-46.46520
30
-30.98468
11
-25.27783
21
-49.14025
31
-30.98468
12
-29.87713
22
-45.97656
32
-25.13732
13
-29.87713
23
-45.97656
33
-25.13732
0
3DFACE
8
Sph_re0
62
1
10
-25.04852
20
-48.59716
30
-25.13732
11
-29.87713
21
-45.97656
31
-25.13732
12
-25.27783
22
-49.14025
32
-30.98468
13
-25.27783
23
-49.14025
33
-30.98468
0
3DFACE
8
Sph_re0
62
1
10
-34.08392
20
-42.50524
30
-25.13732
11
-29.87713
21
-45.97656
31
-25.13732
12
-32.88848
22
-41.30981
32
-19.69079
13
-32.88848
23
-41.30981
33
-19.69079
0
3DFACE
8
Sph_re0
62
1
10
-28.93188
20
-44.57458
30
-19.69079
11
-32.88848
21
-41.30981
31
-19.69079
12
-29.87713
22
-45.97656
32
-25.13732
13
-29.87713
23
-45.97656
33
-25.13732
0
3DFACE
8
Sph_re0
62
1
10
-29.87713
20
-45.97656
30
-25.13732
11
-25.04852
21
-48.59716
31
-25.13732
12
-28.93188
22
-44.57458
32
-19.69079
13
-28.93188
23
-44.57458
33
-19.69079
0
3DFACE
8
Sph_re0
62
1
10
-24.39044
20
-47.03942
30
-19.69079
11
-28.93188
21
-44.57458
31
-19.69079
12
-25.04852
22
-48.59716
32
-25.13732
13
-25.04852
23
-48.59716
33
-25.13732
0
3DFACE
8
Sph_re0
62
1
10
-32.88848
20
-41.30981
30
-19.69079
11
-28.93188
21
-44.57458
31
-19.69079
12
-30.99700
22
-39.41833
32
-14.76220
13
-30.99700
23
-39.41833
33
-14.76220
0
3DFACE
8
Sph_re0
62
1
10
-27.43634
20
-42.35644
30
-14.76220
11
-30.99700
21
-39.41833
31
-14.76220
12
-28.93188
22
-44.57458
32
-19.69079
13
-28.93188
23
-44.57458
33
-19.69079
0
3DFACE
8
Sph_re0
62
1
10
-28.93188
20
-44.57458
30
-19.69079
11
-24.39044
21
-47.03942
31
-19.69079
12
-27.43634
22
-42.35644
32
-14.76220
13
-27.43634
23
-42.35644
33
-14.76220
0
3DFACE
8
Sph_re0
62
1
10
-23.34930
20
-44.57458
30
-14.76220
11
-27.43634
21
-42.35644
31
-14.76220
12
-24.39044
22
-47.03942
32
-19.69079
13
-24.39044
23
-47.03942
33
-19.69079
0
3DFACE
8
Sph_re0
62
1
10
-30.99700
20
-39.41833
30
-14.76220
11
-27.43634
21
-42.35644
31
-14.76220
12
-28.49151
22
-36.91284
32
-10.46777
13
-28.49151
23
-36.91284
33
-10.46777
0
3DFACE
8
Sph_re0
62
1
10
-25.45526
20
-39.41833
30
-10.46777
11
-28.49151
21
-36.91284
31
-10.46777
12
-27.43634
22
-42.35644
32
-14.76220
13
-27.43634
23
-42.35644
33
-14.76220
0
3DFACE
8
Sph_re0
62
1
10
-27.43634
20
-42.35644
30
-14.76220
11
-23.34930
21
-44.57458
31
-14.76220
12
-25.45526
22
-39.41833
32
-10.46777
13
-25.45526
23
-39.41833
33
-10.46777
0
3DFACE
8
Sph_re0
62
1
10
-21.97003
20
-41.30981
30
-10.46777
11
-25.45526
21
-39.41833
31
-10.46777
12
-23.34930
22
-44.57458
32
-14.76220
13
-23.34930
23
-44.57458
33
-14.76220
0
3DFACE
8
Sph_re0
62
1
10
-25.27783
20
-49.14025
30
-30.98468
11
-19.83142
21
-50.83093
31
-30.98468
12
-25.04852
22
-48.59716
32
-25.13732
13
-25.04852
23
-48.59716
33
-25.13732
0
3DFACE
8
Sph_re0
62
1
10
-19.71276
20
-50.25360
30
-25.13732
11
-25.04852
21
-48.59716
31
-25.13732
12
-19.83142
22
-50.83093
32
-30.98468
13
-19.83142
23
-50.83093
33
-30.98468
0
3DFACE
8
Sph_re0
62
1
10
-25.04852
20
-48.59716
30
-25.13732
11
-19.71276
21
-50.25360
31
-25.13732
12
-24.39044
22
-47.03942
32
-19.69079
13
-24.39044
23
-47.03942
33
-19.69079
0
3DFACE
8
Sph_re0
62
1
10
-19.37200
20
-48.59716
30
-19.69079
11
-24.39044
21
-47.03942
31
-19.69079
12
-19.71276
22
-50.25360
32
-25.13732
13
-19.71276
23
-50.25360
33
-25.13732
0
3DFACE
8
Sph_re0
62
1
10
-19.83142
20
-50.83093
30
-30.98468
11
-13.98358
21
-51.42016
31
-30.98468
12
-19.71276
22
-50.25360
32
-25.13732
13
-19.71276
23
-50.25360
33
-25.13732
0
3DFACE
8
Sph_re0
62
1
10
-13.98358
20
-50.83093
30
-25.13732
11
-19.71276
21
-50.25360
31
-25.13732
12
-13.98358
22
-51.42016
32
-30.98468
13
-13.98358
23
-51.42016
33
-30.98468
0
3DFACE
8
Sph_re0
62
1
10
-19.71276
20
-50.25360
30
-25.13732
11
-13.98358
21
-50.83093
31
-25.13732
12
-19.37200
22
-48.59716
32
-19.69079
13
-19.37200
23
-48.59716
33
-19.69079
0
3DFACE
8
Sph_re0
62
1
10
-13.98358
20
-49.14025
30
-19.69079
11
-19.37200
21
-48.59716
31
-19.69079
12
-13.98358
22
-50.83093
32
-25.13732
13
-13.98358
23
-50.83093
33
-25.13732
0
3DFACE
8
Sph_re0
62
1
10
-24.39044
20
-47.03942
30
-19.69079
11
-19.37200
21
-48.59716
31
-19.69079
12
-23.34930
22
-44.57458
32
-14.76220
13
-23.34930
23
-44.57458
33
-14.76220
0
3DFACE
8
Sph_re0
62
1
10
-18.83294
20
-45.97644
30
-14.76220
11
-23.34930
21
-44.57458
31
-14.76220
12
-19.37200
22
-48.59716
32
-19.69079
13
-19.37200
23
-48.59716
33
-19.69079
0
3DFACE
8
Sph_re0
62
1
10
-23.34930
20
-44.57458
30
-14.76220
11
-18.83294
21
-45.97644
31
-14.76220
12
-21.97003
22
-41.30981
32
-10.46777
13
-21.97003
23
-41.30981
33
-10.46777
0
3DFACE
8
Sph_re0
62
1
10
-18.11877
20
-42.50524
30
-10.46777
11
-21.97003
21
-41.30981
31
-10.46777
12
-18.83294
22
-45.97644
32
-14.76220
13
-18.83294
23
-45.97644
33
-14.76220
0
3DFACE
8
Sph_re0
62
1
10
-19.37200
20
-48.59716
30
-19.69079
11
-13.98358
21
-49.14025
31
-19.69079
12
-18.83294
22
-45.97644
32
-14.76220
13
-18.83294
23
-45.97644
33
-14.76220
0
3DFACE
8
Sph_re0
62
1
10
-13.98358
20
-46.46520
30
-14.76220
11
-18.83294
21
-45.97644
31
-14.76220
12
-13.98358
22
-49.14025
32
-19.69079
13
-13.98358
23
-49.14025
33
-19.69079
0
3DFACE
8
Sph_re0
62
1
10
-18.83294
20
-45.97644
30
-14.76220
11
-13.98358
21
-46.46520
31
-14.76220
12
-18.11877
22
-42.50524
32
-10.46777
13
-18.11877
23
-42.50524
33
-10.46777
0
3DFACE
8
Sph_re0
62
1
10
-13.98358
20
-42.92199
30
-10.46777
11
-18.11877
21
-42.50524
31
-10.46777
12
-13.98358
22
-46.46520
32
-14.76220
13
-13.98358
23
-46.46520
33
-14.76220
0
3DFACE
8
Sph_re0
62
1
10
-34.50067
20
-22.40490
30
-10.46777
11
-34.08392
21
-26.54010
31
-10.46777
12
-30.20672
22
-22.40490
32
-6.92498
13
-30.20672
23
-22.40490
33
-6.92498
0
3DFACE
8
Sph_re0
62
1
10
-29.85046
20
-25.66497
30
-6.92498
11
-30.20672
21
-22.40490
31
-6.92498
12
-34.08392
22
-26.54010
32
-10.46777
13
-34.08392
23
-26.54010
33
-10.46777
0
3DFACE
8
Sph_re0
62
1
10
-34.08392
20
-26.54010
30
-10.46777
11
-32.88848
21
-30.39135
31
-10.46777
12
-29.85046
22
-25.66497
32
-6.92498
13
-29.85046
23
-25.66497
33
-6.92498
0
3DFACE
8
Sph_re0
62
1
10
-28.93188
20
-28.71997
30
-6.92498
11
-29.85046
21
-25.66497
31
-6.92498
12
-32.88848
22
-30.39135
32
-10.46777
13
-32.88848
23
-30.39135
33
-10.46777
0
3DFACE
8
Sph_re0
62
1
10
-30.20672
20
-22.40490
30
-6.92498
11
-29.85046
21
-25.66497
31
-6.92498
12
-25.27783
22
-22.40490
32
-4.24969
13
-25.27783
23
-22.40490
33
-4.24969
0
3DFACE
8
Sph_re0
62
1
10
-24.83422
20
-24.60327
30
-4.24969
11
-25.27783
21
-22.40490
31
-4.24969
12
-29.85046
22
-25.66497
32
-6.92498
13
-29.85046
23
-25.66497
33
-6.92498
0
3DFACE
8
Sph_re0
62
1
10
-29.85046
20
-25.66497
30
-6.92498
11
-28.93188
21
-28.71997
31
-6.92498
12
-24.83422
22
-24.60327
32
-4.24969
13
-24.83422
23
-24.60327
33
-4.24969
0
3DFACE
8
Sph_re0
62
1
10
-24.39044
20
-26.80145
30
-4.24969
11
-24.83422
21
-24.60327
31
-4.24969
12
-28.93188
22
-28.71997
32
-6.92498
13
-28.93188
23
-28.71997
33
-6.92498
0
3DFACE
8
Sph_re0
62
1
10
-32.88848
20
-30.39135
30
-10.46777
11
-30.99700
21
-33.87658
31
-10.46777
12
-28.93188
22
-28.71997
32
-6.92498
13
-28.93188
23
-28.71997
33
-6.92498
0
3DFACE
8
Sph_re0
62
1
10
-27.41510
20
-31.46026
30
-6.92498
11
-28.93188
21
-28.71997
31
-6.92498
12
-30.99700
22
-33.87658
32
-10.46777
13
-30.99700
23
-33.87658
33
-10.46777
0
3DFACE
8
Sph_re0
62
1
10
-30.99700
20
-33.87658
30
-10.46777
11
-28.49151
21
-36.91284
31
-10.46777
12
-27.41510
22
-31.46026
32
-6.92498
13
-27.41510
23
-31.46026
33
-6.92498
0
3DFACE
8
Sph_re0
62
1
10
-25.45526
20
-33.87658
30
-6.92498
11
-27.41510
21
-31.46026
31
-6.92498
12
-28.49151
22
-36.91284
32
-10.46777
13
-28.49151
23
-36.91284
33
-10.46777
0
3DFACE
8
Sph_re0
62
1
10
-28.93188
20
-28.71997
30
-6.92498
11
-27.41510
21
-31.46026
31
-6.92498
12
-24.39044
22
-26.80145
32
-4.24969
13
-24.39044
23
-26.80145
33
-4.24969
0
3DFACE
8
Sph_re0
62
1
10
-23.18048
20
-28.59649
30
-4.24969
11
-24.39044
21
-26.80145
31
-4.24969
12
-27.41510
22
-31.46026
32
-6.92498
13
-27.41510
23
-31.46026
33
-6.92498
0
3DFACE
8
Sph_re0
62
1
10
-27.41510
20
-31.46026
30
-6.92498
11
-25.45526
21
-33.87658
31
-6.92498
12
-23.18048
22
-28.59649
32
-4.24969
13
-23.18048
23
-28.59649
33
-4.24969
0
3DFACE
8
Sph_re0
62
1
10
-21.97003
20
-30.39135
30
-4.24969
11
-23.18048
21
-28.59649
31
-4.24969
12
-25.45526
22
-33.87658
32
-6.92498
13
-25.45526
23
-33.87658
33
-6.92498
0
3DFACE
8
Sph_re0
62
1
10
-28.49151
20
-36.91284
30
-10.46777
11
-25.45526
21
-39.41833
31
-10.46777
12
-25.45526
22
-33.87658
32
-6.92498
13
-25.45526
23
-33.87658
33
-6.92498
0
3DFACE
8
Sph_re0
62
1
10
-23.03894
20
-35.83642
30
-6.92498
11
-25.45526
21
-33.87658
31
-6.92498
12
-25.45526
22
-39.41833
32
-10.46777
13
-25.45526
23
-39.41833
33
-10.46777
0
3DFACE
8
Sph_re0
62
1
10
-25.45526
20
-39.41833
30
-10.46777
11
-21.97003
21
-41.30981
31
-10.46777
12
-23.03894
22
-35.83642
32
-6.92498
13
-23.03894
23
-35.83642
33
-6.92498
0
3DFACE
8
Sph_re0
62
1
10
-20.29864
20
-37.35321
30
-6.92498
11
-23.03894
21
-35.83642
31
-6.92498
12
-21.97003
22
-41.30981
32
-10.46777
13
-21.97003
23
-41.30981
33
-10.46777
0
3DFACE
8
Sph_re0
62
1
10
-25.45526
20
-33.87658
30
-6.92498
11
-23.03894
21
-35.83642
31
-6.92498
12
-21.97003
22
-30.39135
32
-4.24969
13
-21.97003
23
-30.39135
33
-4.24969
0
3DFACE
8
Sph_re0
62
1
10
-20.17517
20
-31.60180
30
-4.24969
11
-21.97003
21
-30.39135
31
-4.24969
12
-23.03894
22
-35.83642
32
-6.92498
13
-23.03894
23
-35.83642
33
-6.92498
0
3DFACE
8
Sph_re0
62
1
10
-23.03894
20
-35.83642
30
-6.92498
11
-20.29864
21
-37.35321
31
-6.92498
12
-20.17517
22
-31.60180
32
-4.24969
13
-20.17517
23
-31.60180
33
-4.24969
0
3DFACE
8
Sph_re0
62
1
10
-18.38012
20
-32.81176
30
-4.24969
11
-20.17517
21
-31.60180
31
-4.24969
12
-20.29864
22
-37.35321
32
-6.92498
13
-20.29864
23
-37.35321
33
-6.92498
0
3DFACE
8
Sph_re0
62
1
10
-21.97003
20
-41.30981
30
-10.46777
11
-18.11877
21
-42.50524
31
-10.46777
12
-20.29864
22
-37.35321
32
-6.92498
13
-20.29864
23
-37.35321
33
-6.92498
0
3DFACE
8
Sph_re0
62
1
10
-17.24365
20
-38.27178
30
-6.92498
11
-20.29864
21
-37.35321
31
-6.92498
12
-18.11877
22
-42.50524
32
-10.46777
13
-18.11877
23
-42.50524
33
-10.46777
0
3DFACE
8
Sph_re0
62
1
10
-18.11877
20
-42.50524
30
-10.46777
11
-13.98358
21
-42.92199
31
-10.46777
12
-17.24365
22
-38.27178
32
-6.92498
13
-17.24365
23
-38.27178
33
-6.92498
0
3DFACE
8
Sph_re0
62
1
10
-13.98358
20
-38.62805
30
-6.92498
11
-17.24365
21
-38.27178
31
-6.92498
12
-13.98358
22
-42.92199
32
-10.46777
13
-13.98358
23
-42.92199
33
-10.46777
0
3DFACE
8
Sph_re0
62
1
10
-20.29864
20
-37.35321
30
-6.92498
11
-17.24365
21
-38.27178
31
-6.92498
12
-18.38012
22
-32.81176
32
-4.24969
13
-18.38012
23
-32.81176
33
-4.24969
0
3DFACE
8
Sph_re0
62
1
10
-16.18194
20
-33.25555
30
-4.24969
11
-18.38012
21
-32.81176
31
-4.24969
12
-17.24365
22
-38.27178
32
-6.92498
13
-17.24365
23
-38.27178
33
-6.92498
0
3DFACE
8
Sph_re0
62
1
10
-17.24365
20
-38.27178
30
-6.92498
11
-13.98358
21
-38.62805
31
-6.92498
12
-16.18194
22
-33.25555
32
-4.24969
13
-16.18194
23
-33.25555
33
-4.24969
0
3DFACE
8
Sph_re0
62
1
10
-13.98358
20
-33.69915
30
-4.24969
11
-16.18194
21
-33.25555
31
-4.24969
12
-13.98358
22
-38.62805
32
-6.92498
13
-13.98358
23
-38.62805
33
-6.92498
0
3DFACE
8
Sph_re0
62
1
10
-25.27783
20
-22.40490
30
-4.24969
11
-24.39044
21
-26.80145
31
-4.24969
12
-19.83142
22
-22.40490
32
-2.55902
13
-19.83142
23
-22.40490
33
-2.55902
0
3DFACE
8
Sph_re0
62
1
10
-19.37200
20
-24.68133
30
-2.55902
11
-19.83142
21
-22.40490
31
-2.55902
12
-24.39044
22
-26.80145
32
-4.24969
13
-24.39044
23
-26.80145
33
-4.24969
0
3DFACE
8
Sph_re0
62
1
10
-24.39044
20
-26.80145
30
-4.24969
11
-21.97003
21
-30.39135
31
-4.24969
12
-19.37200
22
-24.68133
32
-2.55902
13
-19.37200
23
-24.68133
33
-2.55902
0
3DFACE
8
Sph_re0
62
1
10
-18.11877
20
-26.54010
30
-2.55902
11
-19.37200
21
-24.68133
31
-2.55902
12
-21.97003
22
-30.39135
32
-4.24969
13
-21.97003
23
-30.39135
33
-4.24969
0
3DFACE
8
Sph_re0
62
1
10
-21.97003
20
-30.39135
30
-4.24969
11
-18.38012
21
-32.81176
31
-4.24969
12
-18.11877
22
-26.54010
32
-2.55902
13
-18.11877
23
-26.54010
33
-2.55902
0
3DFACE
8
Sph_re0
62
1
10
-16.26000
20
-27.79333
30
-2.55902
11
-18.11877
21
-26.54010
31
-2.55902
12
-18.38012
22
-32.81176
32
-4.24969
13
-18.38012
23
-32.81176
33
-4.24969
0
3DFACE
8
Sph_re0
62
1
10
-18.38012
20
-32.81176
30
-4.24969
11
-13.98358
21
-33.69915
31
-4.24969
12
-16.26000
22
-27.79333
32
-2.55902
13
-16.26000
23
-27.79333
33
-2.55902
0
3DFACE
8
Sph_re0
62
1
10
-13.98358
20
-28.25274
30
-2.55902
11
-16.26000
21
-27.79333
31
-2.55902
12
-13.98358
22
-33.69915
32
-4.24969
13
-13.98358
23
-33.69915
33
-4.24969
0
3DFACE
8
Sph_re0
62
1
10
-19.83142
20
-22.40490
30
-2.55902
11
-19.37200
21
-24.68133
31
-2.55902
12
-13.98358
22
-22.40490
32
-1.96942
13
-13.98358
23
-22.40490
33
-1.96942
0
3DFACE
8
Sph_re0
62
1
10
-13.98358
20
-22.40490
30
-1.96942
11
-13.98358
21
-22.40490
31
-1.96942
12
-19.37200
22
-24.68133
32
-2.55902
13
-19.37200
23
-24.68133
33
-2.55902
0
3DFACE
8
Sph_re0
62
1
10
-19.37200
20
-24.68133
30
-2.55902
11
-18.11877
21
-26.54010
31
-2.55902
12
-13.98358
22
-22.40490
32
-1.96942
13
-13.98358
23
-22.40490
33
-1.96942
0
3DFACE
8
Sph_re0
62
1
10
-13.98358
20
-22.40490
30
-1.96942
11
-13.98358
21
-22.40490
31
-1.96942
12
-18.11877
22
-26.54010
32
-2.55902
13
-18.11877
23
-26.54010
33
-2.55902
0
3DFACE
8
Sph_re0
62
1
10
-18.11877
20
-26.54010
30
-2.55902
11
-16.26000
21
-27.79333
31
-2.55902
12
-13.98358
22
-22.40490
32
-1.96942
13
-13.98358
23
-22.40490
33
-1.96942
0
3DFACE
8
Sph_re0
62
1
10
-13.98358
20
-22.40490
30
-1.96942
11
-13.98358
21
-22.40490
31
-1.96942
12
-16.26000
22
-27.79333
32
-2.55902
13
-16.26000
23
-27.79333
33
-2.55902
0
3DFACE
8
Sph_re0
62
1
10
-16.26000
20
-27.79333
30
-2.55902
11
-13.98358
21
-28.25274
31
-2.55902
12
-13.98358
22
-22.40490
32
-1.96942
13
-13.98358
23
-22.40490
33
-1.96942
0
3DFACE
8
Sph_re0
62
1
10
-13.98358
20
-22.40490
30
-1.96942
11
-13.98358
21
-22.40490
31
-1.96942
12
-13.98358
22
-28.25274
32
-2.55902
13
-13.98358
23
-28.25274
33
-2.55902
0
3DFACE
8
Sph_re0
62
1
10
-13.98358
20
6.61035
30
-30.98468
11
-8.13623
21
6.02075
31
-30.98468
12
-13.98358
22
6.02075
32
-36.83251
13
-13.98358
23
6.02075
33
-36.83251
0
3DFACE
8
Sph_re0
62
1
10
-8.25500
20
5.44311
30
-36.83251
11
-13.98358
21
6.02075
31
-36.83251
12
-8.13623
22
6.02075
32
-30.98468
13
-8.13623
23
6.02075
33
-30.98468
0
3DFACE
8
Sph_re0
62
1
10
-8.13623
20
6.02075
30
-30.98468
11
-2.68969
21
4.33007
31
-30.98468
12
-8.25500
22
5.44311
32
-36.83251
13
-8.25500
23
5.44311
33
-36.83251
0
3DFACE
8
Sph_re0
62
1
10
-2.91931
20
3.78668
30
-36.83251
11
-8.25500
21
5.44311
31
-36.83251
12
-2.68969
22
4.33007
32
-30.98468
13
-2.68969
23
4.33007
33
-30.98468
0
3DFACE
8
Sph_re0
62
1
10
-13.98358
20
6.02075
30
-36.83251
11
-8.25500
21
5.44311
31
-36.83251
12
-13.98358
22
4.33007
32
-42.27893
13
-13.98358
23
4.33007
33
-42.27893
0
3DFACE
8
Sph_re0
62
1
10
-8.59576
20
3.78668
30
-42.27893
11
-13.98358
21
4.33007
31
-42.27893
12
-8.25500
22
5.44311
32
-36.83251
13
-8.25500
23
5.44311
33
-36.83251
0
3DFACE
8
Sph_re0
62
1
10
-8.25500
20
5.44311
30
-36.83251
11
-2.91931
21
3.78668
31
-36.83251
12
-8.59576
22
3.78668
32
-42.27893
13
-8.59576
23
3.78668
33
-42.27893
0
3DFACE
8
Sph_re0
62
1
10
-3.57733
20
2.22900
30
-42.27893
11
-8.59576
21
3.78668
31
-42.27893
12
-2.91931
22
3.78668
32
-36.83251
13
-2.91931
23
3.78668
33
-36.83251
0
3DFACE
8
Sph_re0
62
1
10
-2.68969
20
4.33007
30
-30.98468
11
2.23889
21
1.65478
31
-30.98468
12
-2.91931
22
3.78668
32
-36.83251
13
-2.91931
23
3.78668
33
-36.83251
0
3DFACE
8
Sph_re0
62
1
10
1.90917
20
1.16583
30
-36.83251
11
-2.91931
21
3.78668
31
-36.83251
12
2.23889
22
1.65478
32
-30.98468
13
2.23889
23
1.65478
33
-30.98468
0
3DFACE
8
Sph_re0
62
1
10
2.23889
20
1.65478
30
-30.98468
11
6.53332
21
-1.88800
31
-30.98468
12
1.90917
22
1.16583
32
-36.83251
13
1.90917
23
1.16583
33
-36.83251
0
3DFACE
8
Sph_re0
62
1
10
6.11621
20
-2.30511
30
-36.83251
11
1.90917
21
1.16583
31
-36.83251
12
6.53332
22
-1.88800
32
-30.98468
13
6.53332
23
-1.88800
33
-30.98468
0
3DFACE
8
Sph_re0
62
1
10
-2.91931
20
3.78668
30
-36.83251
11
1.90917
21
1.16583
31
-36.83251
12
-3.57733
22
2.22900
32
-42.27893
13
-3.57733
23
2.22900
33
-42.27893
0
3DFACE
8
Sph_re0
62
1
10
0.96392
20
-0.23602
30
-42.27893
11
-3.57733
21
2.22900
31
-42.27893
12
1.90917
22
1.16583
32
-36.83251
13
1.90917
23
1.16583
33
-36.83251
0
3DFACE
8
Sph_re0
62
1
10
1.90917
20
1.16583
30
-36.83251
11
6.11621
21
-2.30511
31
-36.83251
12
0.96392
22
-0.23602
32
-42.27893
13
0.96392
23
-0.23602
33
-42.27893
0
3DFACE
8
Sph_re0
62
1
10
4.92083
20
-3.50048
30
-42.27893
11
0.96392
21
-0.23602
31
-42.27893
12
6.11621
22
-2.30511
32
-36.83251
13
6.11621
23
-2.30511
33
-36.83251
0
3DFACE
8
Sph_re0
62
1
10
-13.98358
20
4.33007
30
-42.27893
11
-8.59576
21
3.78668
31
-42.27893
12
-13.98358
22
1.65478
32
-47.20782
13
-13.98358
23
1.65478
33
-47.20782
0
3DFACE
8
Sph_re0
62
1
10
-9.13507
20
1.16583
30
-47.20782
11
-13.98358
21
1.65478
31
-47.20782
12
-8.59576
22
3.78668
32
-42.27893
13
-8.59576
23
3.78668
33
-42.27893
0
3DFACE
8
Sph_re0
62
1
10
-13.98358
20
1.65478
30
-47.20782
11
-9.13507
21
1.16583
31
-47.20782
12
-13.98358
22
-1.88800
32
-51.50177
13
-13.98358
23
-1.88800
33
-51.50177
0
3DFACE
8
Sph_re0
62
1
10
-9.84887
20
-2.30511
30
-51.50177
11
-13.98358
21
-1.88800
31
-51.50177
12
-9.13507
22
1.16583
32
-47.20782
13
-9.13507
23
1.16583
33
-47.20782
0
3DFACE
8
Sph_re0
62
1
10
-8.59576
20
3.78668
30
-42.27893
11
-3.57733
21
2.22900
31
-42.27893
12
-9.13507
22
1.16583
32
-47.20782
13
-9.13507
23
1.16583
33
-47.20782
0
3DFACE
8
Sph_re0
62
1
10
-4.61865
20
-0.23602
30
-47.20782
11
-9.13507
21
1.16583
31
-47.20782
12
-3.57733
22
2.22900
32
-42.27893
13
-3.57733
23
2.22900
33
-42.27893
0
3DFACE
8
Sph_re0
62
1
10
-9.13507
20
1.16583
30
-47.20782
11
-4.61865
21
-0.23602
31
-47.20782
12
-9.84887
22
-2.30511
32
-51.50177
13
-9.84887
23
-2.30511
33
-51.50177
0
3DFACE
8
Sph_re0
62
1
10
-5.99768
20
-3.50048
30
-51.50177
11
-9.84887
21
-2.30511
31
-51.50177
12
-4.61865
22
-0.23602
32
-47.20782
13
-4.61865
23
-0.23602
33
-47.20782
0
3DFACE
8
Sph_re0
62
1
10
-3.57733
20
2.22900
30
-42.27893
11
0.96392
21
-0.23602
31
-42.27893
12
-4.61865
22
-0.23602
32
-47.20782
13
-4.61865
23
-0.23602
33
-47.20782
0
3DFACE
8
Sph_re0
62
1
10
-0.53192
20
-2.45446
30
-47.20782
11
-4.61865
21
-0.23602
31
-47.20782
12
0.96392
22
-0.23602
32
-42.27893
13
0.96392
23
-0.23602
33
-42.27893
0
3DFACE
8
Sph_re0
62
1
10
0.96392
20
-0.23602
30
-42.27893
11
4.92083
21
-3.50048
31
-42.27893
12
-0.53192
22
-2.45446
32
-47.20782
13
-0.53192
23
-2.45446
33
-47.20782
0
3DFACE
8
Sph_re0
62
1
10
3.02905
20
-5.39227
30
-47.20782
11
-0.53192
21
-2.45446
31
-47.20782
12
4.92083
22
-3.50048
32
-42.27893
13
4.92083
23
-3.50048
33
-42.27893
0
3DFACE
8
Sph_re0
62
1
10
-4.61865
20
-0.23602
30
-47.20782
11
-0.53192
21
-2.45446
31
-47.20782
12
-5.99768
22
-3.50048
32
-51.50177
13
-5.99768
23
-3.50048
33
-51.50177
0
3DFACE
8
Sph_re0
62
1
10
-2.51257
20
-5.39227
30
-51.50177
11
-5.99768
21
-3.50048
31
-51.50177
12
-0.53192
22
-2.45446
32
-47.20782
13
-0.53192
23
-2.45446
33
-47.20782
0
3DFACE
8
Sph_re0
62
1
10
-0.53192
20
-2.45446
30
-47.20782
11
3.02905
21
-5.39227
31
-47.20782
12
-2.51257
22
-5.39227
32
-51.50177
13
-2.51257
23
-5.39227
33
-51.50177
0
3DFACE
8
Sph_re0
62
1
10
0.52404
20
-7.89727
30
-51.50177
11
-2.51257
21
-5.39227
31
-51.50177
12
3.02905
22
-5.39227
32
-47.20782
13
3.02905
23
-5.39227
33
-47.20782
0
3DFACE
8
Sph_re0
62
1
10
6.53332
20
-1.88800
30
-30.98468
11
10.07611
21
-6.18243
31
-30.98468
12
6.11621
22
-2.30511
32
-36.83251
13
6.11621
23
-2.30511
33
-36.83251
0
3DFACE
8
Sph_re0
62
1
10
9.58715
20
-6.51214
30
-36.83251
11
6.11621
21
-2.30511
31
-36.83251
12
10.07611
22
-6.18243
32
-30.98468
13
10.07611
23
-6.18243
33
-30.98468
0
3DFACE
8
Sph_re0
62
1
10
10.07611
20
-6.18243
30
-30.98468
11
12.75140
21
-11.11102
31
-30.98468
12
9.58715
22
-6.51214
32
-36.83251
13
9.58715
23
-6.51214
33
-36.83251
0
3DFACE
8
Sph_re0
62
1
10
12.20800
20
-11.34063
30
-36.83251
11
9.58715
21
-6.51214
31
-36.83251
12
12.75140
22
-11.11102
32
-30.98468
13
12.75140
23
-11.11102
33
-30.98468
0
3DFACE
8
Sph_re0
62
1
10
6.11621
20
-2.30511
30
-36.83251
11
9.58715
21
-6.51214
31
-36.83251
12
4.92083
22
-3.50048
32
-42.27893
13
4.92083
23
-3.50048
33
-42.27893
0
3DFACE
8
Sph_re0
62
1
10
8.18530
20
-7.45739
30
-42.27893
11
4.92083
21
-3.50048
31
-42.27893
12
9.58715
22
-6.51214
32
-36.83251
13
9.58715
23
-6.51214
33
-36.83251
0
3DFACE
8
Sph_re0
62
1
10
9.58715
20
-6.51214
30
-36.83251
11
12.20800
21
-11.34063
31
-36.83251
12
8.18530
22
-7.45739
32
-42.27893
13
8.18530
23
-7.45739
33
-42.27893
0
3DFACE
8
Sph_re0
62
1
10
10.65032
20
-11.99865
30
-42.27893
11
8.18530
21
-7.45739
31
-42.27893
12
12.20800
22
-11.34063
32
-36.83251
13
12.20800
23
-11.34063
33
-36.83251
0
3DFACE
8
Sph_re0
62
1
10
12.75140
20
-11.11102
30
-30.98468
11
14.44207
21
-16.55755
31
-30.98468
12
12.20800
22
-11.34063
32
-36.83251
13
12.20800
23
-11.34063
33
-36.83251
0
3DFACE
8
Sph_re0
62
1
10
13.86444
20
-16.67633
30
-36.83251
11
12.20800
21
-11.34063
31
-36.83251
12
14.44207
22
-16.55755
32
-30.98468
13
14.44207
23
-16.55755
33
-30.98468
0
3DFACE
8
Sph_re0
62
1
10
14.44207
20
-16.55755
30
-30.98468
11
15.03167
21
-22.40490
31
-30.98468
12
13.86444
22
-16.67633
32
-36.83251
13
13.86444
23
-16.67633
33
-36.83251
0
3DFACE
8
Sph_re0
62
1
10
14.44207
20
-22.40490
30
-36.83251
11
13.86444
21
-16.67633
31
-36.83251
12
15.03167
22
-22.40490
32
-30.98468
13
15.03167
23
-22.40490
33
-30.98468
0
3DFACE
8
Sph_re0
62
1
10
12.20800
20
-11.34063
30
-36.83251
11
13.86444
21
-16.67633
31
-36.83251
12
10.65032
22
-11.99865
32
-42.27893
13
10.65032
23
-11.99865
33
-42.27893
0
3DFACE
8
Sph_re0
62
1
10
12.20800
20
-17.01708
30
-42.27893
11
10.65032
21
-11.99865
31
-42.27893
12
13.86444
22
-16.67633
32
-36.83251
13
13.86444
23
-16.67633
33
-36.83251
0
3DFACE
8
Sph_re0
62
1
10
13.86444
20
-16.67633
30
-36.83251
11
14.44207
21
-22.40490
31
-36.83251
12
12.20800
22
-17.01708
32
-42.27893
13
12.20800
23
-17.01708
33
-42.27893
0
3DFACE
8
Sph_re0
62
1
10
12.75140
20
-22.40490
30
-42.27893
11
12.20800
21
-17.01708
31
-42.27893
12
14.44207
22
-22.40490
32
-36.83251
13
14.44207
23
-22.40490
33
-36.83251
0
3DFACE
8
Sph_re0
62
1
10
4.92083
20
-3.50048
30
-42.27893
11
8.18530
21
-7.45739
31
-42.27893
12
3.02905
22
-5.39227
32
-47.20782
13
3.02905
23
-5.39227
33
-47.20782
0
3DFACE
8
Sph_re0
62
1
10
5.96685
20
-8.95324
30
-47.20782
11
3.02905
21
-5.39227
31
-47.20782
12
8.18530
22
-7.45739
32
-42.27893
13
8.18530
23
-7.45739
33
-42.27893
0
3DFACE
8
Sph_re0
62
1
10
8.18530
20
-7.45739
30
-42.27893
11
10.65032
21
-11.99865
31
-42.27893
12
5.96685
22
-8.95324
32
-47.20782
13
5.96685
23
-8.95324
33
-47.20782
0
3DFACE
8
Sph_re0
62
1
10
8.18530
20
-13.03997
30
-47.20782
11
5.96685
21
-8.95324
31
-47.20782
12
10.65032
22
-11.99865
32
-42.27893
13
10.65032
23
-11.99865
33
-42.27893
0
3DFACE
8
Sph_re0
62
1
10
3.02905
20
-5.39227
30
-47.20782
11
5.96685
21
-8.95324
31
-47.20782
12
0.52404
22
-7.89727
32
-51.50177
13
0.52404
23
-7.89727
33
-51.50177
0
3DFACE
8
Sph_re0
62
1
10
3.02905
20
-10.93389
30
-51.50177
11
0.52404
21
-7.89727
31
-51.50177
12
5.96685
22
-8.95324
32
-47.20782
13
5.96685
23
-8.95324
33
-47.20782
0
3DFACE
8
Sph_re0
62
1
10
5.96685
20
-8.95324
30
-47.20782
11
8.18530
21
-13.03997
31
-47.20782
12
3.02905
22
-10.93389
32
-51.50177
13
3.02905
23
-10.93389
33
-51.50177
0
3DFACE
8
Sph_re0
62
1
10
4.92083
20
-14.41900
30
-51.50177
11
3.02905
21
-10.93389
31
-51.50177
12
8.18530
22
-13.03997
32
-47.20782
13
8.18530
23
-13.03997
33
-47.20782
0
3DFACE
8
Sph_re0
62
1
10
10.65032
20
-11.99865
30
-42.27893
11
12.20800
21
-17.01708
31
-42.27893
12
8.18530
22
-13.03997
32
-47.20782
13
8.18530
23
-13.03997
33
-47.20782
0
3DFACE
8
Sph_re0
62
1
10
9.58715
20
-17.55639
30
-47.20782
11
8.18530
21
-13.03997
31
-47.20782
12
12.20800
22
-17.01708
32
-42.27893
13
12.20800
23
-17.01708
33
-42.27893
0
3DFACE
8
Sph_re0
62
1
10
8.18530
20
-13.03997
30
-47.20782
11
9.58715
21
-17.55639
31
-47.20782
12
4.92083
22
-14.41900
32
-51.50177
13
4.92083
23
-14.41900
33
-51.50177
0
3DFACE
8
Sph_re0
62
1
10
6.11621
20
-18.27020
30
-51.50177
11
4.92083
21
-14.41900
31
-51.50177
12
9.58715
22
-17.55639
32
-47.20782
13
9.58715
23
-17.55639
33
-47.20782
0
3DFACE
8
Sph_re0
62
1
10
12.20800
20
-17.01708
30
-42.27893
11
12.75140
21
-22.40490
31
-42.27893
12
9.58715
22
-17.55639
32
-47.20782
13
9.58715
23
-17.55639
33
-47.20782
0
3DFACE
8
Sph_re0
62
1
10
10.07611
20
-22.40490
30
-47.20782
11
9.58715
21
-17.55639
31
-47.20782
12
12.75140
22
-22.40490
32
-42.27893
13
12.75140
23
-22.40490
33
-42.27893
0
3DFACE
8
Sph_re0
62
1
10
9.58715
20
-17.55639
30
-47.20782
11
10.07611
21
-22.40490
31
-47.20782
12
6.11621
22
-18.27020
32
-51.50177
13
6.11621
23
-18.27020
33
-51.50177
0
3DFACE
8
Sph_re0
62
1
10
6.53332
20
-22.40490
30
-51.50177
11
6.11621
21
-18.27020
31
-51.50177
12
10.07611
22
-22.40490
32
-47.20782
13
10.07611
23
-22.40490
33
-47.20782
0
3DFACE
8
Sph_re0
62
1
10
-13.98358
20
-1.88800
30
-51.50177
11
-9.84887
21
-2.30511
31
-51.50177
12
-13.98358
22
-6.18243
32
-55.04498
13
-13.98358
23
-6.18243
33
-55.04498
0
3DFACE
8
Sph_re0
62
1
10
-10.72418
20
-6.53900
30
-55.04498
11
-13.98358
21
-6.18243
31
-55.04498
12
-9.84887
22
-2.30511
32
-51.50177
13
-9.84887
23
-2.30511
33
-51.50177
0
3DFACE
8
Sph_re0
62
1
10
-9.84887
20
-2.30511
30
-51.50177
11
-5.99768
21
-3.50048
31
-51.50177
12
-10.72418
22
-6.53900
32
-55.04498
13
-10.72418
23
-6.53900
33
-55.04498
0
3DFACE
8
Sph_re0
62
1
10
-7.66931
20
-7.45739
30
-55.04498
11
-10.72418
21
-6.53900
31
-55.04498
12
-5.99768
22
-3.50048
32
-51.50177
13
-5.99768
23
-3.50048
33
-51.50177
0
3DFACE
8
Sph_re0
62
1
10
-13.98358
20
-6.18243
30
-55.04498
11
-10.72418
21
-6.53900
31
-55.04498
12
-13.98358
22
-11.11102
32
-57.72003
13
-13.98358
23
-11.11102
33
-57.72003
0
3DFACE
8
Sph_re0
62
1
10
-11.78570
20
-11.55505
30
-57.72003
11
-13.98358
21
-11.11102
31
-57.72003
12
-10.72418
22
-6.53900
32
-55.04498
13
-10.72418
23
-6.53900
33
-55.04498
0
3DFACE
8
Sph_re0
62
1
10
-10.72418
20
-6.53900
30
-55.04498
11
-7.66931
21
-7.45739
31
-55.04498
12
-11.78570
22
-11.55505
32
-57.72003
13
-11.78570
23
-11.55505
33
-57.72003
0
3DFACE
8
Sph_re0
62
1
10
-9.58752
20
-11.99865
30
-57.72003
11
-11.78570
21
-11.55505
31
-57.72003
12
-7.66931
22
-7.45739
32
-55.04498
13
-7.66931
23
-7.45739
33
-55.04498
0
3DFACE
8
Sph_re0
62
1
10
-5.99768
20
-3.50048
30
-51.50177
11
-2.51257
21
-5.39227
31
-51.50177
12
-7.66931
22
-7.45739
32
-55.04498
13
-7.66931
23
-7.45739
33
-55.04498
0
3DFACE
8
Sph_re0
62
1
10
-4.92901
20
-8.97436
30
-55.04498
11
-7.66931
21
-7.45739
31
-55.04498
12
-2.51257
22
-5.39227
32
-51.50177
13
-2.51257
23
-5.39227
33
-51.50177
0
3DFACE
8
Sph_re0
62
1
10
-2.51257
20
-5.39227
30
-51.50177
11
0.52404
21
-7.89727
31
-51.50177
12
-4.92901
22
-8.97436
32
-55.04498
13
-4.92901
23
-8.97436
33
-55.04498
0
3DFACE
8
Sph_re0
62
1
10
-2.51269
20
-10.93402
30
-55.04498
11
-4.92901
21
-8.97436
31
-55.04498
12
0.52404
22
-7.89727
32
-51.50177
13
0.52404
23
-7.89727
33
-51.50177
0
3DFACE
8
Sph_re0
62
1
10
-7.66931
20
-7.45739
30
-55.04498
11
-4.92901
21
-8.97436
31
-55.04498
12
-9.58752
22
-11.99865
32
-57.72003
13
-9.58752
23
-11.99865
33
-57.72003
0
3DFACE
8
Sph_re0
62
1
10
-7.79266
20
-13.20898
30
-57.72003
11
-9.58752
21
-11.99865
31
-57.72003
12
-4.92901
22
-8.97436
32
-55.04498
13
-4.92901
23
-8.97436
33
-55.04498
0
3DFACE
8
Sph_re0
62
1
10
-4.92901
20
-8.97436
30
-55.04498
11
-2.51269
21
-10.93402
31
-55.04498
12
-7.79266
22
-13.20898
32
-57.72003
13
-7.79266
23
-13.20898
33
-57.72003
0
3DFACE
8
Sph_re0
62
1
10
-5.99768
20
-14.41900
30
-57.72003
11
-7.79266
21
-13.20898
31
-57.72003
12
-2.51269
22
-10.93402
32
-55.04498
13
-2.51269
23
-10.93402
33
-55.04498
0
3DFACE
8
Sph_re0
62
1
10
0.52404
20
-7.89727
30
-51.50177
11
3.02905
21
-10.93389
31
-51.50177
12
-2.51269
22
-10.93402
32
-55.04498
13
-2.51269
23
-10.93402
33
-55.04498
0
3DFACE
8
Sph_re0
62
1
10
-0.55303
20
-13.35034
30
-55.04498
11
-2.51269
21
-10.93402
31
-55.04498
12
3.02905
22
-10.93389
32
-51.50177
13
3.02905
23
-10.93389
33
-51.50177
0
3DFACE
8
Sph_re0
62
1
10
3.02905
20
-10.93389
30
-51.50177
11
4.92083
21
-14.41900
31
-51.50177
12
-0.55303
22
-13.35034
32
-55.04498
13
-0.55303
23
-13.35034
33
-55.04498
0
3DFACE
8
Sph_re0
62
1
10
0.96392
20
-16.09063
30
-55.04498
11
-0.55303
21
-13.35034
31
-55.04498
12
4.92083
22
-14.41900
32
-51.50177
13
4.92083
23
-14.41900
33
-51.50177
0
3DFACE
8
Sph_re0
62
1
10
-2.51269
20
-10.93402
30
-55.04498
11
-0.55303
21
-13.35034
31
-55.04498
12
-5.99768
22
-14.41900
32
-57.72003
13
-5.99768
23
-14.41900
33
-57.72003
0
3DFACE
8
Sph_re0
62
1
10
-4.78765
20
-16.21398
30
-57.72003
11
-5.99768
21
-14.41900
31
-57.72003
12
-0.55303
22
-13.35034
32
-55.04498
13
-0.55303
23
-13.35034
33
-55.04498
0
3DFACE
8
Sph_re0
62
1
10
-0.55303
20
-13.35034
30
-55.04498
11
0.96392
21
-16.09063
31
-55.04498
12
-4.78765
22
-16.21398
32
-57.72003
13
-4.78765
23
-16.21398
33
-57.72003
0
3DFACE
8
Sph_re0
62
1
10
-3.57733
20
-18.00885
30
-57.72003
11
-4.78765
21
-16.21398
31
-57.72003
12
0.96392
22
-16.09063
32
-55.04498
13
0.96392
23
-16.09063
33
-55.04498
0
3DFACE
8
Sph_re0
62
1
10
4.92083
20
-14.41900
30
-51.50177
11
6.11621
21
-18.27020
31
-51.50177
12
0.96392
22
-16.09063
32
-55.04498
13
0.96392
23
-16.09063
33
-55.04498
0
3DFACE
8
Sph_re0
62
1
10
1.88232
20
-19.14550
30
-55.04498
11
0.96392
21
-16.09063
31
-55.04498
12
6.11621
22
-18.27020
32
-51.50177
13
6.11621
23
-18.27020
33
-51.50177
0
3DFACE
8
Sph_re0
62
1
10
6.11621
20
-18.27020
30
-51.50177
11
6.53332
21
-22.40490
31
-51.50177
12
1.88232
22
-19.14550
32
-55.04498
13
1.88232
23
-19.14550
33
-55.04498
0
3DFACE
8
Sph_re0
62
1
10
2.23889
20
-22.40490
30
-55.04498
11
1.88232
21
-19.14550
31
-55.04498
12
6.53332
22
-22.40490
32
-51.50177
13
6.53332
23
-22.40490
33
-51.50177
0
3DFACE
8
Sph_re0
62
1
10
0.96392
20
-16.09063
30
-55.04498
11
1.88232
21
-19.14550
31
-55.04498
12
-3.57733
22
-18.00885
32
-57.72003
13
-3.57733
23
-18.00885
33
-57.72003
0
3DFACE
8
Sph_re0
62
1
10
-3.13372
20
-20.20703
30
-57.72003
11
-3.57733
21
-18.00885
31
-57.72003
12
1.88232
22
-19.14550
32
-55.04498
13
1.88232
23
-19.14550
33
-55.04498
0
3DFACE
8
Sph_re0
62
1
10
1.88232
20
-19.14550
30
-55.04498
11
2.23889
21
-22.40490
31
-55.04498
12
-3.13372
22
-20.20703
32
-57.72003
13
-3.13372
23
-20.20703
33
-57.72003
0
3DFACE
8
Sph_re0
62
1
10
-2.68969
20
-22.40490
30
-57.72003
11
-3.13372
21
-20.20703
31
-57.72003
12
2.23889
22
-22.40490
32
-55.04498
13
2.23889
23
-22.40490
33
-55.04498
0
3DFACE
8
Sph_re0
62
1
10
-13.98358
20
-11.11102
30
-57.72003
11
-9.58752
21
-11.99865
31
-57.72003
12
-13.98358
22
-16.55755
32
-59.41070
13
-13.98358
23
-16.55755
33
-59.41070
0
3DFACE
8
Sph_re0
62
1
10
-11.70776
20
-17.01727
30
-59.41070
11
-13.98358
21
-16.55755
31
-59.41070
12
-9.58752
22
-11.99865
32
-57.72003
13
-9.58752
23
-11.99865
33
-57.72003
0
3DFACE
8
Sph_re0
62
1
10
-9.58752
20
-11.99865
30
-57.72003
11
-5.99768
21
-14.41900
31
-57.72003
12
-11.70776
22
-17.01727
32
-59.41070
13
-11.70776
23
-17.01727
33
-59.41070
0
3DFACE
8
Sph_re0
62
1
10
-9.84906
20
-18.27038
30
-59.41070
11
-11.70776
21
-17.01727
31
-59.41070
12
-5.99768
22
-14.41900
32
-57.72003
13
-5.99768
23
-14.41900
33
-57.72003
0
3DFACE
8
Sph_re0
62
1
10
-5.99768
20
-14.41900
30
-57.72003
11
-3.57733
21
-18.00885
31
-57.72003
12
-9.84906
22
-18.27038
32
-59.41070
13
-9.84906
23
-18.27038
33
-59.41070
0
3DFACE
8
Sph_re0
62
1
10
-8.59594
20
-20.12908
30
-59.41070
11
-9.84906
21
-18.27038
31
-59.41070
12
-3.57733
22
-18.00885
32
-57.72003
13
-3.57733
23
-18.00885
33
-57.72003
0
3DFACE
8
Sph_re0
62
1
10
-3.57733
20
-18.00885
30
-57.72003
11
-2.68969
21
-22.40490
31
-57.72003
12
-8.59594
22
-20.12908
32
-59.41070
13
-8.59594
23
-20.12908
33
-59.41070
0
3DFACE
8
Sph_re0
62
1
10
-8.13623
20
-22.40490
30
-59.41070
11
-8.59594
21
-20.12908
31
-59.41070
12
-2.68969
22
-22.40490
32
-57.72003
13
-2.68969
23
-22.40490
33
-57.72003
0
3DFACE
8
Sph_re0
62
1
10
-13.98358
20
-16.55755
30
-59.41070
11
-11.70776
21
-17.01727
31
-59.41070
12
-13.98358
22
-22.40490
32
-59.99993
13
-13.98358
23
-22.40490
33
-59.99993
0
3DFACE
8
Sph_re0
62
1
10
-13.98358
20
-22.40490
30
-59.99993
11
-13.98358
21
-22.40490
31
-59.99993
12
-11.70776
22
-17.01727
32
-59.41070
13
-11.70776
23
-17.01727
33
-59.41070
0
3DFACE
8
Sph_re0
62
1
10
-11.70776
20
-17.01727
30
-59.41070
11
-9.84906
21
-18.27038
31
-59.41070
12
-13.98358
22
-22.40490
32
-59.99993
13
-13.98358
23
-22.40490
33
-59.99993
0
3DFACE
8
Sph_re0
62
1
10
-13.98358
20
-22.40490
30
-59.99993
11
-13.98358
21
-22.40490
31
-59.99993
12
-9.84906
22
-18.27038
32
-59.41070
13
-9.84906
23
-18.27038
33
-59.41070
0
3DFACE
8
Sph_re0
62
1
10
-9.84906
20
-18.27038
30
-59.41070
11
-8.59594
21
-20.12908
31
-59.41070
12
-13.98358
22
-22.40490
32
-59.99993
13
-13.98358
23
-22.40490
33
-59.99993
0
3DFACE
8
Sph_re0
62
1
10
-13.98358
20
-22.40490
30
-59.99993
11
-13.98358
21
-22.40490
31
-59.99993
12
-8.59594
22
-20.12908
32
-59.41070
13
-8.59594
23
-20.12908
33
-59.41070
0
3DFACE
8
Sph_re0
62
1
10
-8.59594
20
-20.12908
30
-59.41070
11
-8.13623
21
-22.40490
31
-59.41070
12
-13.98358
22
-22.40490
32
-59.99993
13
-13.98358
23
-22.40490
33
-59.99993
0
3DFACE
8
Sph_re0
62
1
10
-13.98358
20
-22.40490
30
-59.99993
11
-13.98358
21
-22.40490
31
-59.99993
12
-8.13623
22
-22.40490
32
-59.41070
13
-8.13623
23
-22.40490
33
-59.41070
0
3DFACE
8
Sph_re0
62
1
10
-42.99884
20
-22.40490
30
-30.98468
11
-42.40960
21
-16.55755
31
-30.98468
12
-42.40960
22
-22.40490
32
-36.83251
13
-42.40960
23
-22.40490
33
-36.83251
0
3DFACE
8
Sph_re0
62
1
10
-41.83227
20
-16.67633
30
-36.83251
11
-42.40960
21
-22.40490
31
-36.83251
12
-42.40960
22
-16.55755
32
-30.98468
13
-42.40960
23
-16.55755
33
-30.98468
0
3DFACE
8
Sph_re0
62
1
10
-42.40960
20
-16.55755
30
-30.98468
11
-40.71893
21
-11.11102
31
-30.98468
12
-41.83227
22
-16.67633
32
-36.83251
13
-41.83227
23
-16.67633
33
-36.83251
0
3DFACE
8
Sph_re0
62
1
10
-40.17584
20
-11.34063
30
-36.83251
11
-41.83227
21
-16.67633
31
-36.83251
12
-40.71893
22
-11.11102
32
-30.98468
13
-40.71893
23
-11.11102
33
-30.98468
0
3DFACE
8
Sph_re0
62
1
10
-42.40960
20
-22.40490
30
-36.83251
11
-41.83227
21
-16.67633
31
-36.83251
12
-40.71893
22
-22.40490
32
-42.27893
13
-40.71893
23
-22.40490
33
-42.27893
0
3DFACE
8
Sph_re0
62
1
10
-40.17584
20
-17.01708
30
-42.27893
11
-40.71893
21
-22.40490
31
-42.27893
12
-41.83227
22
-16.67633
32
-36.83251
13
-41.83227
23
-16.67633
33
-36.83251
0
3DFACE
8
Sph_re0
62
1
10
-41.83227
20
-16.67633
30
-36.83251
11
-40.17584
21
-11.34063
31
-36.83251
12
-40.17584
22
-17.01708
32
-42.27893
13
-40.17584
23
-17.01708
33
-42.27893
0
3DFACE
8
Sph_re0
62
1
10
-38.61810
20
-11.99865
30
-42.27893
11
-40.17584
21
-17.01708
31
-42.27893
12
-40.17584
22
-11.34063
32
-36.83251
13
-40.17584
23
-11.34063
33
-36.83251
0
3DFACE
8
Sph_re0
62
1
10
-40.71893
20
-11.11102
30
-30.98468
11
-38.04388
21
-6.18243
31
-30.98468
12
-40.17584
22
-11.34063
32
-36.83251
13
-40.17584
23
-11.34063
33
-36.83251
0
3DFACE
8
Sph_re0
62
1
10
-37.55511
20
-6.51214
30
-36.83251
11
-40.17584
21
-11.34063
31
-36.83251
12
-38.04388
22
-6.18243
32
-30.98468
13
-38.04388
23
-6.18243
33
-30.98468
0
3DFACE
8
Sph_re0
62
1
10
-38.04388
20
-6.18243
30
-30.98468
11
-34.50067
21
-1.88800
31
-30.98468
12
-37.55511
22
-6.51214
32
-36.83251
13
-37.55511
23
-6.51214
33
-36.83251
0
3DFACE
8
Sph_re0
62
1
10
-34.08392
20
-2.30511
30
-36.83251
11
-37.55511
21
-6.51214
31
-36.83251
12
-34.50067
22
-1.88800
32
-30.98468
13
-34.50067
23
-1.88800
33
-30.98468
0
3DFACE
8
Sph_re0
62
1
10
-40.17584
20
-11.34063
30
-36.83251
11
-37.55511
21
-6.51214
31
-36.83251
12
-38.61810
22
-11.99865
32
-42.27893
13
-38.61810
23
-11.99865
33
-42.27893
0
3DFACE
8
Sph_re0
62
1
10
-36.15325
20
-7.45739
30
-42.27893
11
-38.61810
21
-11.99865
31
-42.27893
12
-37.55511
22
-6.51214
32
-36.83251
13
-37.55511
23
-6.51214
33
-36.83251
0
3DFACE
8
Sph_re0
62
1
10
-37.55511
20
-6.51214
30
-36.83251
11
-34.08392
21
-2.30511
31
-36.83251
12
-36.15325
22
-7.45739
32
-42.27893
13
-36.15325
23
-7.45739
33
-42.27893
0
3DFACE
8
Sph_re0
62
1
10
-32.88848
20
-3.50048
30
-42.27893
11
-36.15325
21
-7.45739
31
-42.27893
12
-34.08392
22
-2.30511
32
-36.83251
13
-34.08392
23
-2.30511
33
-36.83251
0
3DFACE
8
Sph_re0
62
1
10
-40.71893
20
-22.40490
30
-42.27893
11
-40.17584
21
-17.01708
31
-42.27893
12
-38.04388
22
-22.40490
32
-47.20782
13
-38.04388
23
-22.40490
33
-47.20782
0
3DFACE
8
Sph_re0
62
1
10
-37.55523
20
-17.55639
30
-47.20782
11
-38.04388
21
-22.40490
31
-47.20782
12
-40.17584
22
-17.01708
32
-42.27893
13
-40.17584
23
-17.01708
33
-42.27893
0
3DFACE
8
Sph_re0
62
1
10
-38.04388
20
-22.40490
30
-47.20782
11
-37.55523
21
-17.55639
31
-47.20782
12
-34.50067
22
-22.40490
32
-51.50177
13
-34.50067
23
-22.40490
33
-51.50177
0
3DFACE
8
Sph_re0
62
1
10
-34.08392
20
-18.27020
30
-51.50177
11
-34.50067
21
-22.40490
31
-51.50177
12
-37.55523
22
-17.55639
32
-47.20782
13
-37.55523
23
-17.55639
33
-47.20782
0
3DFACE
8
Sph_re0
62
1
10
-40.17584
20
-17.01708
30
-42.27893
11
-38.61810
21
-11.99865
31
-42.27893
12
-37.55523
22
-17.55639
32
-47.20782
13
-37.55523
23
-17.55639
33
-47.20782
0
3DFACE
8
Sph_re0
62
1
10
-36.15325
20
-13.03997
30
-47.20782
11
-37.55523
21
-17.55639
31
-47.20782
12
-38.61810
22
-11.99865
32
-42.27893
13
-38.61810
23
-11.99865
33
-42.27893
0
3DFACE
8
Sph_re0
62
1
10
-37.55523
20
-17.55639
30
-47.20782
11
-36.15325
21
-13.03997
31
-47.20782
12
-34.08392
22
-18.27020
32
-51.50177
13
-34.08392
23
-18.27020
33
-51.50177
0
3DFACE
8
Sph_re0
62
1
10
-32.88848
20
-14.41900
30
-51.50177
11
-34.08392
21
-18.27020
31
-51.50177
12
-36.15325
22
-13.03997
32
-47.20782
13
-36.15325
23
-13.03997
33
-47.20782
0
3DFACE
8
Sph_re0
62
1
10
-38.61810
20
-11.99865
30
-42.27893
11
-36.15325
21
-7.45739
31
-42.27893
12
-36.15325
22
-13.03997
32
-47.20782
13
-36.15325
23
-13.03997
33
-47.20782
0
3DFACE
8
Sph_re0
62
1
10
-33.93511
20
-8.95324
30
-47.20782
11
-36.15325
21
-13.03997
31
-47.20782
12
-36.15325
22
-7.45739
32
-42.27893
13
-36.15325
23
-7.45739
33
-42.27893
0
3DFACE
8
Sph_re0
62
1
10
-36.15325
20
-7.45739
30
-42.27893
11
-32.88848
21
-3.50048
31
-42.27893
12
-33.93511
22
-8.95324
32
-47.20782
13
-33.93511
23
-8.95324
33
-47.20782
0
3DFACE
8
Sph_re0
62
1
10
-30.99700
20
-5.39227
30
-47.20782
11
-33.93511
21
-8.95324
31
-47.20782
12
-32.88848
22
-3.50048
32
-42.27893
13
-32.88848
23
-3.50048
33
-42.27893
0
3DFACE
8
Sph_re0
62
1
10
-36.15325
20
-13.03997
30
-47.20782
11
-33.93511
21
-8.95324
31
-47.20782
12
-32.88848
22
-14.41900
32
-51.50177
13
-32.88848
23
-14.41900
33
-51.50177
0
3DFACE
8
Sph_re0
62
1
10
-30.99700
20
-10.93389
30
-51.50177
11
-32.88848
21
-14.41900
31
-51.50177
12
-33.93511
22
-8.95324
32
-47.20782
13
-33.93511
23
-8.95324
33
-47.20782
0
3DFACE
8
Sph_re0
62
1
10
-33.93511
20
-8.95324
30
-47.20782
11
-30.99700
21
-5.39227
31
-47.20782
12
-30.99700
22
-10.93389
32
-51.50177
13
-30.99700
23
-10.93389
33
-51.50177
0
3DFACE
8
Sph_re0
62
1
10
-28.49151
20
-7.89727
30
-51.50177
11
-30.99700
21
-10.93389
31
-51.50177
12
-30.99700
22
-5.39227
32
-47.20782
13
-30.99700
23
-5.39227
33
-47.20782
0
3DFACE
8
Sph_re0
62
1
10
-34.50067
20
-1.88800
30
-30.98468
11
-30.20672
21
1.65478
31
-30.98468
12
-34.08392
22
-2.30511
32
-36.83251
13
-34.08392
23
-2.30511
33
-36.83251
0
3DFACE
8
Sph_re0
62
1
10
-29.87713
20
1.16583
30
-36.83251
11
-34.08392
21
-2.30511
31
-36.83251
12
-30.20672
22
1.65478
32
-30.98468
13
-30.20672
23
1.65478
33
-30.98468
0
3DFACE
8
Sph_re0
62
1
10
-30.20672
20
1.65478
30
-30.98468
11
-25.27783
21
4.33007
31
-30.98468
12
-29.87713
22
1.16583
32
-36.83251
13
-29.87713
23
1.16583
33
-36.83251
0
3DFACE
8
Sph_re0
62
1
10
-25.04852
20
3.78668
30
-36.83251
11
-29.87713
21
1.16583
31
-36.83251
12
-25.27783
22
4.33007
32
-30.98468
13
-25.27783
23
4.33007
33
-30.98468
0
3DFACE
8
Sph_re0
62
1
10
-34.08392
20
-2.30511
30
-36.83251
11
-29.87713
21
1.16583
31
-36.83251
12
-32.88848
22
-3.50048
32
-42.27893
13
-32.88848
23
-3.50048
33
-42.27893
0
3DFACE
8
Sph_re0
62
1
10
-28.93188
20
-0.23602
30
-42.27893
11
-32.88848
21
-3.50048
31
-42.27893
12
-29.87713
22
1.16583
32
-36.83251
13
-29.87713
23
1.16583
33
-36.83251
0
3DFACE
8
Sph_re0
62
1
10
-29.87713
20
1.16583
30
-36.83251
11
-25.04852
21
3.78668
31
-36.83251
12
-28.93188
22
-0.23602
32
-42.27893
13
-28.93188
23
-0.23602
33
-42.27893
0
3DFACE
8
Sph_re0
62
1
10
-24.39044
20
2.22900
30
-42.27893
11
-28.93188
21
-0.23602
31
-42.27893
12
-25.04852
22
3.78668
32
-36.83251
13
-25.04852
23
3.78668
33
-36.83251
0
3DFACE
8
Sph_re0
62
1
10
-25.27783
20
4.33007
30
-30.98468
11
-19.83142
21
6.02075
31
-30.98468
12
-25.04852
22
3.78668
32
-36.83251
13
-25.04852
23
3.78668
33
-36.83251
0
3DFACE
8
Sph_re0
62
1
10
-19.71264
20
5.44311
30
-36.83251
11
-25.04852
21
3.78668
31
-36.83251
12
-19.83142
22
6.02075
32
-30.98468
13
-19.83142
23
6.02075
33
-30.98468
0
3DFACE
8
Sph_re0
62
1
10
-19.83142
20
6.02075
30
-30.98468
11
-13.98358
21
6.61035
31
-30.98468
12
-19.71264
22
5.44311
32
-36.83251
13
-19.71264
23
5.44311
33
-36.83251
0
3DFACE
8
Sph_re0
62
1
10
-13.98358
20
6.02075
30
-36.83251
11
-19.71264
21
5.44311
31
-36.83251
12
-13.98358
22
6.61035
32
-30.98468
13
-13.98358
23
6.61035
33
-30.98468
0
3DFACE
8
Sph_re0
62
1
10
-25.04852
20
3.78668
30
-36.83251
11
-19.71264
21
5.44311
31
-36.83251
12
-24.39044
22
2.22900
32
-42.27893
13
-24.39044
23
2.22900
33
-42.27893
0
3DFACE
8
Sph_re0
62
1
10
-19.37200
20
3.78668
30
-42.27893
11
-24.39044
21
2.22900
31
-42.27893
12
-19.71264
22
5.44311
32
-36.83251
13
-19.71264
23
5.44311
33
-36.83251
0
3DFACE
8
Sph_re0
62
1
10
-19.71264
20
5.44311
30
-36.83251
11
-13.98358
21
6.02075
31
-36.83251
12
-19.37200
22
3.78668
32
-42.27893
13
-19.37200
23
3.78668
33
-42.27893
0
3DFACE
8
Sph_re0
62
1
10
-13.98358
20
4.33007
30
-42.27893
11
-19.37200
21
3.78668
31
-42.27893
12
-13.98358
22
6.02075
32
-36.83251
13
-13.98358
23
6.02075
33
-36.83251
0
3DFACE
8
Sph_re0
62
1
10
-32.88848
20
-3.50048
30
-42.27893
11
-28.93188
21
-0.23602
31
-42.27893
12
-30.99700
22
-5.39227
32
-47.20782
13
-30.99700
23
-5.39227
33
-47.20782
0
3DFACE
8
Sph_re0
62
1
10
-27.43634
20
-2.45446
30
-47.20782
11
-30.99700
21
-5.39227
31
-47.20782
12
-28.93188
22
-0.23602
32
-42.27893
13
-28.93188
23
-0.23602
33
-42.27893
0
3DFACE
8
Sph_re0
62
1
10
-28.93188
20
-0.23602
30
-42.27893
11
-24.39044
21
2.22900
31
-42.27893
12
-27.43634
22
-2.45446
32
-47.20782
13
-27.43634
23
-2.45446
33
-47.20782
0
3DFACE
8
Sph_re0
62
1
10
-23.34930
20
-0.23602
30
-47.20782
11
-27.43634
21
-2.45446
31
-47.20782
12
-24.39044
22
2.22900
32
-42.27893
13
-24.39044
23
2.22900
33
-42.27893
0
3DFACE
8
Sph_re0
62
1
10
-30.99700
20
-5.39227
30
-47.20782
11
-27.43634
21
-2.45446
31
-47.20782
12
-28.49151
22
-7.89727
32
-51.50177
13
-28.49151
23
-7.89727
33
-51.50177
0
3DFACE
8
Sph_re0
62
1
10
-25.45526
20
-5.39227
30
-51.50177
11
-28.49151
21
-7.89727
31
-51.50177
12
-27.43634
22
-2.45446
32
-47.20782
13
-27.43634
23
-2.45446
33
-47.20782
0
3DFACE
8
Sph_re0
62
1
10
-27.43634
20
-2.45446
30
-47.20782
11
-23.34930
21
-0.23602
31
-47.20782
12
-25.45526
22
-5.39227
32
-51.50177
13
-25.45526
23
-5.39227
33
-51.50177
0
3DFACE
8
Sph_re0
62
1
10
-21.97003
20
-3.50048
30
-51.50177
11
-25.45526
21
-5.39227
31
-51.50177
12
-23.34930
22
-0.23602
32
-47.20782
13
-23.34930
23
-0.23602
33
-47.20782
0
3DFACE
8
Sph_re0
62
1
10
-24.39044
20
2.22900
30
-42.27893
11
-19.37200
21
3.78668
31
-42.27893
12
-23.34930
22
-0.23602
32
-47.20782
13
-23.34930
23
-0.23602
33
-47.20782
0
3DFACE
8
Sph_re0
62
1
10
-18.83294
20
1.16583
30
-47.20782
11
-23.34930
21
-0.23602
31
-47.20782
12
-19.37200
22
3.78668
32
-42.27893
13
-19.37200
23
3.78668
33
-42.27893
0
3DFACE
8
Sph_re0
62
1
10
-23.34930
20
-0.23602
30
-47.20782
11
-18.83294
21
1.16583
31
-47.20782
12
-21.97003
22
-3.50048
32
-51.50177
13
-21.97003
23
-3.50048
33
-51.50177
0
3DFACE
8
Sph_re0
62
1
10
-18.11877
20
-2.30511
30
-51.50177
11
-21.97003
21
-3.50048
31
-51.50177
12
-18.83294
22
1.16583
32
-47.20782
13
-18.83294
23
1.16583
33
-47.20782
0
3DFACE
8
Sph_re0
62
1
10
-19.37200
20
3.78668
30
-42.27893
11
-13.98358
21
4.33007
31
-42.27893
12
-18.83294
22
1.16583
32
-47.20782
13
-18.83294
23
1.16583
33
-47.20782
0
3DFACE
8
Sph_re0
62
1
10
-13.98358
20
1.65478
30
-47.20782
11
-18.83294
21
1.16583
31
-47.20782
12
-13.98358
22
4.33007
32
-42.27893
13
-13.98358
23
4.33007
33
-42.27893
0
3DFACE
8
Sph_re0
62
1
10
-18.83294
20
1.16583
30
-47.20782
11
-13.98358
21
1.65478
31
-47.20782
12
-18.11877
22
-2.30511
32
-51.50177
13
-18.11877
23
-2.30511
33
-51.50177
0
3DFACE
8
Sph_re0
62
1
10
-13.98358
20
-1.88800
30
-51.50177
11
-18.11877
21
-2.30511
31
-51.50177
12
-13.98358
22
1.65478
32
-47.20782
13
-13.98358
23
1.65478
33
-47.20782
0
3DFACE
8
Sph_re0
62
1
10
-34.50067
20
-22.40490
30
-51.50177
11
-34.08392
21
-18.27020
31
-51.50177
12
-30.20672
22
-22.40490
32
-55.04498
13
-30.20672
23
-22.40490
33
-55.04498
0
3DFACE
8
Sph_re0
62
1
10
-29.85046
20
-19.14550
30
-55.04498
11
-30.20672
21
-22.40490
31
-55.04498
12
-34.08392
22
-18.27020
32
-51.50177
13
-34.08392
23
-18.27020
33
-51.50177
0
3DFACE
8
Sph_re0
62
1
10
-34.08392
20
-18.27020
30
-51.50177
11
-32.88848
21
-14.41900
31
-51.50177
12
-29.85046
22
-19.14550
32
-55.04498
13
-29.85046
23
-19.14550
33
-55.04498
0
3DFACE
8
Sph_re0
62
1
10
-28.93188
20
-16.09063
30
-55.04498
11
-29.85046
21
-19.14550
31
-55.04498
12
-32.88848
22
-14.41900
32
-51.50177
13
-32.88848
23
-14.41900
33
-51.50177
0
3DFACE
8
Sph_re0
62
1
10
-30.20672
20
-22.40490
30
-55.04498
11
-29.85046
21
-19.14550
31
-55.04498
12
-25.27783
22
-22.40490
32
-57.72003
13
-25.27783
23
-22.40490
33
-57.72003
0
3DFACE
8
Sph_re0
62
1
10
-24.83422
20
-20.20703
30
-57.72003
11
-25.27783
21
-22.40490
31
-57.72003
12
-29.85046
22
-19.14550
32
-55.04498
13
-29.85046
23
-19.14550
33
-55.04498
0
3DFACE
8
Sph_re0
62
1
10
-29.85046
20
-19.14550
30
-55.04498
11
-28.93188
21
-16.09063
31
-55.04498
12
-24.83422
22
-20.20703
32
-57.72003
13
-24.83422
23
-20.20703
33
-57.72003
0
3DFACE
8
Sph_re0
62
1
10
-24.39044
20
-18.00885
30
-57.72003
11
-24.83422
21
-20.20703
31
-57.72003
12
-28.93188
22
-16.09063
32
-55.04498
13
-28.93188
23
-16.09063
33
-55.04498
0
3DFACE
8
Sph_re0
62
1
10
-32.88848
20
-14.41900
30
-51.50177
11
-30.99700
21
-10.93389
31
-51.50177
12
-28.93188
22
-16.09063
32
-55.04498
13
-28.93188
23
-16.09063
33
-55.04498
0
3DFACE
8
Sph_re0
62
1
10
-27.41510
20
-13.35034
30
-55.04498
11
-28.93188
21
-16.09063
31
-55.04498
12
-30.99700
22
-10.93389
32
-51.50177
13
-30.99700
23
-10.93389
33
-51.50177
0
3DFACE
8
Sph_re0
62
1
10
-30.99700
20
-10.93389
30
-51.50177
11
-28.49151
21
-7.89727
31
-51.50177
12
-27.41510
22
-13.35034
32
-55.04498
13
-27.41510
23
-13.35034
33
-55.04498
0
3DFACE
8
Sph_re0
62
1
10
-25.45526
20
-10.93402
30
-55.04498
11
-27.41510
21
-13.35034
31
-55.04498
12
-28.49151
22
-7.89727
32
-51.50177
13
-28.49151
23
-7.89727
33
-51.50177
0
3DFACE
8
Sph_re0
62
1
10
-28.93188
20
-16.09063
30
-55.04498
11
-27.41510
21
-13.35034
31
-55.04498
12
-24.39044
22
-18.00885
32
-57.72003
13
-24.39044
23
-18.00885
33
-57.72003
0
3DFACE
8
Sph_re0
62
1
10
-23.18048
20
-16.21398
30
-57.72003
11
-24.39044
21
-18.00885
31
-57.72003
12
-27.41510
22
-13.35034
32
-55.04498
13
-27.41510
23
-13.35034
33
-55.04498
0
3DFACE
8
Sph_re0
62
1
10
-27.41510
20
-13.35034
30
-55.04498
11
-25.45526
21
-10.93402
31
-55.04498
12
-23.18048
22
-16.21398
32
-57.72003
13
-23.18048
23
-16.21398
33
-57.72003
0
3DFACE
8
Sph_re0
62
1
10
-21.97003
20
-14.41900
30
-57.72003
11
-23.18048
21
-16.21398
31
-57.72003
12
-25.45526
22
-10.93402
32
-55.04498
13
-25.45526
23
-10.93402
33
-55.04498
0
3DFACE
8
Sph_re0
62
1
10
-28.49151
20
-7.89727
30
-51.50177
11
-25.45526
21
-5.39227
31
-51.50177
12
-25.45526
22
-10.93402
32
-55.04498
13
-25.45526
23
-10.93402
33
-55.04498
0
3DFACE
8
Sph_re0
62
1
10
-23.03894
20
-8.97436
30
-55.04498
11
-25.45526
21
-10.93402
31
-55.04498
12
-25.45526
22
-5.39227
32
-51.50177
13
-25.45526
23
-5.39227
33
-51.50177
0
3DFACE
8
Sph_re0
62
1
10
-25.45526
20
-5.39227
30
-51.50177
11
-21.97003
21
-3.50048
31
-51.50177
12
-23.03894
22
-8.97436
32
-55.04498
13
-23.03894
23
-8.97436
33
-55.04498
0
3DFACE
8
Sph_re0
62
1
10
-20.29864
20
-7.45739
30
-55.04498
11
-23.03894
21
-8.97436
31
-55.04498
12
-21.97003
22
-3.50048
32
-51.50177
13
-21.97003
23
-3.50048
33
-51.50177
0
3DFACE
8
Sph_re0
62
1
10
-25.45526
20
-10.93402
30
-55.04498
11
-23.03894
21
-8.97436
31
-55.04498
12
-21.97003
22
-14.41900
32
-57.72003
13
-21.97003
23
-14.41900
33
-57.72003
0
3DFACE
8
Sph_re0
62
1
10
-20.17517
20
-13.20898
30
-57.72003
11
-21.97003
21
-14.41900
31
-57.72003
12
-23.03894
22
-8.97436
32
-55.04498
13
-23.03894
23
-8.97436
33
-55.04498
0
3DFACE
8
Sph_re0
62
1
10
-23.03894
20
-8.97436
30
-55.04498
11
-20.29864
21
-7.45739
31
-55.04498
12
-20.17517
22
-13.20898
32
-57.72003
13
-20.17517
23
-13.20898
33
-57.72003
0
3DFACE
8
Sph_re0
62
1
10
-18.38012
20
-11.99865
30
-57.72003
11
-20.17517
21
-13.20898
31
-57.72003
12
-20.29864
22
-7.45739
32
-55.04498
13
-20.29864
23
-7.45739
33
-55.04498
0
3DFACE
8
Sph_re0
62
1
10
-21.97003
20
-3.50048
30
-51.50177
11
-18.11877
21
-2.30511
31
-51.50177
12
-20.29864
22
-7.45739
32
-55.04498
13
-20.29864
23
-7.45739
33
-55.04498
0
3DFACE
8
Sph_re0
62
1
10
-17.24365
20
-6.53900
30
-55.04498
11
-20.29864
21
-7.45739
31
-55.04498
12
-18.11877
22
-2.30511
32
-51.50177
13
-18.11877
23
-2.30511
33
-51.50177
0
3DFACE
8
Sph_re0
62
1
10
-18.11877
20
-2.30511
30
-51.50177
11
-13.98358
21
-1.88800
31
-51.50177
12
-17.24365
22
-6.53900
32
-55.04498
13
-17.24365
23
-6.53900
33
-55.04498
0
3DFACE
8
Sph_re0
62
1
10
-13.98358
20
-6.18243
30
-55.04498
11
-17.24365
21
-6.53900
31
-55.04498
12
-13.98358
22
-1.88800
32
-51.50177
13
-13.98358
23
-1.88800
33
-51.50177
0
3DFACE
8
Sph_re0
62
1
10
-20.29864
20
-7.45739
30
-55.04498
11
-17.24365
21
-6.53900
31
-55.04498
12
-18.38012
22
-11.99865
32
-57.72003
13
-18.38012
23
-11.99865
33
-57.72003
0
3DFACE
8
Sph_re0
62
1
10
-16.18194
20
-11.55505
30
-57.72003
11
-18.38012
21
-11.99865
31
-57.72003
12
-17.24365
22
-6.53900
32
-55.04498
13
-17.24365
23
-6.53900
33
-55.04498
0
3DFACE
8
Sph_re0
62
1
10
-17.24365
20
-6.53900
30
-55.04498
11
-13.98358
21
-6.18243
31
-55.04498
12
-16.18194
22
-11.55505
32
-57.72003
13
-16.18194
23
-11.55505
33
-57.72003
0
3DFACE
8
Sph_re0
62
1
10
-13.98358
20
-11.11102
30
-57.72003
11
-16.18194
21
-11.55505
31
-57.72003
12
-13.98358
22
-6.18243
32
-55.04498
13
-13.98358
23
-6.18243
33
-55.04498
0
3DFACE
8
Sph_re0
62
1
10
-25.27783
20
-22.40490
30
-57.72003
11
-24.39044
21
-18.00885
31
-57.72003
12
-19.83142
22
-22.40490
32
-59.41070
13
-19.83142
23
-22.40490
33
-59.41070
0
3DFACE
8
Sph_re0
62
1
10
-19.37200
20
-20.12908
30
-59.41070
11
-19.83142
21
-22.40490
31
-59.41070
12
-24.39044
22
-18.00885
32
-57.72003
13
-24.39044
23
-18.00885
33
-57.72003
0
3DFACE
8
Sph_re0
62
1
10
-24.39044
20
-18.00885
30
-57.72003
11
-21.97003
21
-14.41900
31
-57.72003
12
-19.37200
22
-20.12908
32
-59.41070
13
-19.37200
23
-20.12908
33
-59.41070
0
3DFACE
8
Sph_re0
62
1
10
-18.11877
20
-18.27038
30
-59.41070
11
-19.37200
21
-20.12908
31
-59.41070
12
-21.97003
22
-14.41900
32
-57.72003
13
-21.97003
23
-14.41900
33
-57.72003
0
3DFACE
8
Sph_re0
62
1
10
-21.97003
20
-14.41900
30
-57.72003
11
-18.38012
21
-11.99865
31
-57.72003
12
-18.11877
22
-18.27038
32
-59.41070
13
-18.11877
23
-18.27038
33
-59.41070
0
3DFACE
8
Sph_re0
62
1
10
-16.26000
20
-17.01727
30
-59.41070
11
-18.11877
21
-18.27038
31
-59.41070
12
-18.38012
22
-11.99865
32
-57.72003
13
-18.38012
23
-11.99865
33
-57.72003
0
3DFACE
8
Sph_re0
62
1
10
-18.38012
20
-11.99865
30
-57.72003
11
-13.98358
21
-11.11102
31
-57.72003
12
-16.26000
22
-17.01727
32
-59.41070
13
-16.26000
23
-17.01727
33
-59.41070
0
3DFACE
8
Sph_re0
62
1
10
-13.98358
20
-16.55755
30
-59.41070
11
-16.26000
21
-17.01727
31
-59.41070
12
-13.98358
22
-11.11102
32
-57.72003
13
-13.98358
23
-11.11102
33
-57.72003
0
3DFACE
8
Sph_re0
62
1
10
-19.83142
20
-22.40490
30
-59.41070
11
-19.37200
21
-20.12908
31
-59.41070
12
-13.98358
22
-22.40490
32
-59.99993
13
-13.98358
23
-22.40490
33
-59.99993
0
3DFACE
8
Sph_re0
62
1
10
-13.98358
20
-22.40490
30
-59.99993
11
-13.98358
21
-22.40490
31
-59.99993
12
-19.37200
22
-20.12908
32
-59.41070
13
-19.37200
23
-20.12908
33
-59.41070
0
3DFACE
8
Sph_re0
62
1
10
-19.37200
20
-20.12908
30
-59.41070
11
-18.11877
21
-18.27038
31
-59.41070
12
-13.98358
22
-22.40490
32
-59.99993
13
-13.98358
23
-22.40490
33
-59.99993
0
3DFACE
8
Sph_re0
62
1
10
-13.98358
20
-22.40490
30
-59.99993
11
-13.98358
21
-22.40490
31
-59.99993
12
-18.11877
22
-18.27038
32
-59.41070
13
-18.11877
23
-18.27038
33
-59.41070
0
3DFACE
8
Sph_re0
62
1
10
-18.11877
20
-18.27038
30
-59.41070
11
-16.26000
21
-17.01727
31
-59.41070
12
-13.98358
22
-22.40490
32
-59.99993
13
-13.98358
23
-22.40490
33
-59.99993
0
3DFACE
8
Sph_re0
62
1
10
-13.98358
20
-22.40490
30
-59.99993
11
-13.98358
21
-22.40490
31
-59.99993
12
-16.26000
22
-17.01727
32
-59.41070
13
-16.26000
23
-17.01727
33
-59.41070
0
3DFACE
8
Sph_re0
62
1
10
-16.26000
20
-17.01727
30
-59.41070
11
-13.98358
21
-16.55755
31
-59.41070
12
-13.98358
22
-22.40490
32
-59.99993
13
-13.98358
23
-22.40490
33
-59.99993
0
3DFACE
8
Sph_re0
62
1
10
-13.98358
20
-22.40490
30
-59.99993
11
-13.98358
21
-22.40490
31
-59.99993
12
-13.98358
22
-16.55755
32
-59.41070
13
-13.98358
23
-16.55755
33
-59.41070
0
3DFACE
8
Sph_re0
62
1
10
15.03167
20
-22.40490
30
-30.98468
11
14.44207
21
-28.25274
31
-30.98468
12
14.44207
22
-22.40490
32
-36.83251
13
14.44207
23
-22.40490
33
-36.83251
0
3DFACE
8
Sph_re0
62
1
10
13.86444
20
-28.13397
30
-36.83251
11
14.44207
21
-22.40490
31
-36.83251
12
14.44207
22
-28.25274
32
-30.98468
13
14.44207
23
-28.25274
33
-30.98468
0
3DFACE
8
Sph_re0
62
1
10
14.44207
20
-28.25274
30
-30.98468
11
12.75140
21
-33.69915
31
-30.98468
12
13.86444
22
-28.13397
32
-36.83251
13
13.86444
23
-28.13397
33
-36.83251
0
3DFACE
8
Sph_re0
62
1
10
12.20800
20
-33.46984
30
-36.83251
11
13.86444
21
-28.13397
31
-36.83251
12
12.75140
22
-33.69915
32
-30.98468
13
12.75140
23
-33.69915
33
-30.98468
0
3DFACE
8
Sph_re0
62
1
10
14.44207
20
-22.40490
30
-36.83251
11
13.86444
21
-28.13397
31
-36.83251
12
12.75140
22
-22.40490
32
-42.27893
13
12.75140
23
-22.40490
33
-42.27893
0
3DFACE
8
Sph_re0
62
1
10
12.20800
20
-27.79333
30
-42.27893
11
12.75140
21
-22.40490
31
-42.27893
12
13.86444
22
-28.13397
32
-36.83251
13
13.86444
23
-28.13397
33
-36.83251
0
3DFACE
8
Sph_re0
62
1
10
13.86444
20
-28.13397
30
-36.83251
11
12.20800
21
-33.46984
31
-36.83251
12
12.20800
22
-27.79333
32
-42.27893
13
12.20800
23
-27.79333
33
-42.27893
0
3DFACE
8
Sph_re0
62
1
10
10.65032
20
-32.81176
30
-42.27893
11
12.20800
21
-27.79333
31
-42.27893
12
12.20800
22
-33.46984
32
-36.83251
13
12.20800
23
-33.46984
33
-36.83251
0
3DFACE
8
Sph_re0
62
1
10
12.75140
20
-33.69915
30
-30.98468
11
10.07611
21
-38.62805
31
-30.98468
12
12.20800
22
-33.46984
32
-36.83251
13
12.20800
23
-33.46984
33
-36.83251
0
3DFACE
8
Sph_re0
62
1
10
9.58715
20
-38.29846
30
-36.83251
11
12.20800
21
-33.46984
31
-36.83251
12
10.07611
22
-38.62805
32
-30.98468
13
10.07611
23
-38.62805
33
-30.98468
0
3DFACE
8
Sph_re0
62
1
10
10.07611
20
-38.62805
30
-30.98468
11
6.53332
21
-42.92199
31
-30.98468
12
9.58715
22
-38.29846
32
-36.83251
13
9.58715
23
-38.29846
33
-36.83251
0
3DFACE
8
Sph_re0
62
1
10
6.11621
20
-42.50524
30
-36.83251
11
9.58715
21
-38.29846
31
-36.83251
12
6.53332
22
-42.92199
32
-30.98468
13
6.53332
23
-42.92199
33
-30.98468
0
3DFACE
8
Sph_re0
62
1
10
12.20800
20
-33.46984
30
-36.83251
11
9.58715
21
-38.29846
31
-36.83251
12
10.65032
22
-32.81176
32
-42.27893
13
10.65032
23
-32.81176
33
-42.27893
0
3DFACE
8
Sph_re0
62
1
10
8.18530
20
-37.35321
30
-42.27893
11
10.65032
21
-32.81176
31
-42.27893
12
9.58715
22
-38.29846
32
-36.83251
13
9.58715
23
-38.29846
33
-36.83251
0
3DFACE
8
Sph_re0
62
1
10
9.58715
20
-38.29846
30
-36.83251
11
6.11621
21
-42.50524
31
-36.83251
12
8.18530
22
-37.35321
32
-42.27893
13
8.18530
23
-37.35321
33
-42.27893
0
3DFACE
8
Sph_re0
62
1
10
4.92083
20
-41.30981
30
-42.27893
11
8.18530
21
-37.35321
31
-42.27893
12
6.11621
22
-42.50524
32
-36.83251
13
6.11621
23
-42.50524
33
-36.83251
0
3DFACE
8
Sph_re0
62
1
10
12.75140
20
-22.40490
30
-42.27893
11
12.20800
21
-27.79333
31
-42.27893
12
10.07611
22
-22.40490
32
-47.20782
13
10.07611
23
-22.40490
33
-47.20782
0
3DFACE
8
Sph_re0
62
1
10
9.58715
20
-27.25427
30
-47.20782
11
10.07611
21
-22.40490
31
-47.20782
12
12.20800
22
-27.79333
32
-42.27893
13
12.20800
23
-27.79333
33
-42.27893
0
3DFACE
8
Sph_re0
62
1
10
10.07611
20
-22.40490
30
-47.20782
11
9.58715
21
-27.25427
31
-47.20782
12
6.53332
22
-22.40490
32
-51.50177
13
6.53332
23
-22.40490
33
-51.50177
0
3DFACE
8
Sph_re0
62
1
10
6.11621
20
-26.54010
30
-51.50177
11
6.53332
21
-22.40490
31
-51.50177
12
9.58715
22
-27.25427
32
-47.20782
13
9.58715
23
-27.25427
33
-47.20782
0
3DFACE
8
Sph_re0
62
1
10
12.20800
20
-27.79333
30
-42.27893
11
10.65032
21
-32.81176
31
-42.27893
12
9.58715
22
-27.25427
32
-47.20782
13
9.58715
23
-27.25427
33
-47.20782
0
3DFACE
8
Sph_re0
62
1
10
8.18530
20
-31.77062
30
-47.20782
11
9.58715
21
-27.25427
31
-47.20782
12
10.65032
22
-32.81176
32
-42.27893
13
10.65032
23
-32.81176
33
-42.27893
0
3DFACE
8
Sph_re0
62
1
10
9.58715
20
-27.25427
30
-47.20782
11
8.18530
21
-31.77062
31
-47.20782
12
6.11621
22
-26.54010
32
-51.50177
13
6.11621
23
-26.54010
33
-51.50177
0
3DFACE
8
Sph_re0
62
1
10
4.92083
20
-30.39135
30
-51.50177
11
6.11621
21
-26.54010
31
-51.50177
12
8.18530
22
-31.77062
32
-47.20782
13
8.18530
23
-31.77062
33
-47.20782
0
3DFACE
8
Sph_re0
62
1
10
10.65032
20
-32.81176
30
-42.27893
11
8.18530
21
-37.35321
31
-42.27893
12
8.18530
22
-31.77062
32
-47.20782
13
8.18530
23
-31.77062
33
-47.20782
0
3DFACE
8
Sph_re0
62
1
10
5.96685
20
-35.85766
30
-47.20782
11
8.18530
21
-31.77062
31
-47.20782
12
8.18530
22
-37.35321
32
-42.27893
13
8.18530
23
-37.35321
33
-42.27893
0
3DFACE
8
Sph_re0
62
1
10
8.18530
20
-37.35321
30
-42.27893
11
4.92083
21
-41.30981
31
-42.27893
12
5.96685
22
-35.85766
32
-47.20782
13
5.96685
23
-35.85766
33
-47.20782
0
3DFACE
8
Sph_re0
62
1
10
3.02905
20
-39.41833
30
-47.20782
11
5.96685
21
-35.85766
31
-47.20782
12
4.92083
22
-41.30981
32
-42.27893
13
4.92083
23
-41.30981
33
-42.27893
0
3DFACE
8
Sph_re0
62
1
10
8.18530
20
-31.77062
30
-47.20782
11
5.96685
21
-35.85766
31
-47.20782
12
4.92083
22
-30.39135
32
-51.50177
13
4.92083
23
-30.39135
33
-51.50177
0
3DFACE
8
Sph_re0
62
1
10
3.02905
20
-33.87658
30
-51.50177
11
4.92083
21
-30.39135
31
-51.50177
12
5.96685
22
-35.85766
32
-47.20782
13
5.96685
23
-35.85766
33
-47.20782
0
3DFACE
8
Sph_re0
62
1
10
5.96685
20
-35.85766
30
-47.20782
11
3.02905
21
-39.41833
31
-47.20782
12
3.02905
22
-33.87658
32
-51.50177
13
3.02905
23
-33.87658
33
-51.50177
0
3DFACE
8
Sph_re0
62
1
10
0.52404
20
-36.91284
30
-51.50177
11
3.02905
21
-33.87658
31
-51.50177
12
3.02905
22
-39.41833
32
-47.20782
13
3.02905
23
-39.41833
33
-47.20782
0
3DFACE
8
Sph_re0
62
1
10
6.53332
20
-42.92199
30
-30.98468
11
2.23889
21
-46.46520
31
-30.98468
12
6.11621
22
-42.50524
32
-36.83251
13
6.11621
23
-42.50524
33
-36.83251
0
3DFACE
8
Sph_re0
62
1
10
1.90917
20
-45.97644
30
-36.83251
11
6.11621
21
-42.50524
31
-36.83251
12
2.23889
22
-46.46520
32
-30.98468
13
2.23889
23
-46.46520
33
-30.98468
0
3DFACE
8
Sph_re0
62
1
10
2.23889
20
-46.46520
30
-30.98468
11
-2.68969
21
-49.14025
31
-30.98468
12
1.90917
22
-45.97644
32
-36.83251
13
1.90917
23
-45.97644
33
-36.83251
0
3DFACE
8
Sph_re0
62
1
10
-2.91931
20
-48.59716
30
-36.83251
11
1.90917
21
-45.97644
31
-36.83251
12
-2.68969
22
-49.14025
32
-30.98468
13
-2.68969
23
-49.14025
33
-30.98468
0
3DFACE
8
Sph_re0
62
1
10
6.11621
20
-42.50524
30
-36.83251
11
1.90917
21
-45.97644
31
-36.83251
12
4.92083
22
-41.30981
32
-42.27893
13
4.92083
23
-41.30981
33
-42.27893
0
3DFACE
8
Sph_re0
62
1
10
0.96392
20
-44.57458
30
-42.27893
11
4.92083
21
-41.30981
31
-42.27893
12
1.90917
22
-45.97644
32
-36.83251
13
1.90917
23
-45.97644
33
-36.83251
0
3DFACE
8
Sph_re0
62
1
10
1.90917
20
-45.97644
30
-36.83251
11
-2.91931
21
-48.59716
31
-36.83251
12
0.96392
22
-44.57458
32
-42.27893
13
0.96392
23
-44.57458
33
-42.27893
0
3DFACE
8
Sph_re0
62
1
10
-3.57733
20
-47.03942
30
-42.27893
11
0.96392
21
-44.57458
31
-42.27893
12
-2.91931
22
-48.59716
32
-36.83251
13
-2.91931
23
-48.59716
33
-36.83251
0
3DFACE
8
Sph_re0
62
1
10
-2.68969
20
-49.14025
30
-30.98468
11
-8.13623
21
-50.83093
31
-30.98468
12
-2.91931
22
-48.59716
32
-36.83251
13
-2.91931
23
-48.59716
33
-36.83251
0
3DFACE
8
Sph_re0
62
1
10
-8.25500
20
-50.25360
30
-36.83251
11
-2.91931
21
-48.59716
31
-36.83251
12
-8.13623
22
-50.83093
32
-30.98468
13
-8.13623
23
-50.83093
33
-30.98468
0
3DFACE
8
Sph_re0
62
1
10
-8.13623
20
-50.83093
30
-30.98468
11
-13.98358
21
-51.42016
31
-30.98468
12
-8.25500
22
-50.25360
32
-36.83251
13
-8.25500
23
-50.25360
33
-36.83251
0
3DFACE
8
Sph_re0
62
1
10
-13.98358
20
-50.83093
30
-36.83251
11
-8.25500
21
-50.25360
31
-36.83251
12
-13.98358
22
-51.42016
32
-30.98468
13
-13.98358
23
-51.42016
33
-30.98468
0
3DFACE
8
Sph_re0
62
1
10
-2.91931
20
-48.59716
30
-36.83251
11
-8.25500
21
-50.25360
31
-36.83251
12
-3.57733
22
-47.03942
32
-42.27893
13
-3.57733
23
-47.03942
33
-42.27893
0
3DFACE
8
Sph_re0
62
1
10
-8.59576
20
-48.59716
30
-42.27893
11
-3.57733
21
-47.03942
31
-42.27893
12
-8.25500
22
-50.25360
32
-36.83251
13
-8.25500
23
-50.25360
33
-36.83251
0
3DFACE
8
Sph_re0
62
1
10
-8.25500
20
-50.25360
30
-36.83251
11
-13.98358
21
-50.83093
31
-36.83251
12
-8.59576
22
-48.59716
32
-42.27893
13
-8.59576
23
-48.59716
33
-42.27893
0
3DFACE
8
Sph_re0
62
1
10
-13.98358
20
-49.14025
30
-42.27893
11
-8.59576
21
-48.59716
31
-42.27893
12
-13.98358
22
-50.83093
32
-36.83251
13
-13.98358
23
-50.83093
33
-36.83251
0
3DFACE
8
Sph_re0
62
1
10
4.92083
20
-41.30981
30
-42.27893
11
0.96392
21
-44.57458
31
-42.27893
12
3.02905
22
-39.41833
32
-47.20782
13
3.02905
23
-39.41833
33
-47.20782
0
3DFACE
8
Sph_re0
62
1
10
-0.53192
20
-42.35644
30
-47.20782
11
3.02905
21
-39.41833
31
-47.20782
12
0.96392
22
-44.57458
32
-42.27893
13
0.96392
23
-44.57458
33
-42.27893
0
3DFACE
8
Sph_re0
62
1
10
0.96392
20
-44.57458
30
-42.27893
11
-3.57733
21
-47.03942
31
-42.27893
12
-0.53192
22
-42.35644
32
-47.20782
13
-0.53192
23
-42.35644
33
-47.20782
0
3DFACE
8
Sph_re0
62
1
10
-4.61865
20
-44.57458
30
-47.20782
11
-0.53192
21
-42.35644
31
-47.20782
12
-3.57733
22
-47.03942
32
-42.27893
13
-3.57733
23
-47.03942
33
-42.27893
0
3DFACE
8
Sph_re0
62
1
10
3.02905
20
-39.41833
30
-47.20782
11
-0.53192
21
-42.35644
31
-47.20782
12
0.52404
22
-36.91284
32
-51.50177
13
0.52404
23
-36.91284
33
-51.50177
0
3DFACE
8
Sph_re0
62
1
10
-2.51257
20
-39.41833
30
-51.50177
11
0.52404
21
-36.91284
31
-51.50177
12
-0.53192
22
-42.35644
32
-47.20782
13
-0.53192
23
-42.35644
33
-47.20782
0
3DFACE
8
Sph_re0
62
1
10
-0.53192
20
-42.35644
30
-47.20782
11
-4.61865
21
-44.57458
31
-47.20782
12
-2.51257
22
-39.41833
32
-51.50177
13
-2.51257
23
-39.41833
33
-51.50177
0
3DFACE
8
Sph_re0
62
1
10
-5.99768
20
-41.30981
30
-51.50177
11
-2.51257
21
-39.41833
31
-51.50177
12
-4.61865
22
-44.57458
32
-47.20782
13
-4.61865
23
-44.57458
33
-47.20782
0
3DFACE
8
Sph_re0
62
1
10
-3.57733
20
-47.03942
30
-42.27893
11
-8.59576
21
-48.59716
31
-42.27893
12
-4.61865
22
-44.57458
32
-47.20782
13
-4.61865
23
-44.57458
33
-47.20782
0
3DFACE
8
Sph_re0
62
1
10
-9.13507
20
-45.97656
30
-47.20782
11
-4.61865
21
-44.57458
31
-47.20782
12
-8.59576
22
-48.59716
32
-42.27893
13
-8.59576
23
-48.59716
33
-42.27893
0
3DFACE
8
Sph_re0
62
1
10
-4.61865
20
-44.57458
30
-47.20782
11
-9.13507
21
-45.97656
31
-47.20782
12
-5.99768
22
-41.30981
32
-51.50177
13
-5.99768
23
-41.30981
33
-51.50177
0
3DFACE
8
Sph_re0
62
1
10
-9.84887
20
-42.50524
30
-51.50177
11
-5.99768
21
-41.30981
31
-51.50177
12
-9.13507
22
-45.97656
32
-47.20782
13
-9.13507
23
-45.97656
33
-47.20782
0
3DFACE
8
Sph_re0
62
1
10
-8.59576
20
-48.59716
30
-42.27893
11
-13.98358
21
-49.14025
31
-42.27893
12
-9.13507
22
-45.97656
32
-47.20782
13
-9.13507
23
-45.97656
33
-47.20782
0
3DFACE
8
Sph_re0
62
1
10
-13.98358
20
-46.46520
30
-47.20782
11
-9.13507
21
-45.97656
31
-47.20782
12
-13.98358
22
-49.14025
32
-42.27893
13
-13.98358
23
-49.14025
33
-42.27893
0
3DFACE
8
Sph_re0
62
1
10
-9.13507
20
-45.97656
30
-47.20782
11
-13.98358
21
-46.46520
31
-47.20782
12
-9.84887
22
-42.50524
32
-51.50177
13
-9.84887
23
-42.50524
33
-51.50177
0
3DFACE
8
Sph_re0
62
1
10
-13.98358
20
-42.92199
30
-51.50177
11
-9.84887
21
-42.50524
31
-51.50177
12
-13.98358
22
-46.46520
32
-47.20782
13
-13.98358
23
-46.46520
33
-47.20782
0
3DFACE
8
Sph_re0
62
1
10
6.53332
20
-22.40490
30
-51.50177
11
6.11621
21
-26.54010
31
-51.50177
12
2.23889
22
-22.40490
32
-55.04498
13
2.23889
23
-22.40490
33
-55.04498
0
3DFACE
8
Sph_re0
62
1
10
1.88232
20
-25.66497
30
-55.04498
11
2.23889
21
-22.40490
31
-55.04498
12
6.11621
22
-26.54010
32
-51.50177
13
6.11621
23
-26.54010
33
-51.50177
0
3DFACE
8
Sph_re0
62
1
10
6.11621
20
-26.54010
30
-51.50177
11
4.92083
21
-30.39135
31
-51.50177
12
1.88232
22
-25.66497
32
-55.04498
13
1.88232
23
-25.66497
33
-55.04498
0
3DFACE
8
Sph_re0
62
1
10
0.96392
20
-28.71997
30
-55.04498
11
1.88232
21
-25.66497
31
-55.04498
12
4.92083
22
-30.39135
32
-51.50177
13
4.92083
23
-30.39135
33
-51.50177
0
3DFACE
8
Sph_re0
62
1
10
2.23889
20
-22.40490
30
-55.04498
11
1.88232
21
-25.66497
31
-55.04498
12
-2.68969
22
-22.40490
32
-57.72003
13
-2.68969
23
-22.40490
33
-57.72003
0
3DFACE
8
Sph_re0
62
1
10
-3.13372
20
-24.60327
30
-57.72003
11
-2.68969
21
-22.40490
31
-57.72003
12
1.88232
22
-25.66497
32
-55.04498
13
1.88232
23
-25.66497
33
-55.04498
0
3DFACE
8
Sph_re0
62
1
10
1.88232
20
-25.66497
30
-55.04498
11
0.96392
21
-28.71997
31
-55.04498
12
-3.13372
22
-24.60327
32
-57.72003
13
-3.13372
23
-24.60327
33
-57.72003
0
3DFACE
8
Sph_re0
62
1
10
-3.57733
20
-26.80145
30
-57.72003
11
-3.13372
21
-24.60327
31
-57.72003
12
0.96392
22
-28.71997
32
-55.04498
13
0.96392
23
-28.71997
33
-55.04498
0
3DFACE
8
Sph_re0
62
1
10
4.92083
20
-30.39135
30
-51.50177
11
3.02905
21
-33.87658
31
-51.50177
12
0.96392
22
-28.71997
32
-55.04498
13
0.96392
23
-28.71997
33
-55.04498
0
3DFACE
8
Sph_re0
62
1
10
-0.55303
20
-31.46026
30
-55.04498
11
0.96392
21
-28.71997
31
-55.04498
12
3.02905
22
-33.87658
32
-51.50177
13
3.02905
23
-33.87658
33
-51.50177
0
3DFACE
8
Sph_re0
62
1
10
3.02905
20
-33.87658
30
-51.50177
11
0.52404
21
-36.91284
31
-51.50177
12
-0.55303
22
-31.46026
32
-55.04498
13
-0.55303
23
-31.46026
33
-55.04498
0
3DFACE
8
Sph_re0
62
1
10
-2.51269
20
-33.87658
30
-55.04498
11
-0.55303
21
-31.46026
31
-55.04498
12
0.52404
22
-36.91284
32
-51.50177
13
0.52404
23
-36.91284
33
-51.50177
0
3DFACE
8
Sph_re0
62
1
10
0.96392
20
-28.71997
30
-55.04498
11
-0.55303
21
-31.46026
31
-55.04498
12
-3.57733
22
-26.80145
32
-57.72003
13
-3.57733
23
-26.80145
33
-57.72003
0
3DFACE
8
Sph_re0
62
1
10
-4.78765
20
-28.59649
30
-57.72003
11
-3.57733
21
-26.80145
31
-57.72003
12
-0.55303
22
-31.46026
32
-55.04498
13
-0.55303
23
-31.46026
33
-55.04498
0
3DFACE
8
Sph_re0
62
1
10
-0.55303
20
-31.46026
30
-55.04498
11
-2.51269
21
-33.87658
31
-55.04498
12
-4.78765
22
-28.59649
32
-57.72003
13
-4.78765
23
-28.59649
33
-57.72003
0
3DFACE
8
Sph_re0
62
1
10
-5.99768
20
-30.39135
30
-57.72003
11
-4.78765
21
-28.59649
31
-57.72003
12
-2.51269
22
-33.87658
32
-55.04498
13
-2.51269
23
-33.87658
33
-55.04498
0
3DFACE
8
Sph_re0
62
1
10
0.52404
20
-36.91284
30
-51.50177
11
-2.51257
21
-39.41833
31
-51.50177
12
-2.51269
22
-33.87658
32
-55.04498
13
-2.51269
23
-33.87658
33
-55.04498
0
3DFACE
8
Sph_re0
62
1
10
-4.92901
20
-35.83642
30
-55.04498
11
-2.51269
21
-33.87658
31
-55.04498
12
-2.51257
22
-39.41833
32
-51.50177
13
-2.51257
23
-39.41833
33
-51.50177
0
3DFACE
8
Sph_re0
62
1
10
-2.51257
20
-39.41833
30
-51.50177
11
-5.99768
21
-41.30981
31
-51.50177
12
-4.92901
22
-35.83642
32
-55.04498
13
-4.92901
23
-35.83642
33
-55.04498
0
3DFACE
8
Sph_re0
62
1
10
-7.66931
20
-37.35321
30
-55.04498
11
-4.92901
21
-35.83642
31
-55.04498
12
-5.99768
22
-41.30981
32
-51.50177
13
-5.99768
23
-41.30981
33
-51.50177
0
3DFACE
8
Sph_re0
62
1
10
-2.51269
20
-33.87658
30
-55.04498
11
-4.92901
21
-35.83642
31
-55.04498
12
-5.99768
22
-30.39135
32
-57.72003
13
-5.99768
23
-30.39135
33
-57.72003
0
3DFACE
8
Sph_re0
62
1
10
-7.79266
20
-31.60180
30
-57.72003
11
-5.99768
21
-30.39135
31
-57.72003
12
-4.92901
22
-35.83642
32
-55.04498
13
-4.92901
23
-35.83642
33
-55.04498
0
3DFACE
8
Sph_re0
62
1
10
-4.92901
20
-35.83642
30
-55.04498
11
-7.66931
21
-37.35321
31
-55.04498
12
-7.79266
22
-31.60180
32
-57.72003
13
-7.79266
23
-31.60180
33
-57.72003
0
3DFACE
8
Sph_re0
62
1
10
-9.58752
20
-32.81176
30
-57.72003
11
-7.79266
21
-31.60180
31
-57.72003
12
-7.66931
22
-37.35321
32
-55.04498
13
-7.66931
23
-37.35321
33
-55.04498
0
3DFACE
8
Sph_re0
62
1
10
-5.99768
20
-41.30981
30
-51.50177
11
-9.84887
21
-42.50524
31
-51.50177
12
-7.66931
22
-37.35321
32
-55.04498
13
-7.66931
23
-37.35321
33
-55.04498
0
3DFACE
8
Sph_re0
62
1
10
-10.72418
20
-38.27178
30
-55.04498
11
-7.66931
21
-37.35321
31
-55.04498
12
-9.84887
22
-42.50524
32
-51.50177
13
-9.84887
23
-42.50524
33
-51.50177
0
3DFACE
8
Sph_re0
62
1
10
-9.84887
20
-42.50524
30
-51.50177
11
-13.98358
21
-42.92199
31
-51.50177
12
-10.72418
22
-38.27178
32
-55.04498
13
-10.72418
23
-38.27178
33
-55.04498
0
3DFACE
8
Sph_re0
62
1
10
-13.98358
20
-38.62805
30
-55.04498
11
-10.72418
21
-38.27178
31
-55.04498
12
-13.98358
22
-42.92199
32
-51.50177
13
-13.98358
23
-42.92199
33
-51.50177
0
3DFACE
8
Sph_re0
62
1
10
-7.66931
20
-37.35321
30
-55.04498
11
-10.72418
21
-38.27178
31
-55.04498
12
-9.58752
22
-32.81176
32
-57.72003
13
-9.58752
23
-32.81176
33
-57.72003
0
3DFACE
8
Sph_re0
62
1
10
-11.78570
20
-33.25555
30
-57.72003
11
-9.58752
21
-32.81176
31
-57.72003
12
-10.72418
22
-38.27178
32
-55.04498
13
-10.72418
23
-38.27178
33
-55.04498
0
3DFACE
8
Sph_re0
62
1
10
-10.72418
20
-38.27178
30
-55.04498
11
-13.98358
21
-38.62805
31
-55.04498
12
-11.78570
22
-33.25555
32
-57.72003
13
-11.78570
23
-33.25555
33
-57.72003
0
3DFACE
8
Sph_re0
62
1
10
-13.98358
20
-33.69915
30
-57.72003
11
-11.78570
21
-33.25555
31
-57.72003
12
-13.98358
22
-38.62805
32
-55.04498
13
-13.98358
23
-38.62805
33
-55.04498
0
3DFACE
8
Sph_re0
62
1
10
-2.68969
20
-22.40490
30
-57.72003
11
-3.57733
21
-26.80145
31
-57.72003
12
-8.13623
22
-22.40490
32
-59.41070
13
-8.13623
23
-22.40490
33
-59.41070
0
3DFACE
8
Sph_re0
62
1
10
-8.59594
20
-24.68133
30
-59.41070
11
-8.13623
21
-22.40490
31
-59.41070
12
-3.57733
22
-26.80145
32
-57.72003
13
-3.57733
23
-26.80145
33
-57.72003
0
3DFACE
8
Sph_re0
62
1
10
-3.57733
20
-26.80145
30
-57.72003
11
-5.99768
21
-30.39135
31
-57.72003
12
-8.59594
22
-24.68133
32
-59.41070
13
-8.59594
23
-24.68133
33
-59.41070
0
3DFACE
8
Sph_re0
62
1
10
-9.84906
20
-26.54010
30
-59.41070
11
-8.59594
21
-24.68133
31
-59.41070
12
-5.99768
22
-30.39135
32
-57.72003
13
-5.99768
23
-30.39135
33
-57.72003
0
3DFACE
8
Sph_re0
62
1
10
-5.99768
20
-30.39135
30
-57.72003
11
-9.58752
21
-32.81176
31
-57.72003
12
-9.84906
22
-26.54010
32
-59.41070
13
-9.84906
23
-26.54010
33
-59.41070
0
3DFACE
8
Sph_re0
62
1
10
-11.70776
20
-27.79333
30
-59.41070
11
-9.84906
21
-26.54010
31
-59.41070
12
-9.58752
22
-32.81176
32
-57.72003
13
-9.58752
23
-32.81176
33
-57.72003
0
3DFACE
8
Sph_re0
62
1
10
-9.58752
20
-32.81176
30
-57.72003
11
-13.98358
21
-33.69915
31
-57.72003
12
-11.70776
22
-27.79333
32
-59.41070
13
-11.70776
23
-27.79333
33
-59.41070
0
3DFACE
8
Sph_re0
62
1
10
-13.98358
20
-28.25274
30
-59.41070
11
-11.70776
21
-27.79333
31
-59.41070
12
-13.98358
22
-33.69915
32
-57.72003
13
-13.98358
23
-33.69915
33
-57.72003
0
3DFACE
8
Sph_re0
62
1
10
-8.13623
20
-22.40490
30
-59.41070
11
-8.59594
21
-24.68133
31
-59.41070
12
-13.98358
22
-22.40490
32
-59.99993
13
-13.98358
23
-22.40490
33
-59.99993
0
3DFACE
8
Sph_re0
62
1
10
-13.98358
20
-22.40490
30
-59.99993
11
-13.98358
21
-22.40490
31
-59.99993
12
-8.59594
22
-24.68133
32
-59.41070
13
-8.59594
23
-24.68133
33
-59.41070
0
3DFACE
8
Sph_re0
62
1
10
-8.59594
20
-24.68133
30
-59.41070
11
-9.84906
21
-26.54010
31
-59.41070
12
-13.98358
22
-22.40490
32
-59.99993
13
-13.98358
23
-22.40490
33
-59.99993
0
3DFACE
8
Sph_re0
62
1
10
-13.98358
20
-22.40490
30
-59.99993
11
-13.98358
21
-22.40490
31
-59.99993
12
-9.84906
22
-26.54010
32
-59.41070
13
-9.84906
23
-26.54010
33
-59.41070
0
3DFACE
8
Sph_re0
62
1
10
-9.84906
20
-26.54010
30
-59.41070
11
-11.70776
21
-27.79333
31
-59.41070
12
-13.98358
22
-22.40490
32
-59.99993
13
-13.98358
23
-22.40490
33
-59.99993
0
3DFACE
8
Sph_re0
62
1
10
-13.98358
20
-22.40490
30
-59.99993
11
-13.98358
21
-22.40490
31
-59.99993
12
-11.70776
22
-27.79333
32
-59.41070
13
-11.70776
23
-27.79333
33
-59.41070
0
3DFACE
8
Sph_re0
62
1
10
-11.70776
20
-27.79333
30
-59.41070
11
-13.98358
21
-28.25274
31
-59.41070
12
-13.98358
22
-22.40490
32
-59.99993
13
-13.98358
23
-22.40490
33
-59.99993
0
3DFACE
8
Sph_re0
62
1
10
-13.98358
20
-22.40490
30
-59.99993
11
-13.98358
21
-22.40490
31
-59.99993
12
-13.98358
22
-28.25274
32
-59.41070
13
-13.98358
23
-28.25274
33
-59.41070
0
3DFACE
8
Sph_re0
62
1
10
-13.98358
20
-51.42016
30
-30.98468
11
-19.83142
21
-50.83093
31
-30.98468
12
-13.98358
22
-50.83093
32
-36.83251
13
-13.98358
23
-50.83093
33
-36.83251
0
3DFACE
8
Sph_re0
62
1
10
-19.71264
20
-50.25360
30
-36.83251
11
-13.98358
21
-50.83093
31
-36.83251
12
-19.83142
22
-50.83093
32
-30.98468
13
-19.83142
23
-50.83093
33
-30.98468
0
3DFACE
8
Sph_re0
62
1
10
-19.83142
20
-50.83093
30
-30.98468
11
-25.27783
21
-49.14025
31
-30.98468
12
-19.71264
22
-50.25360
32
-36.83251
13
-19.71264
23
-50.25360
33
-36.83251
0
3DFACE
8
Sph_re0
62
1
10
-25.04852
20
-48.59716
30
-36.83251
11
-19.71264
21
-50.25360
31
-36.83251
12
-25.27783
22
-49.14025
32
-30.98468
13
-25.27783
23
-49.14025
33
-30.98468
0
3DFACE
8
Sph_re0
62
1
10
-13.98358
20
-50.83093
30
-36.83251
11
-19.71264
21
-50.25360
31
-36.83251
12
-13.98358
22
-49.14025
32
-42.27893
13
-13.98358
23
-49.14025
33
-42.27893
0
3DFACE
8
Sph_re0
62
1
10
-19.37200
20
-48.59716
30
-42.27893
11
-13.98358
21
-49.14025
31
-42.27893
12
-19.71264
22
-50.25360
32
-36.83251
13
-19.71264
23
-50.25360
33
-36.83251
0
3DFACE
8
Sph_re0
62
1
10
-19.71264
20
-50.25360
30
-36.83251
11
-25.04852
21
-48.59716
31
-36.83251
12
-19.37200
22
-48.59716
32
-42.27893
13
-19.37200
23
-48.59716
33
-42.27893
0
3DFACE
8
Sph_re0
62
1
10
-24.39044
20
-47.03942
30
-42.27893
11
-19.37200
21
-48.59716
31
-42.27893
12
-25.04852
22
-48.59716
32
-36.83251
13
-25.04852
23
-48.59716
33
-36.83251
0
3DFACE
8
Sph_re0
62
1
10
-25.27783
20
-49.14025
30
-30.98468
11
-30.20672
21
-46.46520
31
-30.98468
12
-25.04852
22
-48.59716
32
-36.83251
13
-25.04852
23
-48.59716
33
-36.83251
0
3DFACE
8
Sph_re0
62
1
10
-29.87713
20
-45.97644
30
-36.83251
11
-25.04852
21
-48.59716
31
-36.83251
12
-30.20672
22
-46.46520
32
-30.98468
13
-30.20672
23
-46.46520
33
-30.98468
0
3DFACE
8
Sph_re0
62
1
10
-30.20672
20
-46.46520
30
-30.98468
11
-34.50067
21
-42.92199
31
-30.98468
12
-29.87713
22
-45.97644
32
-36.83251
13
-29.87713
23
-45.97644
33
-36.83251
0
3DFACE
8
Sph_re0
62
1
10
-34.08392
20
-42.50524
30
-36.83251
11
-29.87713
21
-45.97644
31
-36.83251
12
-34.50067
22
-42.92199
32
-30.98468
13
-34.50067
23
-42.92199
33
-30.98468
0
3DFACE
8
Sph_re0
62
1
10
-25.04852
20
-48.59716
30
-36.83251
11
-29.87713
21
-45.97644
31
-36.83251
12
-24.39044
22
-47.03942
32
-42.27893
13
-24.39044
23
-47.03942
33
-42.27893
0
3DFACE
8
Sph_re0
62
1
10
-28.93188
20
-44.57458
30
-42.27893
11
-24.39044
21
-47.03942
31
-42.27893
12
-29.87713
22
-45.97644
32
-36.83251
13
-29.87713
23
-45.97644
33
-36.83251
0
3DFACE
8
Sph_re0
62
1
10
-29.87713
20
-45.97644
30
-36.83251
11
-34.08392
21
-42.50524
31
-36.83251
12
-28.93188
22
-44.57458
32
-42.27893
13
-28.93188
23
-44.57458
33
-42.27893
0
3DFACE
8
Sph_re0
62
1
10
-32.88848
20
-41.30981
30
-42.27893
11
-28.93188
21
-44.57458
31
-42.27893
12
-34.08392
22
-42.50524
32
-36.83251
13
-34.08392
23
-42.50524
33
-36.83251
0
3DFACE
8
Sph_re0
62
1
10
-13.98358
20
-49.14025
30
-42.27893
11
-19.37200
21
-48.59716
31
-42.27893
12
-13.98358
22
-46.46520
32
-47.20782
13
-13.98358
23
-46.46520
33
-47.20782
0
3DFACE
8
Sph_re0
62
1
10
-18.83294
20
-45.97656
30
-47.20782
11
-13.98358
21
-46.46520
31
-47.20782
12
-19.37200
22
-48.59716
32
-42.27893
13
-19.37200
23
-48.59716
33
-42.27893
0
3DFACE
8
Sph_re0
62
1
10
-13.98358
20
-46.46520
30
-47.20782
11
-18.83294
21
-45.97656
31
-47.20782
12
-13.98358
22
-42.92199
32
-51.50177
13
-13.98358
23
-42.92199
33
-51.50177
0
3DFACE
8
Sph_re0
62
1
10
-18.11877
20
-42.50524
30
-51.50177
11
-13.98358
21
-42.92199
31
-51.50177
12
-18.83294
22
-45.97656
32
-47.20782
13
-18.83294
23
-45.97656
33
-47.20782
0
3DFACE
8
Sph_re0
62
1
10
-19.37200
20
-48.59716
30
-42.27893
11
-24.39044
21
-47.03942
31
-42.27893
12
-18.83294
22
-45.97656
32
-47.20782
13
-18.83294
23
-45.97656
33
-47.20782
0
3DFACE
8
Sph_re0
62
1
10
-23.34930
20
-44.57458
30
-47.20782
11
-18.83294
21
-45.97656
31
-47.20782
12
-24.39044
22
-47.03942
32
-42.27893
13
-24.39044
23
-47.03942
33
-42.27893
0
3DFACE
8
Sph_re0
62
1
10
-18.83294
20
-45.97656
30
-47.20782
11
-23.34930
21
-44.57458
31
-47.20782
12
-18.11877
22
-42.50524
32
-51.50177
13
-18.11877
23
-42.50524
33
-51.50177
0
3DFACE
8
Sph_re0
62
1
10
-21.97003
20
-41.30981
30
-51.50177
11
-18.11877
21
-42.50524
31
-51.50177
12
-23.34930
22
-44.57458
32
-47.20782
13
-23.34930
23
-44.57458
33
-47.20782
0
3DFACE
8
Sph_re0
62
1
10
-24.39044
20
-47.03942
30
-42.27893
11
-28.93188
21
-44.57458
31
-42.27893
12
-23.34930
22
-44.57458
32
-47.20782
13
-23.34930
23
-44.57458
33
-47.20782
0
3DFACE
8
Sph_re0
62
1
10
-27.43634
20
-42.35644
30
-47.20782
11
-23.34930
21
-44.57458
31
-47.20782
12
-28.93188
22
-44.57458
32
-42.27893
13
-28.93188
23
-44.57458
33
-42.27893
0
3DFACE
8
Sph_re0
62
1
10
-28.93188
20
-44.57458
30
-42.27893
11
-32.88848
21
-41.30981
31
-42.27893
12
-27.43634
22
-42.35644
32
-47.20782
13
-27.43634
23
-42.35644
33
-47.20782
0
3DFACE
8
Sph_re0
62
1
10
-30.99700
20
-39.41833
30
-47.20782
11
-27.43634
21
-42.35644
31
-47.20782
12
-32.88848
22
-41.30981
32
-42.27893
13
-32.88848
23
-41.30981
33
-42.27893
0
3DFACE
8
Sph_re0
62
1
10
-23.34930
20
-44.57458
30
-47.20782
11
-27.43634
21
-42.35644
31
-47.20782
12
-21.97003
22
-41.30981
32
-51.50177
13
-21.97003
23
-41.30981
33
-51.50177
0
3DFACE
8
Sph_re0
62
1
10
-25.45526
20
-39.41833
30
-51.50177
11
-21.97003
21
-41.30981
31
-51.50177
12
-27.43634
22
-42.35644
32
-47.20782
13
-27.43634
23
-42.35644
33
-47.20782
0
3DFACE
8
Sph_re0
62
1
10
-27.43634
20
-42.35644
30
-47.20782
11
-30.99700
21
-39.41833
31
-47.20782
12
-25.45526
22
-39.41833
32
-51.50177
13
-25.45526
23
-39.41833
33
-51.50177
0
3DFACE
8
Sph_re0
62
1
10
-28.49151
20
-36.91284
30
-51.50177
11
-25.45526
21
-39.41833
31
-51.50177
12
-30.99700
22
-39.41833
32
-47.20782
13
-30.99700
23
-39.41833
33
-47.20782
0
3DFACE
8
Sph_re0
62
1
10
-34.50067
20
-42.92199
30
-30.98468
11
-38.04388
21
-38.62805
31
-30.98468
12
-34.08392
22
-42.50524
32
-36.83251
13
-34.08392
23
-42.50524
33
-36.83251
0
3DFACE
8
Sph_re0
62
1
10
-37.55511
20
-38.29846
30
-36.83251
11
-34.08392
21
-42.50524
31
-36.83251
12
-38.04388
22
-38.62805
32
-30.98468
13
-38.04388
23
-38.62805
33
-30.98468
0
3DFACE
8
Sph_re0
62
1
10
-38.04388
20
-38.62805
30
-30.98468
11
-40.71893
21
-33.69915
31
-30.98468
12
-37.55511
22
-38.29846
32
-36.83251
13
-37.55511
23
-38.29846
33
-36.83251
0
3DFACE
8
Sph_re0
62
1
10
-40.17584
20
-33.46984
30
-36.83251
11
-37.55511
21
-38.29846
31
-36.83251
12
-40.71893
22
-33.69915
32
-30.98468
13
-40.71893
23
-33.69915
33
-30.98468
0
3DFACE
8
Sph_re0
62
1
10
-34.08392
20
-42.50524
30
-36.83251
11
-37.55511
21
-38.29846
31
-36.83251
12
-32.88848
22
-41.30981
32
-42.27893
13
-32.88848
23
-41.30981
33
-42.27893
0
3DFACE
8
Sph_re0
62
1
10
-36.15325
20
-37.35321
30
-42.27893
11
-32.88848
21
-41.30981
31
-42.27893
12
-37.55511
22
-38.29846
32
-36.83251
13
-37.55511
23
-38.29846
33
-36.83251
0
3DFACE
8
Sph_re0
62
1
10
-37.55511
20
-38.29846
30
-36.83251
11
-40.17584
21
-33.46984
31
-36.83251
12
-36.15325
22
-37.35321
32
-42.27893
13
-36.15325
23
-37.35321
33
-42.27893
0
3DFACE
8
Sph_re0
62
1
10
-38.61810
20
-32.81176
30
-42.27893
11
-36.15325
21
-37.35321
31
-42.27893
12
-40.17584
22
-33.46984
32
-36.83251
13
-40.17584
23
-33.46984
33
-36.83251
0
3DFACE
8
Sph_re0
62
1
10
-40.71893
20
-33.69915
30
-30.98468
11
-42.40960
21
-28.25274
31
-30.98468
12
-40.17584
22
-33.46984
32
-36.83251
13
-40.17584
23
-33.46984
33
-36.83251
0
3DFACE
8
Sph_re0
62
1
10
-41.83227
20
-28.13397
30
-36.83251
11
-40.17584
21
-33.46984
31
-36.83251
12
-42.40960
22
-28.25274
32
-30.98468
13
-42.40960
23
-28.25274
33
-30.98468
0
3DFACE
8
Sph_re0
62
1
10
-42.40960
20
-28.25274
30
-30.98468
11
-42.99884
21
-22.40490
31
-30.98468
12
-41.83227
22
-28.13397
32
-36.83251
13
-41.83227
23
-28.13397
33
-36.83251
0
3DFACE
8
Sph_re0
62
1
10
-42.40960
20
-22.40490
30
-36.83251
11
-41.83227
21
-28.13397
31
-36.83251
12
-42.99884
22
-22.40490
32
-30.98468
13
-42.99884
23
-22.40490
33
-30.98468
0
3DFACE
8
Sph_re0
62
1
10
-40.17584
20
-33.46984
30
-36.83251
11
-41.83227
21
-28.13397
31
-36.83251
12
-38.61810
22
-32.81176
32
-42.27893
13
-38.61810
23
-32.81176
33
-42.27893
0
3DFACE
8
Sph_re0
62
1
10
-40.17584
20
-27.79333
30
-42.27893
11
-38.61810
21
-32.81176
31
-42.27893
12
-41.83227
22
-28.13397
32
-36.83251
13
-41.83227
23
-28.13397
33
-36.83251
0
3DFACE
8
Sph_re0
62
1
10
-41.83227
20
-28.13397
30
-36.83251
11
-42.40960
21
-22.40490
31
-36.83251
12
-40.17584
22
-27.79333
32
-42.27893
13
-40.17584
23
-27.79333
33
-42.27893
0
3DFACE
8
Sph_re0
62
1
10
-40.71893
20
-22.40490
30
-42.27893
11
-40.17584
21
-27.79333
31
-42.27893
12
-42.40960
22
-22.40490
32
-36.83251
13
-42.40960
23
-22.40490
33
-36.83251
0
3DFACE
8
Sph_re0
62
1
10
-32.88848
20
-41.30981
30
-42.27893
11
-36.15325
21
-37.35321
31
-42.27893
12
-30.99700
22
-39.41833
32
-47.20782
13
-30.99700
23
-39.41833
33
-47.20782
0
3DFACE
8
Sph_re0
62
1
10
-33.93511
20
-35.85766
30
-47.20782
11
-30.99700
21
-39.41833
31
-47.20782
12
-36.15325
22
-37.35321
32
-42.27893
13
-36.15325
23
-37.35321
33
-42.27893
0
3DFACE
8
Sph_re0
62
1
10
-36.15325
20
-37.35321
30
-42.27893
11
-38.61810
21
-32.81176
31
-42.27893
12
-33.93511
22
-35.85766
32
-47.20782
13
-33.93511
23
-35.85766
33
-47.20782
0
3DFACE
8
Sph_re0
62
1
10
-36.15325
20
-31.77062
30
-47.20782
11
-33.93511
21
-35.85766
31
-47.20782
12
-38.61810
22
-32.81176
32
-42.27893
13
-38.61810
23
-32.81176
33
-42.27893
0
3DFACE
8
Sph_re0
62
1
10
-30.99700
20
-39.41833
30
-47.20782
11
-33.93511
21
-35.85766
31
-47.20782
12
-28.49151
22
-36.91284
32
-51.50177
13
-28.49151
23
-36.91284
33
-51.50177
0
3DFACE
8
Sph_re0
62
1
10
-30.99700
20
-33.87658
30
-51.50177
11
-28.49151
21
-36.91284
31
-51.50177
12
-33.93511
22
-35.85766
32
-47.20782
13
-33.93511
23
-35.85766
33
-47.20782
0
3DFACE
8
Sph_re0
62
1
10
-33.93511
20
-35.85766
30
-47.20782
11
-36.15325
21
-31.77062
31
-47.20782
12
-30.99700
22
-33.87658
32
-51.50177
13
-30.99700
23
-33.87658
33
-51.50177
0
3DFACE
8
Sph_re0
62
1
10
-32.88848
20
-30.39135
30
-51.50177
11
-30.99700
21
-33.87658
31
-51.50177
12
-36.15325
22
-31.77062
32
-47.20782
13
-36.15325
23
-31.77062
33
-47.20782
0
3DFACE
8
Sph_re0
62
1
10
-38.61810
20
-32.81176
30
-42.27893
11
-40.17584
21
-27.79333
31
-42.27893
12
-36.15325
22
-31.77062
32
-47.20782
13
-36.15325
23
-31.77062
33
-47.20782
0
3DFACE
8
Sph_re0
62
1
10
-37.55523
20
-27.25427
30
-47.20782
11
-36.15325
21
-31.77062
31
-47.20782
12
-40.17584
22
-27.79333
32
-42.27893
13
-40.17584
23
-27.79333
33
-42.27893
0
3DFACE
8
Sph_re0
62
1
10
-36.15325
20
-31.77062
30
-47.20782
11
-37.55523
21
-27.25427
31
-47.20782
12
-32.88848
22
-30.39135
32
-51.50177
13
-32.88848
23
-30.39135
33
-51.50177
0
3DFACE
8
Sph_re0
62
1
10
-34.08392
20
-26.54010
30
-51.50177
11
-32.88848
21
-30.39135
31
-51.50177
12
-37.55523
22
-27.25427
32
-47.20782
13
-37.55523
23
-27.25427
33
-47.20782
0
3DFACE
8
Sph_re0
62
1
10
-40.17584
20
-27.79333
30
-42.27893
11
-40.71893
21
-22.40490
31
-42.27893
12
-37.55523
22
-27.25427
32
-47.20782
13
-37.55523
23
-27.25427
33
-47.20782
0
3DFACE
8
Sph_re0
62
1
10
-38.04388
20
-22.40490
30
-47.20782
11
-37.55523
21
-27.25427
31
-47.20782
12
-40.71893
22
-22.40490
32
-42.27893
13
-40.71893
23
-22.40490
33
-42.27893
0
3DFACE
8
Sph_re0
62
1
10
-37.55523
20
-27.25427
30
-47.20782
11
-38.04388
21
-22.40490
31
-47.20782
12
-34.08392
22
-26.54010
32
-51.50177
13
-34.08392
23
-26.54010
33
-51.50177
0
3DFACE
8
Sph_re0
62
1
10
-34.50067
20
-22.40490
30
-51.50177
11
-34.08392
21
-26.54010
31
-51.50177
12
-38.04388
22
-22.40490
32
-47.20782
13
-38.04388
23
-22.40490
33
-47.20782
0
3DFACE
8
Sph_re0
62
1
10
-13.98358
20
-42.92199
30
-51.50177
11
-18.11877
21
-42.50524
31
-51.50177
12
-13.98358
22
-38.62805
32
-55.04498
13
-13.98358
23
-38.62805
33
-55.04498
0
3DFACE
8
Sph_re0
62
1
10
-17.24365
20
-38.27178
30
-55.04498
11
-13.98358
21
-38.62805
31
-55.04498
12
-18.11877
22
-42.50524
32
-51.50177
13
-18.11877
23
-42.50524
33
-51.50177
0
3DFACE
8
Sph_re0
62
1
10
-18.11877
20
-42.50524
30
-51.50177
11
-21.97003
21
-41.30981
31
-51.50177
12
-17.24365
22
-38.27178
32
-55.04498
13
-17.24365
23
-38.27178
33
-55.04498
0
3DFACE
8
Sph_re0
62
1
10
-20.29864
20
-37.35321
30
-55.04498
11
-17.24365
21
-38.27178
31
-55.04498
12
-21.97003
22
-41.30981
32
-51.50177
13
-21.97003
23
-41.30981
33
-51.50177
0
3DFACE
8
Sph_re0
62
1
10
-13.98358
20
-38.62805
30
-55.04498
11
-17.24365
21
-38.27178
31
-55.04498
12
-13.98358
22
-33.69915
32
-57.72003
13
-13.98358
23
-33.69915
33
-57.72003
0
3DFACE
8
Sph_re0
62
1
10
-16.18194
20
-33.25555
30
-57.72003
11
-13.98358
21
-33.69915
31
-57.72003
12
-17.24365
22
-38.27178
32
-55.04498
13
-17.24365
23
-38.27178
33
-55.04498
0
3DFACE
8
Sph_re0
62
1
10
-17.24365
20
-38.27178
30
-55.04498
11
-20.29864
21
-37.35321
31
-55.04498
12
-16.18194
22
-33.25555
32
-57.72003
13
-16.18194
23
-33.25555
33
-57.72003
0
3DFACE
8
Sph_re0
62
1
10
-18.38012
20
-32.81176
30
-57.72003
11
-16.18194
21
-33.25555
31
-57.72003
12
-20.29864
22
-37.35321
32
-55.04498
13
-20.29864
23
-37.35321
33
-55.04498
0
3DFACE
8
Sph_re0
62
1
10
-21.97003
20
-41.30981
30
-51.50177
11
-25.45526
21
-39.41833
31
-51.50177
12
-20.29864
22
-37.35321
32
-55.04498
13
-20.29864
23
-37.35321
33
-55.04498
0
3DFACE
8
Sph_re0
62
1
10
-23.03894
20
-35.83642
30
-55.04498
11
-20.29864
21
-37.35321
31
-55.04498
12
-25.45526
22
-39.41833
32
-51.50177
13
-25.45526
23
-39.41833
33
-51.50177
0
3DFACE
8
Sph_re0
62
1
10
-25.45526
20
-39.41833
30
-51.50177
11
-28.49151
21
-36.91284
31
-51.50177
12
-23.03894
22
-35.83642
32
-55.04498
13
-23.03894
23
-35.83642
33
-55.04498
0
3DFACE
8
Sph_re0
62
1
10
-25.45526
20
-33.87658
30
-55.04498
11
-23.03894
21
-35.83642
31
-55.04498
12
-28.49151
22
-36.91284
32
-51.50177
13
-28.49151
23
-36.91284
33
-51.50177
0
3DFACE
8
Sph_re0
62
1
10
-20.29864
20
-37.35321
30
-55.04498
11
-23.03894
21
-35.83642
31
-55.04498
12
-18.38012
22
-32.81176
32
-57.72003
13
-18.38012
23
-32.81176
33
-57.72003
0
3DFACE
8
Sph_re0
62
1
10
-20.17517
20
-31.60180
30
-57.72003
11
-18.38012
21
-32.81176
31
-57.72003
12
-23.03894
22
-35.83642
32
-55.04498
13
-23.03894
23
-35.83642
33
-55.04498
0
3DFACE
8
Sph_re0
62
1
10
-23.03894
20
-35.83642
30
-55.04498
11
-25.45526
21
-33.87658
31
-55.04498
12
-20.17517
22
-31.60180
32
-57.72003
13
-20.17517
23
-31.60180
33
-57.72003
0
3DFACE
8
Sph_re0
62
1
10
-21.97003
20
-30.39135
30
-57.72003
11
-20.17517
21
-31.60180
31
-57.72003
12
-25.45526
22
-33.87658
32
-55.04498
13
-25.45526
23
-33.87658
33
-55.04498
0
3DFACE
8
Sph_re0
62
1
10
-28.49151
20
-36.91284
30
-51.50177
11
-30.99700
21
-33.87658
31
-51.50177
12
-25.45526
22
-33.87658
32
-55.04498
13
-25.45526
23
-33.87658
33
-55.04498
0
3DFACE
8
Sph_re0
62
1
10
-27.41510
20
-31.46026
30
-55.04498
11
-25.45526
21
-33.87658
31
-55.04498
12
-30.99700
22
-33.87658
32
-51.50177
13
-30.99700
23
-33.87658
33
-51.50177
0
3DFACE
8
Sph_re0
62
1
10
-30.99700
20
-33.87658
30
-51.50177
11
-32.88848
21
-30.39135
31
-51.50177
12
-27.41510
22
-31.46026
32
-55.04498
13
-27.41510
23
-31.46026
33
-55.04498
0
3DFACE
8
Sph_re0
62
1
10
-28.93188
20
-28.71997
30
-55.04498
11
-27.41510
21
-31.46026
31
-55.04498
12
-32.88848
22
-30.39135
32
-51.50177
13
-32.88848
23
-30.39135
33
-51.50177
0
3DFACE
8
Sph_re0
62
1
10
-25.45526
20
-33.87658
30
-55.04498
11
-27.41510
21
-31.46026
31
-55.04498
12
-21.97003
22
-30.39135
32
-57.72003
13
-21.97003
23
-30.39135
33
-57.72003
0
3DFACE
8
Sph_re0
62
1
10
-23.18048
20
-28.59649
30
-57.72003
11
-21.97003
21
-30.39135
31
-57.72003
12
-27.41510
22
-31.46026
32
-55.04498
13
-27.41510
23
-31.46026
33
-55.04498
0
3DFACE
8
Sph_re0
62
1
10
-27.41510
20
-31.46026
30
-55.04498
11
-28.93188
21
-28.71997
31
-55.04498
12
-23.18048
22
-28.59649
32
-57.72003
13
-23.18048
23
-28.59649
33
-57.72003
0
3DFACE
8
Sph_re0
62
1
10
-24.39044
20
-26.80145
30
-57.72003
11
-23.18048
21
-28.59649
31
-57.72003
12
-28.93188
22
-28.71997
32
-55.04498
13
-28.93188
23
-28.71997
33
-55.04498
0
3DFACE
8
Sph_re0
62
1
10
-32.88848
20
-30.39135
30
-51.50177
11
-34.08392
21
-26.54010
31
-51.50177
12
-28.93188
22
-28.71997
32
-55.04498
13
-28.93188
23
-28.71997
33
-55.04498
0
3DFACE
8
Sph_re0
62
1
10
-29.85046
20
-25.66497
30
-55.04498
11
-28.93188
21
-28.71997
31
-55.04498
12
-34.08392
22
-26.54010
32
-51.50177
13
-34.08392
23
-26.54010
33
-51.50177
0
3DFACE
8
Sph_re0
62
1
10
-34.08392
20
-26.54010
30
-51.50177
11
-34.50067
21
-22.40490
31
-51.50177
12
-29.85046
22
-25.66497
32
-55.04498
13
-29.85046
23
-25.66497
33
-55.04498
0
3DFACE
8
Sph_re0
62
1
10
-30.20672
20
-22.40490
30
-55.04498
11
-29.85046
21
-25.66497
31
-55.04498
12
-34.50067
22
-22.40490
32
-51.50177
13
-34.50067
23
-22.40490
33
-51.50177
0
3DFACE
8
Sph_re0
62
1
10
-28.93188
20
-28.71997
30
-55.04498
11
-29.85046
21
-25.66497
31
-55.04498
12
-24.39044
22
-26.80145
32
-57.72003
13
-24.39044
23
-26.80145
33
-57.72003
0
3DFACE
8
Sph_re0
62
1
10
-24.83422
20
-24.60327
30
-57.72003
11
-24.39044
21
-26.80145
31
-57.72003
12
-29.85046
22
-25.66497
32
-55.04498
13
-29.85046
23
-25.66497
33
-55.04498
0
3DFACE
8
Sph_re0
62
1
10
-29.85046
20
-25.66497
30
-55.04498
11
-30.20672
21
-22.40490
31
-55.04498
12
-24.83422
22
-24.60327
32
-57.72003
13
-24.83422
23
-24.60327
33
-57.72003
0
3DFACE
8
Sph_re0
62
1
10
-25.27783
20
-22.40490
30
-57.72003
11
-24.83422
21
-24.60327
31
-57.72003
12
-30.20672
22
-22.40490
32
-55.04498
13
-30.20672
23
-22.40490
33
-55.04498
0
3DFACE
8
Sph_re0
62
1
10
-13.98358
20
-33.69915
30
-57.72003
11
-18.38012
21
-32.81176
31
-57.72003
12
-13.98358
22
-28.25274
32
-59.41070
13
-13.98358
23
-28.25274
33
-59.41070
0
3DFACE
8
Sph_re0
62
1
10
-16.26000
20
-27.79333
30
-59.41070
11
-13.98358
21
-28.25274
31
-59.41070
12
-18.38012
22
-32.81176
32
-57.72003
13
-18.38012
23
-32.81176
33
-57.72003
0
3DFACE
8
Sph_re0
62
1
10
-18.38012
20
-32.81176
30
-57.72003
11
-21.97003
21
-30.39135
31
-57.72003
12
-16.26000
22
-27.79333
32
-59.41070
13
-16.26000
23
-27.79333
33
-59.41070
0
3DFACE
8
Sph_re0
62
1
10
-18.11877
20
-26.54010
30
-59.41070
11
-16.26000
21
-27.79333
31
-59.41070
12
-21.97003
22
-30.39135
32
-57.72003
13
-21.97003
23
-30.39135
33
-57.72003
0
3DFACE
8
Sph_re0
62
1
10
-21.97003
20
-30.39135
30
-57.72003
11
-24.39044
21
-26.80145
31
-57.72003
12
-18.11877
22
-26.54010
32
-59.41070
13
-18.11877
23
-26.54010
33
-59.41070
0
3DFACE
8
Sph_re0
62
1
10
-19.37200
20
-24.68133
30
-59.41070
11
-18.11877
21
-26.54010
31
-59.41070
12
-24.39044
22
-26.80145
32
-57.72003
13
-24.39044
23
-26.80145
33
-57.72003
0
3DFACE
8
Sph_re0
62
1
10
-24.39044
20
-26.80145
30
-57.72003
11
-25.27783
21
-22.40490
31
-57.72003
12
-19.37200
22
-24.68133
32
-59.41070
13
-19.37200
23
-24.68133
33
-59.41070
0
3DFACE
8
Sph_re0
62
1
10
-19.83142
20
-22.40490
30
-59.41070
11
-19.37200
21
-24.68133
31
-59.41070
12
-25.27783
22
-22.40490
32
-57.72003
13
-25.27783
23
-22.40490
33
-57.72003
0
3DFACE
8
Sph_re0
62
1
10
-13.98358
20
-28.25274
30
-59.41070
11
-16.26000
21
-27.79333
31
-59.41070
12
-13.98358
22
-22.40490
32
-59.99993
13
-13.98358
23
-22.40490
33
-59.99993
0
3DFACE
8
Sph_re0
62
1
10
-13.98358
20
-22.40490
30
-59.99993
11
-13.98358
21
-22.40490
31
-59.99993
12
-16.26000
22
-27.79333
32
-59.41070
13
-16.26000
23
-27.79333
33
-59.41070
0
3DFACE
8
Sph_re0
62
1
10
-16.26000
20
-27.79333
30
-59.41070
11
-18.11877
21
-26.54010
31
-59.41070
12
-13.98358
22
-22.40490
32
-59.99993
13
-13.98358
23
-22.40490
33
-59.99993
0
3DFACE
8
Sph_re0
62
1
10
-13.98358
20
-22.40490
30
-59.99993
11
-13.98358
21
-22.40490
31
-59.99993
12
-18.11877
22
-26.54010
32
-59.41070
13
-18.11877
23
-26.54010
33
-59.41070
0
3DFACE
8
Sph_re0
62
1
10
-18.11877
20
-26.54010
30
-59.41070
11
-19.37200
21
-24.68133
31
-59.41070
12
-13.98358
22
-22.40490
32
-59.99993
13
-13.98358
23
-22.40490
33
-59.99993
0
3DFACE
8
Sph_re0
62
1
10
-13.98358
20
-22.40490
30
-59.99993
11
-13.98358
21
-22.40490
31
-59.99993
12
-19.37200
22
-24.68133
32
-59.41070
13
-19.37200
23
-24.68133
33
-59.41070
0
3DFACE
8
Sph_re0
62
1
10
-19.37200
20
-24.68133
30
-59.41070
11
-19.83142
21
-22.40490
31
-59.41070
12
-13.98358
22
-22.40490
32
-59.99993
13
-13.98358
23
-22.40490
33
-59.99993
0
3DFACE
8
Sph_re0
62
1
10
-13.98358
20
-22.40490
30
-59.99993
11
-13.98358
21
-22.40490
31
-59.99993
12
-19.83142
22
-22.40490
32
-59.41070
13
-19.83142
23
-22.40490
33
-59.41070
0
ENDSEC
0
EOF
