  0
SECTION
  2
ENTITIES
  0
3DFACE
  8
0main
 10
11.0138
 20
105.548
 30
37.6244
 11
-3.35342
 21
87.4571
 31
37.6244
 12
9.08547
 22
82.1887
 32
37.6244
 13
9.08547
 23
82.1887
 33
37.6244
 0
3DFACE
  8
0main
 10
11.8771
 20
80.4641
 30
37.6244
 11
11.0138
 21
105.548
 31
37.6244
 12
9.08547
 22
82.1887
 32
37.6244
 13
9.08547
 23
82.1887
 33
37.6244
 0
3DFACE
  8
0main
 10
20.0095
 20
101.11
 30
37.6244
 11
11.0138
 21
105.548
 31
37.6244
 12
11.8771
 22
80.4641
 32
37.6244
 13
11.8771
 23
80.4641
 33
37.6244
 0
3DFACE
  8
0main
 10
21.9187
 20
71.9546
 30
37.6244
 11
20.0095
 21
101.11
 31
37.6244
 12
11.8771
 22
80.4641
 32
37.6244
 13
11.8771
 23
80.4641
 33
37.6244
 0
3DFACE
  8
0main
 10
24.2988
 20
69.2135
 30
37.6244
 11
20.0095
 21
101.11
 31
37.6244
 12
21.9187
 22
71.9546
 32
37.6244
 13
21.9187
 23
71.9546
 33
37.6244
 0
3DFACE
  8
0main
 10
25.5957
 20
97.5554
 30
37.6244
 11
20.0095
 21
101.11
 31
37.6244
 12
24.2988
 22
69.2135
 32
37.6244
 13
24.2988
 23
69.2135
 33
37.6244
 0
3DFACE
  8
0main
 10
35.9389
 20
88.8866
 30
37.6244
 11
25.5957
 21
97.5554
 31
37.6244
 12
24.2988
 22
69.2135
 32
37.6244
 13
24.2988
 23
69.2135
 33
37.6244
 0
3DFACE
  8
0main
 10
38.1189
 20
86.6155
 30
37.6244
 11
35.9389
 21
88.8866
 31
37.6244
 12
24.2988
 22
69.2135
 32
37.6244
 13
24.2988
 23
69.2135
 33
37.6244
 0
3DFACE
  8
0main
 10
-3.35342
 20
87.4571
 30
70.6244
 11
-3.35342
 21
87.4571
 31
37.6244
 12
11.0138
 22
105.548
 32
37.6244
 13
11.0138
 23
105.548
 33
70.6244
 0
3DFACE
  8
0main
 10
38.1189
 20
86.6155
 30
37.6244
 11
24.2988
 21
69.2135
 31
37.6244
 12
24.2988
 22
69.2135
 32
70.6244
 13
38.1189
 23
86.6155
 33
70.6244
 0
3DFACE
  8
0main
 10
-73.451
 20
37.123
 30
37.6244
 11
-73.5135
 21
34.5002
 31
37.6244
 12
-73.5135
 22
34.5002
 32
-80.4561
 13
-73.5135
 23
34.5002
 33
-80.4561
 0
3DFACE
  8
0main
 10
-71.0671
 20
50.7312
 30
37.6244
 11
-73.451
 21
37.123
 31
37.6244
 12
-73.5135
 22
34.5002
 32
-80.4561
 13
-73.5135
 23
34.5002
 33
-80.4561
 0
3DFACE
  8
0main
 10
-71.0671
 20
50.7312
 30
-80.4561
 11
-71.0671
 21
50.7312
 31
37.6244
 12
-73.5135
 22
34.5002
 32
-80.4561
 13
-73.5135
 23
34.5002
 33
-80.4561
 0
3DFACE
  8
0main
 10
-71.7046
 20
20.5022
 30
37.6244
 11
-71.0671
 21
18.2692
 31
70.6244
 12
-71.0671
 22
18.2692
 32
-80.4561
 13
-71.0671
 23
18.2692
 33
-80.4561
 0
3DFACE
  8
0main
 10
-71.7046
 20
20.5022
 30
70.6244
 11
-71.0671
 21
18.2692
 31
70.6244
 12
-71.7046
 22
20.5022
 32
37.6244
 13
-71.7046
 23
20.5022
 33
37.6244
 0
3DFACE
  8
0main
 10
-73.5135
 20
34.5002
 30
37.6244
 11
-71.7046
 21
20.5022
 31
37.6244
 12
-71.0671
 22
18.2692
 32
-80.4561
 13
-71.0671
 23
18.2692
 33
-80.4561
 0
3DFACE
  8
0main
 10
-73.5135
 20
34.5002
 30
-80.4561
 11
-73.5135
 21
34.5002
 31
37.6244
 12
-71.0671
 22
18.2692
 32
-80.4561
 13
-71.0671
 23
18.2692
 33
-80.4561
 0
3DFACE
  8
0main
 10
-67.5251
 20
9.52699
 30
70.6244
 11
-63.9452
 21
3.4804
 31
70.6244
 12
-63.9452
 22
3.4804
 32
-80.4561
 13
-63.9452
 23
3.4804
 33
-80.4561
 0
3DFACE
  8
0main
 10
-71.0671
 20
18.2692
 30
70.6244
 11
-67.5251
 21
9.52699
 31
70.6244
 12
-63.9452
 22
3.4804
 32
-80.4561
 13
-63.9452
 23
3.4804
 33
-80.4561
 0
3DFACE
  8
0main
 10
-71.0671
 20
18.2692
 30
-80.4561
 11
-71.0671
 21
18.2692
 31
70.6244
 12
-63.9452
 22
3.4804
 32
-80.4561
 13
-63.9452
 23
3.4804
 33
-80.4561
 0
3DFACE
  8
0main
 10
-61.1132
 20
-0.312279
 30
37.6244
 11
-52.7806
 21
-8.55215
 31
37.6244
 12
-52.7806
 22
-8.55215
 32
-80.4561
 13
-52.7806
 23
-8.55215
 33
-80.4561
 0
3DFACE
  8
0main
 10
-63.9452
 20
3.4804
 30
70.6244
 11
-61.1132
 21
-0.312279
 31
37.6244
 12
-52.7806
 22
-8.55215
 32
-80.4561
 13
-52.7806
 23
-8.55215
 33
-80.4561
 0
3DFACE
  8
0main
 10
-63.9452
 20
3.4804
 30
70.6244
 11
-61.1132
 21
-0.312279
 31
70.6244
 12
-61.1132
 22
-0.312279
 32
37.6244
 13
-61.1132
 23
-0.312279
 33
37.6244
 0
3DFACE
  8
0main
 10
-63.9452
 20
3.4804
 30
-80.4561
 11
-63.9452
 21
3.4804
 31
70.6244
 12
-52.7806
 22
-8.55215
 32
-80.4561
 13
-52.7806
 23
-8.55215
 33
-80.4561
 0
3DFACE
  8
0main
 10
-52.7806
 20
-8.55215
 30
37.6244
 11
-38.5654
 21
-16.7593
 31
-80.4561
 12
-52.7806
 22
-8.55215
 32
-80.4561
 13
-52.7806
 23
-8.55215
 33
-80.4561
 0
3DFACE
  8
0main
 10
-48.6969
 20
-11.5133
 30
37.6244
 11
-38.5654
 21
-16.7593
 31
-80.4561
 12
-52.7806
 22
-8.55215
 32
37.6244
 13
-52.7806
 23
-8.55215
 33
37.6244
 0
3DFACE
  8
0main
 10
-38.5654
 20
-16.7593
 30
37.6244
 11
-38.5654
 21
-16.7593
 31
-80.4561
 12
-48.6969
 22
-11.5133
 32
37.6244
 13
-48.6969
 23
-11.5133
 33
37.6244
 0
3DFACE
  8
0main
 10
-38.5654
 20
-16.7593
 30
37.6244
 11
-22.5626
 21
-20.4118
 31
-80.4561
 12
-38.5654
 22
-16.7593
 32
-80.4561
 13
-38.5654
 23
-16.7593
 33
-80.4561
 0
3DFACE
  8
0main
 10
-33.4911
 20
-18.4711
 30
37.6244
 11
-22.5626
 21
-20.4118
 31
-80.4561
 12
-38.5654
 22
-16.7593
 32
37.6244
 13
-38.5654
 23
-16.7593
 33
37.6244
 0
3DFACE
  8
0main
 10
-22.5626
 20
-20.4118
 30
70.6244
 11
-22.5626
 21
-20.4118
 31
-80.4561
 12
-33.4911
 22
-18.4711
 32
37.6244
 13
-33.4911
 23
-18.4711
 33
37.6244
 0
3DFACE
  8
0main
 10
-33.4911
 20
-18.4711
 30
70.6244
 11
-22.5626
 21
-20.4118
 31
70.6244
 12
-33.4911
 22
-18.4711
 32
37.6244
 13
-33.4911
 23
-18.4711
 33
37.6244
 0
3DFACE
  8
0main
 10
-6.19419
 20
-19.1852
 30
37.6244
 11
-6.19419
 21
-19.1852
 31
-80.4561
 12
-22.5626
 22
-20.4118
 32
-80.4561
 13
-22.5626
 23
-20.4118
 33
-80.4561
 0
3DFACE
  8
0main
 10
-7.81301
 20
-19.5292
 30
37.6244
 11
-6.19419
 21
-19.1852
 31
37.6244
 12
-22.5626
 22
-20.4118
 32
-80.4561
 13
-22.5626
 23
-20.4118
 33
-80.4561
 0
3DFACE
  8
0main
 10
-22.5626
 20
-20.4118
 30
70.6244
 11
-7.81301
 21
-19.5292
 31
37.6244
 12
-22.5626
 22
-20.4118
 32
-80.4561
 13
-22.5626
 23
-20.4118
 33
-80.4561
 0
3DFACE
  8
0main
 10
-20.7147
 20
-20.5191
 30
70.6244
 11
-7.81301
 21
-19.5292
 31
37.6244
 12
-22.5626
 22
-20.4118
 32
70.6244
 13
-22.5626
 23
-20.4118
 33
70.6244
 0
3DFACE
  8
0main
 10
-7.81301
 20
-19.5292
 30
70.6244
 11
-7.81301
 21
-19.5292
 31
37.6244
 12
-20.7147
 22
-20.5191
 32
70.6244
 13
-20.7147
 23
-20.5191
 33
70.6244
 0
3DFACE
  8
0main
 10
-6.19419
 20
-19.1852
 30
37.6244
 11
9.08547
 21
-13.1884
 31
-80.4561
 12
-6.19419
 22
-19.1852
 32
-80.4561
 13
-6.19419
 23
-19.1852
 33
-80.4561
 0
3DFACE
  8
0main
 10
7.9091
 20
-13.8485
 30
37.6244
 11
9.08547
 21
-13.1884
 31
-80.4561
 12
-6.19419
 22
-19.1852
 32
37.6244
 13
-6.19419
 23
-19.1852
 33
37.6244
 0
3DFACE
  8
0main
 10
9.08547
 20
-13.1884
 30
37.6244
 11
9.08547
 21
-13.1884
 31
-80.4561
 12
7.9091
 22
-13.8485
 32
37.6244
 13
7.9091
 23
-13.8485
 33
37.6244
 0
3DFACE
  8
0main
 10
9.08547
 20
-13.1884
 30
37.6244
 11
21.9187
 21
-2.95421
 31
-80.4561
 12
9.08547
 22
-13.1884
 32
-80.4561
 13
9.08547
 23
-13.1884
 33
-80.4561
 0
3DFACE
  8
0main
 10
21.2022
 20
-3.71193
 30
37.6244
 11
21.9187
 21
-2.95421
 31
-80.4561
 12
9.08547
 22
-13.1884
 32
37.6244
 13
9.08547
 23
-13.1884
 33
37.6244
 0
3DFACE
  8
0main
 10
21.9187
 20
-2.95421
 30
70.6244
 11
21.9187
 21
-2.95421
 31
-80.4561
 12
21.2022
 22
-3.71193
 32
37.6244
 13
21.2022
 23
-3.71193
 33
37.6244
 0
3DFACE
  8
0main
 10
21.2022
 20
-3.71193
 30
70.6244
 11
21.9187
 21
-2.95421
 31
70.6244
 12
21.2022
 22
-3.71193
 32
37.6244
 13
21.2022
 23
-3.71193
 33
37.6244
 0
3DFACE
  8
0main
 10
21.9187
 20
-2.95421
 30
70.6244
 11
31.1652
 21
10.6079
 31
-80.4561
 12
21.9187
 22
-2.95421
 32
-80.4561
 13
21.9187
 23
-2.95421
 33
-80.4561
 0
3DFACE
  8
0main
 10
29.2183
 20
6.92792
 30
70.6244
 11
31.1652
 21
10.6079
 31
-80.4561
 12
21.9187
 22
-2.95421
 32
70.6244
 13
21.9187
 23
-2.95421
 33
70.6244
 0
3DFACE
  8
0main
 10
31.1652
 20
10.6079
 30
70.6244
 11
31.1652
 21
10.6079
 31
-80.4561
 12
29.2183
 22
6.92792
 32
70.6244
 13
29.2183
 23
6.92792
 33
70.6244
 0
3DFACE
  8
0main
 10
36.0034
 20
26.293
 30
37.6244
 11
36.0034
 21
26.293
 31
-80.4561
 12
31.1652
 22
10.6079
 32
-80.4561
 13
31.1652
 23
10.6079
 33
-80.4561
 0
3DFACE
  8
0main
 10
34.4448
 20
19.1814
 30
37.6244
 11
36.0034
 21
26.293
 31
37.6244
 12
31.1652
 22
10.6079
 32
-80.4561
 13
31.1652
 23
10.6079
 33
-80.4561
 0
3DFACE
  8
0main
 10
34.4448
 20
19.1814
 30
70.6244
 11
34.4448
 21
19.1814
 31
37.6244
 12
31.1652
 22
10.6079
 32
-80.4561
 13
31.1652
 23
10.6079
 33
-80.4561
 0
3DFACE
  8
0main
 10
31.1652
 20
10.6079
 30
70.6244
 11
34.4448
 21
19.1814
 31
70.6244
 12
31.1652
 22
10.6079
 32
-80.4561
 13
31.1652
 23
10.6079
 33
-80.4561
 0
3DFACE
  8
0main
 10
36.0034
 20
26.293
 30
37.6244
 11
36.0034
 21
42.7073
 31
-80.4561
 12
36.0034
 22
26.293
 32
-80.4561
 13
36.0034
 23
26.293
 33
-80.4561
 0
3DFACE
  8
0main
 10
36.6046
 20
35.7384
 30
37.6244
 11
36.0034
 21
42.7073
 31
-80.4561
 12
36.0034
 22
26.293
 32
37.6244
 13
36.0034
 23
26.293
 33
37.6244
 0
3DFACE
  8
0main
 10
36.0034
 20
42.7073
 30
37.6244
 11
36.0034
 21
42.7073
 31
-80.4561
 12
36.6046
 22
35.7384
 32
37.6244
 13
36.6046
 23
35.7384
 33
37.6244
 0
3DFACE
  8
0main
 10
36.0034
 20
42.7073
 30
37.6244
 11
31.1652
 21
58.3924
 31
-80.4561
 12
36.0034
 22
42.7073
 32
-80.4561
 13
36.0034
 23
42.7073
 33
-80.4561
 0
3DFACE
  8
0main
 10
33.7026
 20
52.1814
 30
37.6244
 11
31.1652
 21
58.3924
 31
-80.4561
 12
36.0034
 22
42.7073
 32
37.6244
 13
36.0034
 23
42.7073
 33
37.6244
 0
3DFACE
  8
0main
 10
31.1652
 20
58.3924
 30
70.6244
 11
31.1652
 21
58.3924
 31
-80.4561
 12
33.7026
 22
52.1814
 32
37.6244
 13
33.7026
 23
52.1814
 33
37.6244
 0
3DFACE
  8
0main
 10
33.7026
 20
52.1814
 30
70.6244
 11
31.1652
 21
58.3924
 31
70.6244
 12
33.7026
 22
52.1814
 32
37.6244
 13
33.7026
 23
52.1814
 33
37.6244
 0
3DFACE
  8
0main
 10
21.9187
 20
71.9546
 30
37.6244
 11
21.9187
 21
71.9546
 31
-80.4561
 12
31.1652
 22
58.3924
 32
-80.4561
 13
31.1652
 23
58.3924
 33
-80.4561
 0
3DFACE
  8
0main
 10
24.2988
 20
69.2135
 30
37.6244
 11
21.9187
 21
71.9546
 31
37.6244
 12
31.1652
 22
58.3924
 32
-80.4561
 13
31.1652
 23
58.3924
 33
-80.4561
 0
3DFACE
  8
0main
 10
31.1652
 20
58.3924
 30
70.6244
 11
24.2988
 21
69.2135
 31
37.6244
 12
31.1652
 22
58.3924
 32
-80.4561
 13
31.1652
 23
58.3924
 33
-80.4561
 0
3DFACE
  8
0main
 10
29.7589
 20
61.1161
 30
70.6244
 11
24.2988
 21
69.2135
 31
37.6244
 12
31.1652
 22
58.3924
 32
70.6244
 13
31.1652
 23
58.3924
 33
70.6244
 0
3DFACE
  8
0main
 10
24.2988
 20
69.2135
 30
70.6244
 11
24.2988
 21
69.2135
 31
37.6244
 12
29.7589
 22
61.1161
 32
70.6244
 13
29.7589
 23
61.1161
 33
70.6244
 0
3DFACE
  8
0main
 10
11.8771
 20
80.4641
 30
37.6244
 11
9.08547
 21
82.1887
 31
37.6244
 12
9.08547
 22
82.1887
 32
-80.4561
 13
9.08547
 23
82.1887
 33
-80.4561
 0
3DFACE
  8
0main
 10
21.9187
 20
71.9546
 30
37.6244
 11
11.8771
 21
80.4641
 31
37.6244
 12
9.08547
 22
82.1887
 32
-80.4561
 13
9.08547
 23
82.1887
 33
-80.4561
 0
3DFACE
  8
0main
 10
21.9187
 20
71.9546
 30
-80.4561
 11
21.9187
 21
71.9546
 31
37.6244
 12
9.08547
 22
82.1887
 32
-80.4561
 13
9.08547
 23
82.1887
 33
-80.4561
 0
3DFACE
  8
0main
 10
-3.35342
 20
87.4571
 30
37.6244
 11
-6.19419
 21
88.1856
 31
70.6244
 12
-6.19419
 22
88.1856
 32
-80.4561
 13
-6.19419
 23
88.1856
 33
-80.4561
 0
3DFACE
  8
0main
 10
-3.35342
 20
87.4571
 30
70.6244
 11
-6.19419
 21
88.1856
 31
70.6244
 12
-3.35342
 22
87.4571
 32
37.6244
 13
-3.35342
 23
87.4571
 33
37.6244
 0
3DFACE
  8
0main
 10
9.08547
 20
82.1887
 30
37.6244
 11
-3.35342
 21
87.4571
 31
37.6244
 12
-6.19419
 22
88.1856
 32
-80.4561
 13
-6.19419
 23
88.1856
 33
-80.4561
 0
3DFACE
  8
0main
 10
9.08547
 20
82.1887
 30
-80.4561
 11
9.08547
 21
82.1887
 31
37.6244
 12
-6.19419
 22
88.1856
 32
-80.4561
 13
-6.19419
 23
88.1856
 33
-80.4561
 0
3DFACE
  8
0main
 10
-16.5725
 20
89.5343
 30
70.6244
 11
-22.5626
 21
89.4122
 31
70.6244
 12
-22.5626
 22
89.4122
 32
-80.4561
 13
-22.5626
 23
89.4122
 33
-80.4561
 0
3DFACE
  8
0main
 10
-6.19419
 20
88.1856
 30
70.6244
 11
-16.5725
 21
89.5343
 31
70.6244
 12
-22.5626
 22
89.4122
 32
-80.4561
 13
-22.5626
 23
89.4122
 33
-80.4561
 0
3DFACE
  8
0main
 10
-6.19419
 20
88.1856
 30
-80.4561
 11
-6.19419
 21
88.1856
 31
70.6244
 12
-22.5626
 22
89.4122
 32
-80.4561
 13
-22.5626
 23
89.4122
 33
-80.4561
 0
3DFACE
  8
0main
 10
-29.9024
 20
88.3616
 30
37.6244
 11
-38.5654
 21
85.7597
 31
37.6244
 12
-38.5654
 22
85.7597
 32
-80.4561
 13
-38.5654
 23
85.7597
 33
-80.4561
 0
3DFACE
  8
0main
 10
-22.5626
 20
89.4122
 30
70.6244
 11
-29.9024
 21
88.3616
 31
37.6244
 12
-38.5654
 22
85.7597
 32
-80.4561
 13
-38.5654
 23
85.7597
 33
-80.4561
 0
3DFACE
  8
0main
 10
-22.5626
 20
89.4122
 30
70.6244
 11
-29.9024
 21
88.3616
 31
70.6244
 12
-29.9024
 22
88.3616
 32
37.6244
 13
-29.9024
 23
88.3616
 33
37.6244
 0
3DFACE
  8
0main
 10
-22.5626
 20
89.4122
 30
-80.4561
 11
-22.5626
 21
89.4122
 31
70.6244
 12
-38.5654
 22
85.7597
 32
-80.4561
 13
-38.5654
 23
85.7597
 33
-80.4561
 0
3DFACE
  8
0main
 10
-45.5996
 20
82.4066
 30
37.6244
 11
-52.7806
 21
77.5525
 31
37.6244
 12
-52.7806
 22
77.5525
 32
-80.4561
 13
-52.7806
 23
77.5525
 33
-80.4561
 0
3DFACE
  8
0main
 10
-38.5654
 20
85.7597
 30
37.6244
 11
-45.5996
 21
82.4066
 31
37.6244
 12
-52.7806
 22
77.5525
 32
-80.4561
 13
-52.7806
 23
77.5525
 33
-80.4561
 0
3DFACE
  8
0main
 10
-38.5654
 20
85.7597
 30
-80.4561
 11
-38.5654
 21
85.7597
 31
37.6244
 12
-52.7806
 22
77.5525
 32
-80.4561
 13
-52.7806
 23
77.5525
 33
-80.4561
 0
3DFACE
  8
0main
 10
-58.7729
 20
71.9986
 30
37.6244
 11
-63.9452
 21
65.52
 31
70.6244
 12
-63.9452
 22
65.52
 32
-80.4561
 13
-63.9452
 23
65.52
 33
-80.4561
 0
3DFACE
  8
0main
 10
-58.7729
 20
71.9986
 30
70.6244
 11
-63.9452
 21
65.52
 31
70.6244
 12
-58.7729
 22
71.9986
 32
37.6244
 13
-58.7729
 23
71.9986
 33
37.6244
 0
3DFACE
  8
0main
 10
-52.7806
 20
77.5525
 30
37.6244
 11
-58.7729
 21
71.9986
 31
37.6244
 12
-63.9452
 22
65.52
 32
-80.4561
 13
-63.9452
 23
65.52
 33
-80.4561
 0
3DFACE
  8
0main
 10
-52.7806
 20
77.5525
 30
-80.4561
 11
-52.7806
 21
77.5525
 31
37.6244
 12
-63.9452
 22
65.52
 32
-80.4561
 13
-63.9452
 23
65.52
 33
-80.4561
 0
3DFACE
  8
0main
 10
-70.1311
 20
53.5022
 30
37.6244
 11
-71.0671
 21
50.7312
 31
37.6244
 12
-71.0671
 22
50.7312
 32
-80.4561
 13
-71.0671
 23
50.7312
 33
-80.4561
 0
3DFACE
  8
0main
 10
-65.3723
 20
63.3156
 30
70.6244
 11
-70.1311
 21
53.5022
 31
70.6244
 12
-70.1311
 22
53.5022
 32
37.6244
 13
-70.1311
 23
53.5022
 33
37.6244
 0
3DFACE
  8
0main
 10
-65.3723
 20
63.3156
 30
70.6244
 11
-70.1311
 21
53.5022
 31
37.6244
 12
-71.0671
 22
50.7312
 32
-80.4561
 13
-71.0671
 23
50.7312
 33
-80.4561
 0
3DFACE
  8
0main
 10
-63.9452
 20
65.52
 30
70.6244
 11
-65.3723
 21
63.3156
 31
70.6244
 12
-71.0671
 22
50.7312
 32
-80.4561
 13
-71.0671
 23
50.7312
 33
-80.4561
 0
3DFACE
  8
0main
 10
-63.9452
 20
65.52
 30
-80.4561
 11
-63.9452
 21
65.52
 31
70.6244
 12
-71.0671
 22
50.7312
 32
-80.4561
 13
-71.0671
 23
50.7312
 33
-80.4561
 0
3DFACE
  8
0main
 10
-29.9024
 20
88.3616
 30
70.6244
 11
-38.3543
 21
108.793
 31
70.6244
 12
-38.7365
 22
108.69
 32
70.6244
 13
-38.7365
 23
108.69
 33
70.6244
 0
3DFACE
  8
0main
 10
-22.5626
 20
89.4122
 30
70.6244
 11
-38.3543
 21
108.793
 31
70.6244
 12
-29.9024
 22
88.3616
 32
70.6244
 13
-29.9024
 23
88.3616
 33
70.6244
 0
3DFACE
  8
0main
 10
-22.0562
 20
111.329
 30
70.6244
 11
-38.3543
 21
108.793
 31
70.6244
 12
-22.5626
 22
89.4122
 32
70.6244
 13
-22.5626
 23
89.4122
 33
70.6244
 0
3DFACE
  8
0main
 10
-18.4475
 20
111.414
 30
70.6244
 11
-22.0562
 21
111.329
 31
70.6244
 12
-22.5626
 22
89.4122
 32
70.6244
 13
-22.5626
 23
89.4122
 33
70.6244
 0
3DFACE
  8
0main
 10
-16.5725
 20
89.5343
 30
70.6244
 11
-18.4475
 21
111.414
 31
70.6244
 12
-22.5626
 22
89.4122
 32
70.6244
 13
-22.5626
 23
89.4122
 33
70.6244
 0
3DFACE
  8
0main
 10
-6.19419
 20
88.1856
 30
70.6244
 11
-18.4475
 21
111.414
 31
70.6244
 12
-16.5725
 22
89.5343
 32
70.6244
 13
-16.5725
 23
89.5343
 33
70.6244
 0
3DFACE
  8
0main
 10
-5.2019
 20
110.265
 30
70.6244
 11
-18.4475
 21
111.414
 31
70.6244
 12
-6.19419
 22
88.1856
 32
70.6244
 13
-6.19419
 23
88.1856
 33
70.6244
 0
3DFACE
  8
0main
 10
-3.35342
 20
87.4571
 30
70.6244
 11
-5.2019
 21
110.265
 31
70.6244
 12
-6.19419
 22
88.1856
 32
70.6244
 13
-6.19419
 23
88.1856
 33
70.6244
 0
3DFACE
  8
0main
 10
1.45929
 20
108.793
 30
70.6244
 11
-5.2019
 21
110.265
 31
70.6244
 12
-3.35342
 22
87.4571
 32
70.6244
 13
-3.35342
 23
87.4571
 33
70.6244
 0
3DFACE
  8
0main
 10
11.0138
 20
105.548
 30
70.6244
 11
1.45929
 21
108.793
 31
70.6244
 12
-3.35342
 22
87.4571
 32
70.6244
 13
-3.35342
 23
87.4571
 33
70.6244
 0
3DFACE
  8
0main
 10
-56.9045
 20
101.11
 30
37.6244
 11
-68.0297
 21
93.2997
 31
37.6244
 12
-58.7729
 22
71.9986
 32
37.6244
 13
-58.7729
 23
71.9986
 33
37.6244
 0
3DFACE
  8
0main
 10
-54.2205
 20
102.589
 30
37.6244
 11
-56.9045
 21
101.11
 31
37.6244
 12
-58.7729
 22
71.9986
 32
37.6244
 13
-58.7729
 23
71.9986
 33
37.6244
 0
3DFACE
  8
0main
 10
-52.7806
 20
77.5525
 30
37.6244
 11
-54.2205
 21
102.589
 31
37.6244
 12
-58.7729
 22
71.9986
 32
37.6244
 13
-58.7729
 23
71.9986
 33
37.6244
 0
3DFACE
  8
0main
 10
-45.5996
 20
82.4066
 30
37.6244
 11
-54.2205
 21
102.589
 31
37.6244
 12
-52.7806
 22
77.5525
 32
37.6244
 13
-52.7806
 23
77.5525
 33
37.6244
 0
3DFACE
  8
0main
 10
-38.7365
 20
108.69
 30
37.6244
 11
-54.2205
 21
102.589
 31
37.6244
 12
-45.5996
 22
82.4066
 32
37.6244
 13
-45.5996
 23
82.4066
 33
37.6244
 0
3DFACE
  8
0main
 10
-38.5654
 20
85.7597
 30
37.6244
 11
-38.7365
 21
108.69
 31
37.6244
 12
-45.5996
 22
82.4066
 32
37.6244
 13
-45.5996
 23
82.4066
 33
37.6244
 0
3DFACE
  8
0main
 10
-29.9024
 20
88.3616
 30
37.6244
 11
-38.7365
 21
108.69
 31
37.6244
 12
-38.5654
 22
85.7597
 32
37.6244
 13
-38.5654
 23
85.7597
 33
37.6244
 0
3DFACE
  8
0main
 10
-38.7365
 20
108.69
 30
70.6244
 11
-38.7365
 21
108.69
 31
37.6244
 12
-29.9024
 22
88.3616
 32
37.6244
 13
-29.9024
 23
88.3616
 33
70.6244
 0
3DFACE
  8
0main
 10
-58.7729
 20
71.9986
 30
37.6244
 11
-68.0297
 21
93.2997
 31
37.6244
 12
-68.0297
 22
93.2997
 32
70.6244
 13
-58.7729
 23
71.9986
 33
70.6244
 0
3DFACE
  8
0main
 10
38.1189
 20
86.6155
 30
70.6244
 11
48.162
 21
72.9572
 31
70.6244
 12
48.162
 22
72.9572
 32
-80.4561
 13
48.162
 23
72.9572
 33
-80.4561
 0
3DFACE
  8
0main
 10
38.1189
 20
86.6155
 30
37.6244
 11
38.1189
 21
86.6155
 31
70.6244
 12
48.162
 22
72.9572
 32
-80.4561
 13
48.162
 23
72.9572
 33
-80.4561
 0
3DFACE
  8
0main
 10
37.6204
 20
87.1514
 30
-80.4561
 11
38.1189
 21
86.6155
 31
37.6244
 12
48.162
 22
72.9572
 32
-80.4561
 13
48.162
 23
72.9572
 33
-80.4561
 0
3DFACE
  8
0main
 10
35.9389
 20
88.8866
 30
37.6244
 11
38.1189
 21
86.6155
 31
37.6244
 12
37.6204
 22
87.1514
 32
-80.4561
 13
37.6204
 23
87.1514
 33
-80.4561
 0
3DFACE
  8
0main
 10
35.9389
 20
88.8866
 30
-80.4561
 11
35.9389
 21
88.8866
 31
37.6244
 12
37.6204
 22
87.1514
 32
-80.4561
 13
37.6204
 23
87.1514
 33
-80.4561
 0
3DFACE
  8
0main
 10
49.4809
 20
70.5765
 30
70.6244
 11
55.8457
 21
54.407
 31
70.6244
 12
55.8457
 22
54.407
 32
-80.4561
 13
55.8457
 23
54.407
 33
-80.4561
 0
3DFACE
  8
0main
 10
48.9527
 20
71.5538
 30
-80.4561
 11
49.4809
 21
70.5765
 31
70.6244
 12
55.8457
 22
54.407
 32
-80.4561
 13
55.8457
 23
54.407
 33
-80.4561
 0
3DFACE
  8
0main
 10
48.162
 20
72.9572
 30
70.6244
 11
49.4809
 21
70.5765
 31
70.6244
 12
48.9527
 22
71.5538
 32
-80.4561
 13
48.9527
 23
71.5538
 33
-80.4561
 0
3DFACE
  8
0main
 10
48.162
 20
72.9572
 30
-80.4561
 11
48.162
 21
72.9572
 31
70.6244
 12
48.9527
 22
71.5538
 32
-80.4561
 13
48.9527
 23
71.5538
 33
-80.4561
 0
3DFACE
  8
0main
 10
58.457
 20
35.7096
 30
37.6244
 11
58.4665
 21
34.5002
 31
37.6244
 12
58.4665
 22
34.5002
 32
-80.4561
 13
58.4665
 23
34.5002
 33
-80.4561
 0
3DFACE
  8
0main
 10
56.4066
 20
52.1814
 30
37.6244
 11
58.457
 21
35.7096
 31
37.6244
 12
58.4665
 22
34.5002
 32
-80.4561
 13
58.4665
 23
34.5002
 33
-80.4561
 0
3DFACE
  8
0main
 10
56.0501
 20
53.6279
 30
-80.4561
 11
56.4066
 21
52.1814
 31
70.6244
 12
56.4066
 22
52.1814
 32
37.6244
 13
56.4066
 23
52.1814
 33
37.6244
 0
3DFACE
  8
0main
 10
56.0501
 20
53.6279
 30
-80.4561
 11
56.4066
 21
52.1814
 31
37.6244
 12
58.4665
 22
34.5002
 32
-80.4561
 13
58.4665
 23
34.5002
 33
-80.4561
 0
3DFACE
  8
0main
 10
55.8457
 20
54.407
 30
70.6244
 11
56.4066
 21
52.1814
 31
70.6244
 12
56.0501
 22
53.6279
 32
-80.4561
 13
56.0501
 23
53.6279
 33
-80.4561
 0
3DFACE
  8
0main
 10
55.8457
 20
54.407
 30
-80.4561
 11
55.8457
 21
54.407
 31
70.6244
 12
56.0501
 22
53.6279
 32
-80.4561
 13
56.0501
 23
53.6279
 33
-80.4561
 0
3DFACE
  8
0main
 10
48.9527
 20
-2.55342
 30
-80.4561
 11
48.162
 21
-3.95683
 31
70.6244
 12
48.162
 22
-3.95683
 32
-80.4561
 13
48.162
 23
-3.95683
 33
-80.4561
 0
3DFACE
  8
0main
 10
51.9852
 20
3.59718
 30
70.6244
 11
48.162
 21
-3.95683
 31
70.6244
 12
48.9527
 22
-2.55342
 32
-80.4561
 13
48.9527
 23
-2.55342
 33
-80.4561
 0
3DFACE
  8
0main
 10
55.8457
 20
14.5934
 30
70.6244
 11
51.9852
 21
3.59718
 31
70.6244
 12
48.9527
 22
-2.55342
 32
-80.4561
 13
48.9527
 23
-2.55342
 33
-80.4561
 0
3DFACE
  8
0main
 10
55.8457
 20
14.5934
 30
-80.4561
 11
55.8457
 21
14.5934
 31
70.6244
 12
48.9527
 22
-2.55342
 32
-80.4561
 13
48.9527
 23
-2.55342
 33
-80.4561
 0
3DFACE
  8
0main
 10
56.0501
 20
15.3724
 30
-80.4561
 11
55.8457
 21
14.5934
 31
70.6244
 12
55.8457
 22
14.5934
 32
-80.4561
 13
55.8457
 23
14.5934
 33
-80.4561
 0
3DFACE
  8
0main
 10
56.9256
 20
19.1814
 30
70.6244
 11
55.8457
 21
14.5934
 31
70.6244
 12
56.0501
 22
15.3724
 32
-80.4561
 13
56.0501
 23
15.3724
 33
-80.4561
 0
3DFACE
  8
0main
 10
56.9256
 20
19.1814
 30
37.6244
 11
56.9256
 21
19.1814
 31
70.6244
 12
56.0501
 22
15.3724
 32
-80.4561
 13
56.0501
 23
15.3724
 33
-80.4561
 0
3DFACE
  8
0main
 10
58.4665
 20
34.5002
 30
-80.4561
 11
56.9256
 21
19.1814
 31
37.6244
 12
56.0501
 22
15.3724
 32
-80.4561
 13
56.0501
 23
15.3724
 33
-80.4561
 0
3DFACE
  8
0main
 10
58.4665
 20
34.5002
 30
37.6244
 11
56.9256
 21
19.1814
 31
37.6244
 12
58.4665
 22
34.5002
 32
-80.4561
 13
58.4665
 23
34.5002
 33
-80.4561
 0
3DFACE
  8
0main
 10
37.6204
 20
-18.1511
 30
-80.4561
 11
35.9389
 21
-19.8862
 31
70.6244
 12
35.9389
 22
-19.8862
 32
-80.4561
 13
35.9389
 23
-19.8862
 33
-80.4561
 0
3DFACE
  8
0main
 10
43.8627
 20
-10.5909
 30
70.6244
 11
35.9389
 21
-19.8862
 31
70.6244
 12
37.6204
 22
-18.1511
 32
-80.4561
 13
37.6204
 23
-18.1511
 33
-80.4561
 0
3DFACE
  8
0main
 10
48.162
 20
-3.95683
 30
70.6244
 11
43.8627
 21
-10.5909
 31
70.6244
 12
37.6204
 22
-18.1511
 32
-80.4561
 13
37.6204
 23
-18.1511
 33
-80.4561
 0
3DFACE
  8
0main
 10
48.162
 20
-3.95683
 30
-80.4561
 11
48.162
 21
-3.95683
 31
70.6244
 12
37.6204
 22
-18.1511
 32
-80.4561
 13
37.6204
 23
-18.1511
 33
-80.4561
 0
3DFACE
  8
0main
 10
22.7651
 20
-30.4405
 30
-80.4561
 11
20.0095
 21
-32.1093
 31
37.6244
 12
20.0095
 22
-32.1093
 32
-80.4561
 13
20.0095
 23
-32.1093
 33
-80.4561
 0
3DFACE
  8
0main
 10
32.9249
 20
-22.7417
 30
37.6244
 11
20.0095
 21
-32.1093
 31
37.6244
 12
22.7651
 22
-30.4405
 32
-80.4561
 13
22.7651
 23
-30.4405
 33
-80.4561
 0
3DFACE
  8
0main
 10
35.9389
 20
-19.8862
 30
70.6244
 11
32.9249
 21
-22.7417
 31
70.6244
 12
32.9249
 22
-22.7417
 32
37.6244
 13
32.9249
 23
-22.7417
 33
37.6244
 0
3DFACE
  8
0main
 10
35.9389
 20
-19.8862
 30
70.6244
 11
32.9249
 21
-22.7417
 31
37.6244
 12
22.7651
 22
-30.4405
 32
-80.4561
 13
22.7651
 23
-30.4405
 33
-80.4561
 0
3DFACE
  8
0main
 10
35.9389
 20
-19.8862
 30
-80.4561
 11
35.9389
 21
-19.8862
 31
70.6244
 12
22.7651
 22
-30.4405
 32
-80.4561
 13
22.7651
 23
-30.4405
 33
-80.4561
 0
3DFACE
  8
0main
 10
4.18645
 20
-39.0081
 30
70.6244
 11
1.45929
 21
-39.7931
 31
70.6244
 12
1.45929
 22
-39.7931
 32
-80.4561
 13
1.45929
 23
-39.7931
 33
-80.4561
 0
3DFACE
  8
0main
 10
4.18645
 20
-39.0081
 30
37.6244
 11
4.18645
 21
-39.0081
 31
70.6244
 12
1.45929
 22
-39.7931
 32
-80.4561
 13
1.45929
 23
-39.7931
 33
-80.4561
 0
3DFACE
  8
0main
 10
5.32021
 20
-38.6494
 30
-80.4561
 11
4.18645
 21
-39.0081
 31
37.6244
 12
1.45929
 22
-39.7931
 32
-80.4561
 13
1.45929
 23
-39.7931
 33
-80.4561
 0
3DFACE
  8
0main
 10
19.439
 20
-32.4354
 30
37.6244
 11
4.18645
 21
-39.0081
 31
37.6244
 12
5.32021
 22
-38.6494
 32
-80.4561
 13
5.32021
 23
-38.6494
 33
-80.4561
 0
3DFACE
  8
0main
 10
20.0095
 20
-32.1093
 30
-80.4561
 11
19.439
 21
-32.4354
 31
37.6244
 12
5.32021
 22
-38.6494
 32
-80.4561
 13
5.32021
 23
-38.6494
 33
-80.4561
 0
3DFACE
  8
0main
 10
20.0095
 20
-32.1093
 30
37.6244
 11
19.439
 21
-32.4354
 31
37.6244
 12
20.0095
 22
-32.1093
 32
-80.4561
 13
20.0095
 23
-32.1093
 33
-80.4561
 0
3DFACE
  8
0main
 10
-13.6181
 20
-42.2621
 30
-80.4561
 11
-18.4475
 21
-42.4138
 31
70.6244
 12
-18.4475
 22
-42.4138
 32
-80.4561
 13
-18.4475
 23
-42.4138
 33
-80.4561
 0
3DFACE
  8
0main
 10
-12.0508
 20
-42.1474
 30
70.6244
 11
-18.4475
 21
-42.4138
 31
70.6244
 12
-13.6181
 22
-42.2621
 32
-80.4561
 13
-13.6181
 23
-42.2621
 33
-80.4561
 0
3DFACE
  8
0main
 10
1.45929
 20
-39.7931
 30
70.6244
 11
-12.0508
 21
-42.1474
 31
70.6244
 12
-13.6181
 22
-42.2621
 32
-80.4561
 13
-13.6181
 23
-42.2621
 33
-80.4561
 0
3DFACE
  8
0main
 10
1.45929
 20
-39.7931
 30
-80.4561
 11
1.45929
 21
-39.7931
 31
70.6244
 12
-13.6181
 22
-42.2621
 32
-80.4561
 13
-13.6181
 23
-42.2621
 33
-80.4561
 0
3DFACE
  8
0main
 10
-32.8598
 20
-41.0515
 30
-80.4561
 11
-38.3543
 21
-39.7931
 31
70.6244
 12
-38.3543
 22
-39.7931
 32
-80.4561
 13
-38.3543
 23
-39.7931
 33
-80.4561
 0
3DFACE
  8
0main
 10
-28.5837
 20
-41.743
 30
70.6244
 11
-38.3543
 21
-39.7931
 31
70.6244
 12
-32.8598
 22
-41.0515
 32
-80.4561
 13
-32.8598
 23
-41.0515
 33
-80.4561
 0
3DFACE
  8
0main
 10
-18.4475
 20
-42.4138
 30
70.6244
 11
-28.5837
 21
-41.743
 31
70.6244
 12
-32.8598
 22
-41.0515
 32
-80.4561
 13
-32.8598
 23
-41.0515
 33
-80.4561
 0
3DFACE
  8
0main
 10
-18.4475
 20
-42.4138
 30
-80.4561
 11
-18.4475
 21
-42.4138
 31
70.6244
 12
-32.8598
 22
-41.0515
 32
-80.4561
 13
-32.8598
 23
-41.0515
 33
-80.4561
 0
3DFACE
  8
0main
 10
-51.1959
 20
-35.0937
 30
-80.4561
 11
-56.9045
 21
-32.1093
 31
37.6244
 12
-56.9045
 22
-32.1093
 32
-80.4561
 13
-56.9045
 23
-32.1093
 33
-80.4561
 0
3DFACE
  8
0main
 10
-44.6481
 20
-37.8137
 30
37.6244
 11
-56.9045
 21
-32.1093
 31
37.6244
 12
-51.1959
 22
-35.0937
 32
-80.4561
 13
-51.1959
 23
-35.0937
 33
-80.4561
 0
3DFACE
  8
0main
 10
-38.3543
 20
-39.7931
 30
70.6244
 11
-44.6481
 21
-37.8137
 31
37.6244
 12
-51.1959
 22
-35.0937
 32
-80.4561
 13
-51.1959
 23
-35.0937
 33
-80.4561
 0
3DFACE
  8
0main
 10
-38.3543
 20
-39.7931
 30
70.6244
 11
-44.6481
 21
-37.8137
 31
70.6244
 12
-44.6481
 22
-37.8137
 32
37.6244
 13
-44.6481
 23
-37.8137
 33
37.6244
 0
3DFACE
  8
0main
 10
-38.3543
 20
-39.7931
 30
-80.4561
 11
-38.3543
 21
-39.7931
 31
70.6244
 12
-51.1959
 22
-35.0937
 32
-80.4561
 13
-51.1959
 23
-35.0937
 33
-80.4561
 0
3DFACE
  8
0main
 10
-72.5605
 20
-20.1583
 30
70.6244
 11
-72.8339
 21
-19.8862
 31
70.6244
 12
-72.8339
 22
-19.8862
 32
-80.4561
 13
-72.8339
 23
-19.8862
 33
-80.4561
 0
3DFACE
  8
0main
 10
-72.5605
 20
-20.1583
 30
37.6244
 11
-72.5605
 21
-20.1583
 31
70.6244
 12
-72.8339
 22
-19.8862
 32
-80.4561
 13
-72.8339
 23
-19.8862
 33
-80.4561
 0
3DFACE
  8
0main
 10
-67.4744
 20
-24.7631
 30
-80.4561
 11
-72.5605
 21
-20.1583
 31
37.6244
 12
-72.8339
 22
-19.8862
 32
-80.4561
 13
-72.8339
 23
-19.8862
 33
-80.4561
 0
3DFACE
  8
0main
 10
-59.5631
 20
-30.5019
 30
37.6244
 11
-72.5605
 21
-20.1583
 31
37.6244
 12
-67.4744
 22
-24.7631
 32
-80.4561
 13
-67.4744
 23
-24.7631
 33
-80.4561
 0
3DFACE
  8
0main
 10
-56.9045
 20
-32.1093
 30
37.6244
 11
-59.5631
 21
-30.5019
 31
37.6244
 12
-67.4744
 22
-24.7631
 32
-80.4561
 13
-67.4744
 23
-24.7631
 33
-80.4561
 0
3DFACE
  8
0main
 10
-56.9045
 20
-32.1093
 30
-80.4561
 11
-56.9045
 21
-32.1093
 31
37.6244
 12
-67.4744
 22
-24.7631
 32
-80.4561
 13
-67.4744
 23
-24.7631
 33
-80.4561
 0
3DFACE
  8
0main
 10
-85.057
 20
-3.95683
 30
-80.4561
 11
-92.7408
 21
14.5934
 31
-80.4561
 12
-89.9604
 22
6.18625
 32
-80.4561
 13
-89.9604
 23
6.18625
 33
-80.4561
 0
3DFACE
  8
0main
 10
-92.7408
 20
14.5934
 30
70.6244
 11
-92.7408
 21
14.5934
 31
-80.4561
 12
-85.057
 22
-3.95683
 32
-80.4561
 13
-85.057
 23
-3.95683
 33
-80.4561
 0
3DFACE
  8
0main
 10
-89.7174
 20
5.58011
 30
70.6244
 11
-92.7408
 21
14.5934
 31
70.6244
 12
-85.057
 22
-3.95683
 32
-80.4561
 13
-85.057
 23
-3.95683
 33
-80.4561
 0
3DFACE
  8
0main
 10
-85.057
 20
-3.95683
 30
70.6244
 11
-89.7174
 21
5.58011
 31
70.6244
 12
-85.057
 22
-3.95683
 32
-80.4561
 13
-85.057
 23
-3.95683
 33
-80.4561
 0
3DFACE
  8
0main
 10
-72.8339
 20
-19.8862
 30
-80.4561
 11
-85.057
 21
-3.95683
 31
-80.4561
 12
-80.6723
 22
-10.7087
 32
-80.4561
 13
-80.6723
 23
-10.7087
 33
-80.4561
 0
3DFACE
  8
0main
 10
-85.057
 20
-3.95683
 30
70.6244
 11
-85.057
 21
-3.95683
 31
-80.4561
 12
-72.8339
 22
-19.8862
 32
-80.4561
 13
-72.8339
 23
-19.8862
 33
-80.4561
 0
3DFACE
  8
0main
 10
-82.4462
 20
-8.1605
 30
70.6244
 11
-85.057
 21
-3.95683
 31
70.6244
 12
-72.8339
 22
-19.8862
 32
-80.4561
 13
-72.8339
 23
-19.8862
 33
-80.4561
 0
3DFACE
  8
0main
 10
-72.8339
 20
-19.8862
 30
70.6244
 11
-82.4462
 21
-8.1605
 31
70.6244
 12
-72.8339
 22
-19.8862
 32
-80.4561
 13
-72.8339
 23
-19.8862
 33
-80.4561
 0
3DFACE
  8
0main
 10
-92.7408
 20
14.5934
 30
-80.4561
 11
-95.3615
 21
34.5002
 31
-80.4561
 12
-94.7551
 22
24.8603
 32
-80.4561
 13
-94.7551
 23
24.8603
 33
-80.4561
 0
3DFACE
  8
0main
 10
-95.3615
 20
34.5002
 30
37.6244
 11
-95.3615
 21
34.5002
 31
-80.4561
 12
-92.7408
 22
14.5934
 32
-80.4561
 13
-92.7408
 23
14.5934
 33
-80.4561
 0
3DFACE
  8
0main
 10
-94.077
 20
20.5022
 30
37.6244
 11
-95.3615
 21
34.5002
 31
37.6244
 12
-92.7408
 22
14.5934
 32
-80.4561
 13
-92.7408
 23
14.5934
 33
-80.4561
 0
3DFACE
  8
0main
 10
-94.077
 20
20.5022
 30
70.6244
 11
-94.077
 21
20.5022
 31
37.6244
 12
-92.7408
 22
14.5934
 32
-80.4561
 13
-92.7408
 23
14.5934
 33
-80.4561
 0
3DFACE
  8
0main
 10
-92.7408
 20
14.5934
 30
70.6244
 11
-94.077
 21
20.5022
 31
70.6244
 12
-92.7408
 22
14.5934
 32
-80.4561
 13
-92.7408
 23
14.5934
 33
-80.4561
 0
3DFACE
  8
0main
 10
-95.3615
 20
34.5002
 30
-80.4561
 11
-92.7408
 21
54.407
 31
-80.4561
 12
-94.7551
 22
44.1401
 32
-80.4561
 13
-94.7551
 23
44.1401
 33
-80.4561
 0
3DFACE
  8
0main
 10
-95.3189
 20
37.0619
 30
37.6244
 11
-92.7408
 21
54.407
 31
-80.4561
 12
-95.3615
 22
34.5002
 32
-80.4561
 13
-95.3615
 23
34.5002
 33
-80.4561
 0
3DFACE
  8
0main
 10
-95.3615
 20
34.5002
 30
37.6244
 11
-95.3189
 21
37.0619
 31
37.6244
 12
-95.3615
 22
34.5002
 32
-80.4561
 13
-95.3615
 23
34.5002
 33
-80.4561
 0
3DFACE
  8
0main
 10
-92.9773
 20
53.5022
 30
37.6244
 11
-92.7408
 21
54.407
 31
-80.4561
 12
-95.3189
 22
37.0619
 32
37.6244
 13
-95.3189
 23
37.0619
 33
37.6244
 0
3DFACE
  8
0main
 10
-92.7408
 20
54.407
 30
70.6244
 11
-92.7408
 21
54.407
 31
-80.4561
 12
-92.9773
 22
53.5022
 32
37.6244
 13
-92.9773
 23
53.5022
 33
37.6244
 0
3DFACE
  8
0main
 10
-92.9773
 20
53.5022
 30
70.6244
 11
-92.7408
 21
54.407
 31
70.6244
 12
-92.9773
 22
53.5022
 32
37.6244
 13
-92.9773
 23
53.5022
 33
37.6244
 0
3DFACE
  8
0main
 10
-92.7408
 20
54.407
 30
70.6244
 11
-89.9604
 21
62.8141
 31
-80.4561
 12
-92.7408
 22
54.407
 32
-80.4561
 13
-92.7408
 23
54.407
 33
-80.4561
 0
3DFACE
  8
0main
 10
-92.7408
 20
54.407
 30
70.6244
 11
-85.057
 21
72.9572
 31
-80.4561
 12
-89.9604
 22
62.8141
 32
-80.4561
 13
-89.9604
 23
62.8141
 33
-80.4561
 0
3DFACE
  8
0main
 10
-87.4854
 20
68.405
 30
70.6244
 11
-85.057
 21
72.9572
 31
-80.4561
 12
-92.7408
 22
54.407
 32
70.6244
 13
-92.7408
 23
54.407
 33
70.6244
 0
3DFACE
  8
0main
 10
-85.057
 20
72.9572
 30
70.6244
 11
-85.057
 21
72.9572
 31
-80.4561
 12
-87.4854
 22
68.405
 32
70.6244
 13
-87.4854
 23
68.405
 33
70.6244
 0
3DFACE
  8
0main
 10
-72.8339
 20
88.8866
 30
-80.4561
 11
-56.9045
 21
101.11
 31
-80.4561
 12
-67.4744
 22
93.7635
 32
-80.4561
 13
-67.4744
 23
93.7635
 33
-80.4561
 0
3DFACE
  8
0main
 10
-56.9045
 20
101.11
 30
37.6244
 11
-56.9045
 21
101.11
 31
-80.4561
 12
-72.8339
 22
88.8866
 32
-80.4561
 13
-72.8339
 23
88.8866
 33
-80.4561
 0
3DFACE
  8
0main
 10
-68.0297
 20
93.2997
 30
37.6244
 11
-56.9045
 21
101.11
 31
37.6244
 12
-72.8339
 22
88.8866
 32
-80.4561
 13
-72.8339
 23
88.8866
 33
-80.4561
 0
3DFACE
  8
0main
 10
-68.0297
 20
93.2997
 30
70.6244
 11
-68.0297
 21
93.2997
 31
37.6244
 12
-72.8339
 22
88.8866
 32
-80.4561
 13
-72.8339
 23
88.8866
 33
-80.4561
 0
3DFACE
  8
0main
 10
-72.8339
 20
88.8866
 30
70.6244
 11
-68.0297
 21
93.2997
 31
70.6244
 12
-72.8339
 22
88.8866
 32
-80.4561
 13
-72.8339
 23
88.8866
 33
-80.4561
 0
3DFACE
  8
0main
 10
-85.057
 20
72.9572
 30
-80.4561
 11
-72.8339
 21
88.8866
 31
-80.4561
 12
-80.6723
 22
79.7091
 32
-80.4561
 13
-80.6723
 23
79.7091
 33
-80.4561
 0
3DFACE
  8
0main
 10
-72.8339
 20
88.8866
 30
70.6244
 11
-72.8339
 21
88.8866
 31
-80.4561
 12
-85.057
 22
72.9572
 32
-80.4561
 13
-85.057
 23
72.9572
 33
-80.4561
 0
3DFACE
  8
0main
 10
-85.057
 20
72.9572
 30
70.6244
 11
-72.8339
 21
88.8866
 31
70.6244
 12
-85.057
 22
72.9572
 32
-80.4561
 13
-85.057
 23
72.9572
 33
-80.4561
 0
3DFACE
  8
0main
 10
-79.0496
 20
81.8621
 30
70.6244
 11
-72.8339
 21
88.8866
 31
70.6244
 12
-85.057
 22
72.9572
 32
70.6244
 13
-85.057
 23
72.9572
 33
70.6244
 0
3DFACE
  8
0main
 10
-56.9045
 20
101.11
 30
37.6244
 11
-51.1959
 21
104.094
 31
-80.4561
 12
-56.9045
 22
101.11
 32
-80.4561
 13
-56.9045
 23
101.11
 33
-80.4561
 0
3DFACE
  8
0main
 10
-56.9045
 20
101.11
 30
37.6244
 11
-38.3543
 21
108.793
 31
-80.4561
 12
-51.1959
 22
104.094
 32
-80.4561
 13
-51.1959
 23
104.094
 33
-80.4561
 0
3DFACE
  8
0main
 10
-54.2205
 20
102.589
 30
37.6244
 11
-38.3543
 21
108.793
 31
-80.4561
 12
-56.9045
 22
101.11
 32
37.6244
 13
-56.9045
 23
101.11
 33
37.6244
 0
3DFACE
  8
0main
 10
-38.7365
 20
108.69
 30
37.6244
 11
-38.3543
 21
108.793
 31
-80.4561
 12
-54.2205
 22
102.589
 32
37.6244
 13
-54.2205
 23
102.589
 33
37.6244
 0
3DFACE
  8
0main
 10
-38.7365
 20
108.69
 30
70.6244
 11
-38.3543
 21
108.793
 31
-80.4561
 12
-38.7365
 22
108.69
 32
37.6244
 13
-38.7365
 23
108.69
 33
37.6244
 0
3DFACE
  8
0main
 10
-38.3543
 20
108.793
 30
70.6244
 11
-38.3543
 21
108.793
 31
-80.4561
 12
-38.7365
 22
108.69
 32
70.6244
 13
-38.7365
 23
108.69
 33
70.6244
 0
3DFACE
  8
0main
 10
-18.4475
 20
111.414
 30
-80.4561
 11
1.45929
 21
108.793
 31
-80.4561
 12
-13.6181
 22
111.262
 32
-80.4561
 13
-13.6181
 23
111.262
 33
-80.4561
 0
3DFACE
  8
0main
 10
1.45929
 20
108.793
 30
70.6244
 11
1.45929
 21
108.793
 31
-80.4561
 12
-18.4475
 22
111.414
 32
-80.4561
 13
-18.4475
 23
111.414
 33
-80.4561
 0
3DFACE
  8
0main
 10
-5.2019
 20
110.265
 30
70.6244
 11
1.45929
 21
108.793
 31
70.6244
 12
-18.4475
 22
111.414
 32
-80.4561
 13
-18.4475
 23
111.414
 33
-80.4561
 0
3DFACE
  8
0main
 10
-18.4475
 20
111.414
 30
70.6244
 11
-5.2019
 21
110.265
 31
70.6244
 12
-18.4475
 22
111.414
 32
-80.4561
 13
-18.4475
 23
111.414
 33
-80.4561
 0
3DFACE
  8
0main
 10
-38.3543
 20
108.793
 30
-80.4561
 11
-18.4475
 21
111.414
 31
-80.4561
 12
-32.8598
 22
110.052
 32
-80.4561
 13
-32.8598
 23
110.052
 33
-80.4561
 0
3DFACE
  8
0main
 10
-18.4475
 20
111.414
 30
70.6244
 11
-18.4475
 21
111.414
 31
-80.4561
 12
-38.3543
 22
108.793
 32
-80.4561
 13
-38.3543
 23
108.793
 33
-80.4561
 0
3DFACE
  8
0main
 10
-22.0562
 20
111.329
 30
70.6244
 11
-18.4475
 21
111.414
 31
70.6244
 12
-38.3543
 22
108.793
 32
-80.4561
 13
-38.3543
 23
108.793
 33
-80.4561
 0
3DFACE
  8
0main
 10
-38.3543
 20
108.793
 30
70.6244
 11
-22.0562
 21
111.329
 31
70.6244
 12
-38.3543
 22
108.793
 32
-80.4561
 13
-38.3543
 23
108.793
 33
-80.4561
 0
3DFACE
  8
0main
 10
11.0138
 20
105.548
 30
37.6244
 11
5.32021
 21
107.65
 31
-80.4561
 12
1.45929
 22
108.793
 32
-80.4561
 13
1.45929
 23
108.793
 33
-80.4561
 0
3DFACE
  8
0main
 10
11.0138
 20
105.548
 30
37.6244
 11
20.0095
 21
101.11
 31
-80.4561
 12
5.32021
 22
107.65
 32
-80.4561
 13
5.32021
 23
107.65
 33
-80.4561
 0
3DFACE
  8
0main
 10
20.0095
 20
101.11
 30
37.6244
 11
20.0095
 21
101.11
 31
-80.4561
 12
11.0138
 22
105.548
 32
37.6244
 13
11.0138
 23
105.548
 33
37.6244
 0
3DFACE
  8
0main
 10
11.0138
 20
105.548
 30
70.6244
 11
11.0138
 21
105.548
 31
37.6244
 12
1.45929
 22
108.793
 32
-80.4561
 13
1.45929
 23
108.793
 33
-80.4561
 0
3DFACE
  8
0main
 10
1.45929
 20
108.793
 30
70.6244
 11
11.0138
 21
105.548
 31
70.6244
 12
1.45929
 22
108.793
 32
-80.4561
 13
1.45929
 23
108.793
 33
-80.4561
 0
3DFACE
  8
0main
 10
35.9389
 20
88.8866
 30
37.6244
 11
22.7651
 21
99.4408
 31
-80.4561
 12
20.0095
 22
101.11
 32
-80.4561
 13
20.0095
 23
101.11
 33
-80.4561
 0
3DFACE
  8
0main
 10
35.9389
 20
88.8866
 30
37.6244
 11
35.9389
 21
88.8866
 31
-80.4561
 12
22.7651
 22
99.4408
 32
-80.4561
 13
22.7651
 23
99.4408
 33
-80.4561
 0
3DFACE
  8
0main
 10
25.5957
 20
97.5554
 30
37.6244
 11
35.9389
 21
88.8866
 31
37.6244
 12
20.0095
 22
101.11
 32
-80.4561
 13
20.0095
 23
101.11
 33
-80.4561
 0
3DFACE
  8
0main
 10
20.0095
 20
101.11
 30
37.6244
 11
25.5957
 21
97.5554
 31
37.6244
 12
20.0095
 22
101.11
 32
-80.4561
 13
20.0095
 23
101.11
 33
-80.4561
 0
3DFACE
  8
0main
 10
38.1189
 20
86.6155
 30
70.6244
 11
31.1652
 21
58.3924
 31
70.6244
 12
33.7026
 22
52.1814
 32
70.6244
 13
33.7026
 23
52.1814
 33
70.6244
 0
3DFACE
  8
0main
 10
38.1189
 20
86.6155
 30
70.6244
 11
29.7589
 21
61.1161
 31
70.6244
 12
31.1652
 22
58.3924
 32
70.6244
 13
31.1652
 23
58.3924
 33
70.6244
 0
3DFACE
  8
0main
 10
38.1189
 20
86.6155
 30
70.6244
 11
24.2988
 21
69.2135
 31
70.6244
 12
29.7589
 22
61.1161
 32
70.6244
 13
29.7589
 23
61.1161
 33
70.6244
 0
3DFACE
  8
0main
 10
48.162
 20
72.9572
 30
70.6244
 11
38.1189
 21
86.6155
 31
70.6244
 12
33.7026
 22
52.1814
 32
70.6244
 13
33.7026
 23
52.1814
 33
70.6244
 0
3DFACE
  8
0main
 10
49.4809
 20
70.5765
 30
70.6244
 11
48.162
 21
72.9572
 31
70.6244
 12
33.7026
 22
52.1814
 32
70.6244
 13
33.7026
 23
52.1814
 33
70.6244
 0
3DFACE
  8
0main
 10
55.8457
 20
54.407
 30
70.6244
 11
49.4809
 21
70.5765
 31
70.6244
 12
33.7026
 22
52.1814
 32
70.6244
 13
33.7026
 23
52.1814
 33
70.6244
 0
3DFACE
  8
0main
 10
56.4066
 20
52.1814
 30
70.6244
 11
55.8457
 21
54.407
 31
70.6244
 12
33.7026
 22
52.1814
 32
70.6244
 13
33.7026
 23
52.1814
 33
70.6244
 0
3DFACE
  8
0main
 10
-61.1132
 20
-0.312279
 30
37.6244
 11
-61.1132
 21
-0.312279
 31
70.6244
 12
-72.5605
 22
-20.1583
 32
70.6244
 13
-72.5605
 23
-20.1583
 33
37.6244
 0
3DFACE
  8
0main
 10
-44.6481
 20
-37.8137
 30
70.6244
 11
-33.4911
 21
-18.4711
 31
70.6244
 12
-33.4911
 22
-18.4711
 32
37.6244
 13
-44.6481
 23
-37.8137
 33
37.6244
 0
3DFACE
  8
0main
 10
-59.5631
 20
-30.5019
 30
37.6244
 11
-61.1132
 21
-0.312279
 31
37.6244
 12
-72.5605
 22
-20.1583
 32
37.6244
 13
-72.5605
 23
-20.1583
 33
37.6244
 0
3DFACE
  8
0main
 10
-56.9045
 20
-32.1093
 30
37.6244
 11
-61.1132
 21
-0.312279
 31
37.6244
 12
-59.5631
 22
-30.5019
 32
37.6244
 13
-59.5631
 23
-30.5019
 33
37.6244
 0
3DFACE
  8
0main
 10
-52.7806
 20
-8.55215
 30
37.6244
 11
-61.1132
 21
-0.312279
 31
37.6244
 12
-56.9045
 22
-32.1093
 32
37.6244
 13
-56.9045
 23
-32.1093
 33
37.6244
 0
3DFACE
  8
0main
 10
-48.6969
 20
-11.5133
 30
37.6244
 11
-52.7806
 21
-8.55215
 31
37.6244
 12
-56.9045
 22
-32.1093
 32
37.6244
 13
-56.9045
 23
-32.1093
 33
37.6244
 0
3DFACE
  8
0main
 10
-44.6481
 20
-37.8137
 30
37.6244
 11
-48.6969
 21
-11.5133
 31
37.6244
 12
-56.9045
 22
-32.1093
 32
37.6244
 13
-56.9045
 23
-32.1093
 33
37.6244
 0
3DFACE
  8
0main
 10
-38.5654
 20
-16.7593
 30
37.6244
 11
-48.6969
 21
-11.5133
 31
37.6244
 12
-44.6481
 22
-37.8137
 32
37.6244
 13
-44.6481
 23
-37.8137
 33
37.6244
 0
3DFACE
  8
0main
 10
-33.4911
 20
-18.4711
 30
37.6244
 11
-38.5654
 21
-16.7593
 31
37.6244
 12
-44.6481
 22
-37.8137
 32
37.6244
 13
-44.6481
 23
-37.8137
 33
37.6244
 0
3DFACE
  8
0main
 10
-33.4911
 20
-18.4711
 30
70.6244
 11
-44.6481
 21
-37.8137
 31
70.6244
 12
-38.3543
 22
-39.7931
 32
70.6244
 13
-38.3543
 23
-39.7931
 33
70.6244
 0
3DFACE
  8
0main
 10
-28.5837
 20
-41.743
 30
70.6244
 11
-33.4911
 21
-18.4711
 31
70.6244
 12
-38.3543
 22
-39.7931
 32
70.6244
 13
-38.3543
 23
-39.7931
 33
70.6244
 0
3DFACE
  8
0main
 10
-22.5626
 20
-20.4118
 30
70.6244
 11
-33.4911
 21
-18.4711
 31
70.6244
 12
-28.5837
 22
-41.743
 32
70.6244
 13
-28.5837
 23
-41.743
 33
70.6244
 0
3DFACE
  8
0main
 10
-20.7147
 20
-20.5191
 30
70.6244
 11
-22.5626
 21
-20.4118
 31
70.6244
 12
-28.5837
 22
-41.743
 32
70.6244
 13
-28.5837
 23
-41.743
 33
70.6244
 0
3DFACE
  8
0main
 10
-18.4475
 20
-42.4138
 30
70.6244
 11
-20.7147
 21
-20.5191
 31
70.6244
 12
-28.5837
 22
-41.743
 32
70.6244
 13
-28.5837
 23
-41.743
 33
70.6244
 0
3DFACE
  8
0main
 10
-12.0508
 20
-42.1474
 30
70.6244
 11
-20.7147
 21
-20.5191
 31
70.6244
 12
-18.4475
 22
-42.4138
 32
70.6244
 13
-18.4475
 23
-42.4138
 33
70.6244
 0
3DFACE
  8
0main
 10
-7.81301
 20
-19.5292
 30
70.6244
 11
-20.7147
 21
-20.5191
 31
70.6244
 12
-12.0508
 22
-42.1474
 32
70.6244
 13
-12.0508
 23
-42.1474
 33
70.6244
 0
3DFACE
  8
0main
 10
1.45929
 20
-39.7931
 30
70.6244
 11
-7.81301
 21
-19.5292
 31
70.6244
 12
-12.0508
 22
-42.1474
 32
70.6244
 13
-12.0508
 23
-42.1474
 33
70.6244
 0
3DFACE
  8
0main
 10
4.18645
 20
-39.0081
 30
70.6244
 11
-7.81301
 21
-19.5292
 31
70.6244
 12
1.45929
 22
-39.7931
 32
70.6244
 13
1.45929
 23
-39.7931
 33
70.6244
 0
3DFACE
  8
0main
 10
-89.7174
 20
5.58011
 30
70.6244
 11
-94.077
 21
20.5022
 31
70.6244
 12
-92.7408
 22
14.5934
 32
70.6244
 13
-92.7408
 23
14.5934
 33
70.6244
 0
3DFACE
  8
0main
 10
-85.057
 20
-3.95683
 30
70.6244
 11
-94.077
 21
20.5022
 31
70.6244
 12
-89.7174
 22
5.58011
 32
70.6244
 13
-89.7174
 23
5.58011
 33
70.6244
 0
3DFACE
  8
0main
 10
-82.4462
 20
-8.1605
 30
70.6244
 11
-94.077
 21
20.5022
 31
70.6244
 12
-85.057
 22
-3.95683
 32
70.6244
 13
-85.057
 23
-3.95683
 33
70.6244
 0
3DFACE
  8
0main
 10
-72.8339
 20
-19.8862
 30
70.6244
 11
-94.077
 21
20.5022
 31
70.6244
 12
-82.4462
 22
-8.1605
 32
70.6244
 13
-82.4462
 23
-8.1605
 33
70.6244
 0
3DFACE
  8
0main
 10
-72.5605
 20
-20.1583
 30
70.6244
 11
-94.077
 21
20.5022
 31
70.6244
 12
-72.8339
 22
-19.8862
 32
70.6244
 13
-72.8339
 23
-19.8862
 33
70.6244
 0
3DFACE
  8
0main
 10
-71.7046
 20
20.5022
 30
70.6244
 11
-94.077
 21
20.5022
 31
70.6244
 12
-72.5605
 22
-20.1583
 32
70.6244
 13
-72.5605
 23
-20.1583
 33
70.6244
 0
3DFACE
  8
0main
 10
-71.0671
 20
18.2692
 30
70.6244
 11
-71.7046
 21
20.5022
 31
70.6244
 12
-72.5605
 22
-20.1583
 32
70.6244
 13
-72.5605
 23
-20.1583
 33
70.6244
 0
3DFACE
  8
0main
 10
-67.5251
 20
9.52699
 30
70.6244
 11
-71.0671
 21
18.2692
 31
70.6244
 12
-72.5605
 22
-20.1583
 32
70.6244
 13
-72.5605
 23
-20.1583
 33
70.6244
 0
3DFACE
  8
0main
 10
-63.9452
 20
3.4804
 30
70.6244
 11
-67.5251
 21
9.52699
 31
70.6244
 12
-72.5605
 22
-20.1583
 32
70.6244
 13
-72.5605
 23
-20.1583
 33
70.6244
 0
3DFACE
  8
0main
 10
-61.1132
 20
-0.312279
 30
70.6244
 11
-63.9452
 21
3.4804
 31
70.6244
 12
-72.5605
 22
-20.1583
 32
70.6244
 13
-72.5605
 23
-20.1583
 33
70.6244
 0
3DFACE
  8
0main
 10
-7.81301
 20
-19.5292
 30
37.6244
 11
-7.81301
 21
-19.5292
 31
70.6244
 12
4.18645
 22
-39.0081
 32
70.6244
 13
4.18645
 23
-39.0081
 33
37.6244
 0
3DFACE
  8
0main
 10
32.9249
 20
-22.7417
 30
70.6244
 11
21.2022
 21
-3.71193
 31
70.6244
 12
21.2022
 22
-3.71193
 32
37.6244
 13
32.9249
 23
-22.7417
 33
37.6244
 0
3DFACE
  8
0main
 10
4.18645
 20
-39.0081
 30
37.6244
 11
-6.19419
 21
-19.1852
 31
37.6244
 12
-7.81301
 22
-19.5292
 32
37.6244
 13
-7.81301
 23
-19.5292
 33
37.6244
 0
3DFACE
  8
0main
 10
7.9091
 20
-13.8485
 30
37.6244
 11
-6.19419
 21
-19.1852
 31
37.6244
 12
4.18645
 22
-39.0081
 32
37.6244
 13
4.18645
 23
-39.0081
 33
37.6244
 0
3DFACE
  8
0main
 10
9.08547
 20
-13.1884
 30
37.6244
 11
7.9091
 21
-13.8485
 31
37.6244
 12
4.18645
 22
-39.0081
 32
37.6244
 13
4.18645
 23
-39.0081
 33
37.6244
 0
3DFACE
  8
0main
 10
19.439
 20
-32.4354
 30
37.6244
 11
9.08547
 21
-13.1884
 31
37.6244
 12
4.18645
 22
-39.0081
 32
37.6244
 13
4.18645
 23
-39.0081
 33
37.6244
 0
3DFACE
  8
0main
 10
20.0095
 20
-32.1093
 30
37.6244
 11
9.08547
 21
-13.1884
 31
37.6244
 12
19.439
 22
-32.4354
 32
37.6244
 13
19.439
 23
-32.4354
 33
37.6244
 0
3DFACE
  8
0main
 10
21.2022
 20
-3.71193
 30
37.6244
 11
9.08547
 21
-13.1884
 31
37.6244
 12
20.0095
 22
-32.1093
 32
37.6244
 13
20.0095
 23
-32.1093
 33
37.6244
 0
3DFACE
  8
0main
 10
32.9249
 20
-22.7417
 30
37.6244
 11
21.2022
 21
-3.71193
 31
37.6244
 12
20.0095
 22
-32.1093
 32
37.6244
 13
20.0095
 23
-32.1093
 33
37.6244
 0
3DFACE
  8
0main
 10
32.9249
 20
-22.7417
 30
70.6244
 11
31.1652
 21
10.6079
 31
70.6244
 12
29.2183
 22
6.92792
 32
70.6244
 13
29.2183
 23
6.92792
 33
70.6244
 0
3DFACE
  8
0main
 10
32.9249
 20
-22.7417
 30
70.6244
 11
29.2183
 21
6.92792
 31
70.6244
 12
21.9187
 22
-2.95421
 32
70.6244
 13
21.9187
 23
-2.95421
 33
70.6244
 0
3DFACE
  8
0main
 10
32.9249
 20
-22.7417
 30
70.6244
 11
21.9187
 21
-2.95421
 31
70.6244
 12
21.2022
 22
-3.71193
 32
70.6244
 13
21.2022
 23
-3.71193
 33
70.6244
 0
3DFACE
  8
0main
 10
34.4448
 20
19.1814
 30
70.6244
 11
31.1652
 21
10.6079
 31
70.6244
 12
32.9249
 22
-22.7417
 32
70.6244
 13
32.9249
 23
-22.7417
 33
70.6244
 0
3DFACE
  8
0main
 10
35.9389
 20
-19.8862
 30
70.6244
 11
34.4448
 21
19.1814
 31
70.6244
 12
32.9249
 22
-22.7417
 32
70.6244
 13
32.9249
 23
-22.7417
 33
70.6244
 0
3DFACE
  8
0main
 10
43.8627
 20
-10.5909
 30
70.6244
 11
34.4448
 21
19.1814
 31
70.6244
 12
35.9389
 22
-19.8862
 32
70.6244
 13
35.9389
 23
-19.8862
 33
70.6244
 0
3DFACE
  8
0main
 10
48.162
 20
-3.95683
 30
70.6244
 11
34.4448
 21
19.1814
 31
70.6244
 12
43.8627
 22
-10.5909
 32
70.6244
 13
43.8627
 23
-10.5909
 33
70.6244
 0
3DFACE
  8
0main
 10
51.9852
 20
3.59718
 30
70.6244
 11
34.4448
 21
19.1814
 31
70.6244
 12
48.162
 22
-3.95683
 32
70.6244
 13
48.162
 23
-3.95683
 33
70.6244
 0
3DFACE
  8
0main
 10
55.8457
 20
14.5934
 30
70.6244
 11
34.4448
 21
19.1814
 31
70.6244
 12
51.9852
 22
3.59718
 32
70.6244
 13
51.9852
 23
3.59718
 33
70.6244
 0
3DFACE
  8
0main
 10
56.9256
 20
19.1814
 30
70.6244
 11
34.4448
 21
19.1814
 31
70.6244
 12
55.8457
 22
14.5934
 32
70.6244
 13
55.8457
 23
14.5934
 33
70.6244
 0
3DFACE
  8
0main
 10
-94.077
 20
20.5022
 30
37.6244
 11
-94.077
 21
20.5022
 31
70.6244
 12
-71.7046
 22
20.5022
 32
70.6244
 13
-71.7046
 23
20.5022
 33
37.6244
 0
3DFACE
  8
0main
 10
-70.1311
 20
53.5022
 30
37.6244
 11
-70.1311
 21
53.5022
 31
70.6244
 12
-92.9773
 22
53.5022
 32
70.6244
 13
-92.9773
 23
53.5022
 33
37.6244
 0
3DFACE
  8
0main
 10
-94.077
 20
20.5022
 30
37.6244
 11
-95.3189
 21
37.0619
 31
37.6244
 12
-95.3615
 22
34.5002
 32
37.6244
 13
-95.3615
 23
34.5002
 33
37.6244
 0
3DFACE
  8
0main
 10
-92.9773
 20
53.5022
 30
37.6244
 11
-95.3189
 21
37.0619
 31
37.6244
 12
-94.077
 22
20.5022
 32
37.6244
 13
-94.077
 23
20.5022
 33
37.6244
 0
3DFACE
  8
0main
 10
-73.5135
 20
34.5002
 30
37.6244
 11
-92.9773
 21
53.5022
 31
37.6244
 12
-94.077
 22
20.5022
 32
37.6244
 13
-94.077
 23
20.5022
 33
37.6244
 0
3DFACE
  8
0main
 10
-73.451
 20
37.123
 30
37.6244
 11
-92.9773
 21
53.5022
 31
37.6244
 12
-73.5135
 22
34.5002
 32
37.6244
 13
-73.5135
 23
34.5002
 33
37.6244
 0
3DFACE
  8
0main
 10
-71.7046
 20
20.5022
 30
37.6244
 11
-73.5135
 21
34.5002
 31
37.6244
 12
-94.077
 22
20.5022
 32
37.6244
 13
-94.077
 23
20.5022
 33
37.6244
 0
3DFACE
  8
0main
 10
-71.0671
 20
50.7312
 30
37.6244
 11
-92.9773
 21
53.5022
 31
37.6244
 12
-73.451
 22
37.123
 32
37.6244
 13
-73.451
 23
37.123
 33
37.6244
 0
3DFACE
  8
0main
 10
-70.1311
 20
53.5022
 30
37.6244
 11
-92.9773
 21
53.5022
 31
37.6244
 12
-71.0671
 22
50.7312
 32
37.6244
 13
-71.0671
 23
50.7312
 33
37.6244
 0
3DFACE
  8
0main
 10
-87.4854
 20
68.405
 30
70.6244
 11
-92.7408
 21
54.407
 31
70.6244
 12
-92.9773
 22
53.5022
 32
70.6244
 13
-92.9773
 23
53.5022
 33
70.6244
 0
3DFACE
  8
0main
 10
-85.057
 20
72.9572
 30
70.6244
 11
-87.4854
 21
68.405
 31
70.6244
 12
-92.9773
 22
53.5022
 32
70.6244
 13
-92.9773
 23
53.5022
 33
70.6244
 0
3DFACE
  8
0main
 10
-79.0496
 20
81.8621
 30
70.6244
 11
-85.057
 21
72.9572
 31
70.6244
 12
-92.9773
 22
53.5022
 32
70.6244
 13
-92.9773
 23
53.5022
 33
70.6244
 0
3DFACE
  8
0main
 10
-72.8339
 20
88.8866
 30
70.6244
 11
-79.0496
 21
81.8621
 31
70.6244
 12
-92.9773
 22
53.5022
 32
70.6244
 13
-92.9773
 23
53.5022
 33
70.6244
 0
3DFACE
  8
0main
 10
-70.1311
 20
53.5022
 30
70.6244
 11
-72.8339
 21
88.8866
 31
70.6244
 12
-92.9773
 22
53.5022
 32
70.6244
 13
-92.9773
 23
53.5022
 33
70.6244
 0
3DFACE
  8
0main
 10
-68.0297
 20
93.2997
 30
70.6244
 11
-72.8339
 21
88.8866
 31
70.6244
 12
-70.1311
 22
53.5022
 32
70.6244
 13
-70.1311
 23
53.5022
 33
70.6244
 0
3DFACE
  8
0main
 10
-65.3723
 20
63.3156
 30
70.6244
 11
-68.0297
 21
93.2997
 31
70.6244
 12
-70.1311
 22
53.5022
 32
70.6244
 13
-70.1311
 23
53.5022
 33
70.6244
 0
3DFACE
  8
0main
 10
-63.9452
 20
65.52
 30
70.6244
 11
-68.0297
 21
93.2997
 31
70.6244
 12
-65.3723
 22
63.3156
 32
70.6244
 13
-65.3723
 23
63.3156
 33
70.6244
 0
3DFACE
  8
0main
 10
-58.7729
 20
71.9986
 30
70.6244
 11
-68.0297
 21
93.2997
 31
70.6244
 12
-63.9452
 22
65.52
 32
70.6244
 13
-63.9452
 23
65.52
 33
70.6244
 0
3DFACE
  8
0main
 10
56.4066
 20
52.1814
 30
37.6244
 11
36.6046
 21
35.7384
 31
37.6244
 12
36.0034
 22
26.293
 32
37.6244
 13
36.0034
 23
26.293
 33
37.6244
 0
3DFACE
  8
0main
 10
56.4066
 20
52.1814
 30
37.6244
 11
36.0034
 21
26.293
 31
37.6244
 12
34.4448
 22
19.1814
 32
37.6244
 13
34.4448
 23
19.1814
 33
37.6244
 0
3DFACE
  8
0main
 10
56.4066
 20
52.1814
 30
37.6244
 11
36.0034
 21
42.7073
 31
37.6244
 12
36.6046
 22
35.7384
 32
37.6244
 13
36.6046
 23
35.7384
 33
37.6244
 0
3DFACE
  8
0main
 10
56.4066
 20
52.1814
 30
37.6244
 11
33.7026
 21
52.1814
 31
37.6244
 12
36.0034
 22
42.7073
 32
37.6244
 13
36.0034
 23
42.7073
 33
37.6244
 0
3DFACE
  8
0main
 10
56.9256
 20
19.1814
 30
37.6244
 11
56.4066
 21
52.1814
 31
37.6244
 12
34.4448
 22
19.1814
 32
37.6244
 13
34.4448
 23
19.1814
 33
37.6244
 0
3DFACE
  8
0main
 10
58.457
 20
35.7096
 30
37.6244
 11
56.4066
 21
52.1814
 31
37.6244
 12
56.9256
 22
19.1814
 32
37.6244
 13
56.9256
 23
19.1814
 33
37.6244
 0
3DFACE
  8
0main
 10
58.4665
 20
34.5002
 30
37.6244
 11
58.457
 21
35.7096
 31
37.6244
 12
56.9256
 22
19.1814
 32
37.6244
 13
56.9256
 23
19.1814
 33
37.6244
 0
3DFACE
  8
0main
 10
33.7026
 20
52.1814
 30
37.6244
 11
56.4066
 21
52.1814
 31
37.6244
 12
56.4066
 22
52.1814
 32
70.6244
 13
33.7026
 23
52.1814
 33
70.6244
 0
3DFACE
  8
0main
 10
56.9256
 20
19.1814
 30
70.6244
 11
56.9256
 21
19.1814
 31
37.6244
 12
34.4448
 22
19.1814
 32
37.6244
 13
34.4448
 23
19.1814
 33
70.6244
 0
3DFACE
  8
0main
 10
-32.8598
 20
-41.0515
 30
-80.4561
 11
-13.6181
 21
-42.2621
 31
-80.4561
 12
-18.4475
 22
-42.4138
 32
-80.4561
 13
-18.4475
 23
-42.4138
 33
-80.4561
 0
3DFACE
  8
0main
 10
1.45929
 20
-39.7931
 30
-80.4561
 11
-13.6181
 21
-42.2621
 31
-80.4561
 12
-32.8598
 22
-41.0515
 32
-80.4561
 13
-32.8598
 23
-41.0515
 33
-80.4561
 0
3DFACE
  8
0main
 10
-38.3543
 20
-39.7931
 30
-80.4561
 11
1.45929
 21
-39.7931
 31
-80.4561
 12
-32.8598
 22
-41.0515
 32
-80.4561
 13
-32.8598
 23
-41.0515
 33
-80.4561
 0
3DFACE
  8
0main
 10
5.32021
 20
-38.6494
 30
-80.4561
 11
1.45929
 21
-39.7931
 31
-80.4561
 12
-38.3543
 22
-39.7931
 32
-80.4561
 13
-38.3543
 23
-39.7931
 33
-80.4561
 0
3DFACE
  8
0main
 10
-51.1959
 20
-35.0937
 30
-80.4561
 11
5.32021
 21
-38.6494
 31
-80.4561
 12
-38.3543
 22
-39.7931
 32
-80.4561
 13
-38.3543
 23
-39.7931
 33
-80.4561
 0
3DFACE
  8
0main
 10
20.0095
 20
-32.1093
 30
-80.4561
 11
5.32021
 21
-38.6494
 31
-80.4561
 12
-51.1959
 22
-35.0937
 32
-80.4561
 13
-51.1959
 23
-35.0937
 33
-80.4561
 0
3DFACE
  8
0main
 10
-56.9045
 20
-32.1093
 30
-80.4561
 11
20.0095
 21
-32.1093
 31
-80.4561
 12
-51.1959
 22
-35.0937
 32
-80.4561
 13
-51.1959
 23
-35.0937
 33
-80.4561
 0
3DFACE
  8
0main
 10
22.7651
 20
-30.4405
 30
-80.4561
 11
20.0095
 21
-32.1093
 31
-80.4561
 12
-56.9045
 22
-32.1093
 32
-80.4561
 13
-56.9045
 23
-32.1093
 33
-80.4561
 0
3DFACE
  8
0main
 10
-67.4744
 20
-24.7631
 30
-80.4561
 11
22.7651
 21
-30.4405
 31
-80.4561
 12
-56.9045
 22
-32.1093
 32
-80.4561
 13
-56.9045
 23
-32.1093
 33
-80.4561
 0
3DFACE
  8
0main
 10
-22.5626
 20
-20.4118
 30
-80.4561
 11
22.7651
 21
-30.4405
 31
-80.4561
 12
-67.4744
 22
-24.7631
 32
-80.4561
 13
-67.4744
 23
-24.7631
 33
-80.4561
 0
3DFACE
  8
0main
 10
-72.8339
 20
-19.8862
 30
-80.4561
 11
-22.5626
 21
-20.4118
 31
-80.4561
 12
-67.4744
 22
-24.7631
 32
-80.4561
 13
-67.4744
 23
-24.7631
 33
-80.4561
 0
3DFACE
  8
0main
 10
35.9389
 20
-19.8862
 30
-80.4561
 11
22.7651
 21
-30.4405
 31
-80.4561
 12
-22.5626
 22
-20.4118
 32
-80.4561
 13
-22.5626
 23
-20.4118
 33
-80.4561
 0
3DFACE
  8
0main
 10
-6.19419
 20
-19.1852
 30
-80.4561
 11
35.9389
 21
-19.8862
 31
-80.4561
 12
-22.5626
 22
-20.4118
 32
-80.4561
 13
-22.5626
 23
-20.4118
 33
-80.4561
 0
3DFACE
  8
0main
 10
37.6204
 20
-18.1511
 30
-80.4561
 11
35.9389
 21
-19.8862
 31
-80.4561
 12
-6.19419
 22
-19.1852
 32
-80.4561
 13
-6.19419
 23
-19.1852
 33
-80.4561
 0
3DFACE
  8
0main
 10
-38.5654
 20
-16.7593
 30
-80.4561
 11
-22.5626
 21
-20.4118
 31
-80.4561
 12
-72.8339
 22
-19.8862
 32
-80.4561
 13
-72.8339
 23
-19.8862
 33
-80.4561
 0
3DFACE
  8
0main
 10
9.08547
 20
-13.1884
 30
-80.4561
 11
37.6204
 21
-18.1511
 31
-80.4561
 12
-6.19419
 22
-19.1852
 32
-80.4561
 13
-6.19419
 23
-19.1852
 33
-80.4561
 0
3DFACE
  8
0main
 10
-80.6723
 20
-10.7087
 30
-80.4561
 11
-38.5654
 21
-16.7593
 31
-80.4561
 12
-72.8339
 22
-19.8862
 32
-80.4561
 13
-72.8339
 23
-19.8862
 33
-80.4561
 0
3DFACE
  8
0main
 10
-52.7806
 20
-8.55215
 30
-80.4561
 11
-38.5654
 21
-16.7593
 31
-80.4561
 12
-80.6723
 22
-10.7087
 32
-80.4561
 13
-80.6723
 23
-10.7087
 33
-80.4561
 0
3DFACE
  8
0main
 10
-85.057
 20
-3.95683
 30
-80.4561
 11
-52.7806
 21
-8.55215
 31
-80.4561
 12
-80.6723
 22
-10.7087
 32
-80.4561
 13
-80.6723
 23
-10.7087
 33
-80.4561
 0
3DFACE
  8
0main
 10
48.162
 20
-3.95683
 30
-80.4561
 11
37.6204
 21
-18.1511
 31
-80.4561
 12
9.08547
 22
-13.1884
 32
-80.4561
 13
9.08547
 23
-13.1884
 33
-80.4561
 0
3DFACE
  8
0main
 10
21.9187
 20
-2.95421
 30
-80.4561
 11
48.162
 21
-3.95683
 31
-80.4561
 12
9.08547
 22
-13.1884
 32
-80.4561
 13
9.08547
 23
-13.1884
 33
-80.4561
 0
3DFACE
  8
0main
 10
48.9527
 20
-2.55342
 30
-80.4561
 11
48.162
 21
-3.95683
 31
-80.4561
 12
21.9187
 22
-2.95421
 32
-80.4561
 13
21.9187
 23
-2.95421
 33
-80.4561
 0
3DFACE
  8
0main
 10
-63.9452
 20
3.4804
 30
-80.4561
 11
-52.7806
 21
-8.55215
 31
-80.4561
 12
-85.057
 22
-3.95683
 32
-80.4561
 13
-85.057
 23
-3.95683
 33
-80.4561
 0
3DFACE
  8
0main
 10
-89.9604
 20
6.18625
 30
-80.4561
 11
-63.9452
 21
3.4804
 31
-80.4561
 12
-85.057
 22
-3.95683
 32
-80.4561
 13
-85.057
 23
-3.95683
 33
-80.4561
 0
3DFACE
  8
0main
 10
31.1652
 20
10.6079
 30
-80.4561
 11
48.9527
 21
-2.55342
 31
-80.4561
 12
21.9187
 22
-2.95421
 32
-80.4561
 13
21.9187
 23
-2.95421
 33
-80.4561
 0
3DFACE
  8
0main
 10
55.8457
 20
14.5934
 30
-80.4561
 11
48.9527
 21
-2.55342
 31
-80.4561
 12
31.1652
 22
10.6079
 32
-80.4561
 13
31.1652
 23
10.6079
 33
-80.4561
 0
3DFACE
  8
0main
 10
-92.7408
 20
14.5934
 30
-80.4561
 11
-63.9452
 21
3.4804
 31
-80.4561
 12
-89.9604
 22
6.18625
 32
-80.4561
 13
-89.9604
 23
6.18625
 33
-80.4561
 0
3DFACE
  8
0main
 10
56.0501
 20
15.3724
 30
-80.4561
 11
55.8457
 21
14.5934
 31
-80.4561
 12
31.1652
 22
10.6079
 32
-80.4561
 13
31.1652
 23
10.6079
 33
-80.4561
 0
3DFACE
  8
0main
 10
-71.0671
 20
18.2692
 30
-80.4561
 11
-63.9452
 21
3.4804
 31
-80.4561
 12
-92.7408
 22
14.5934
 32
-80.4561
 13
-92.7408
 23
14.5934
 33
-80.4561
 0
3DFACE
  8
0main
 10
-94.7551
 20
24.8603
 30
-80.4561
 11
-71.0671
 21
18.2692
 31
-80.4561
 12
-92.7408
 22
14.5934
 32
-80.4561
 13
-92.7408
 23
14.5934
 33
-80.4561
 0
3DFACE
  8
0main
 10
36.0034
 20
26.293
 30
-80.4561
 11
56.0501
 21
15.3724
 31
-80.4561
 12
31.1652
 22
10.6079
 32
-80.4561
 13
31.1652
 23
10.6079
 33
-80.4561
 0
3DFACE
  8
0main
 10
58.4665
 20
34.5002
 30
-80.4561
 11
56.0501
 21
15.3724
 31
-80.4561
 12
36.0034
 22
26.293
 32
-80.4561
 13
36.0034
 23
26.293
 33
-80.4561
 0
3DFACE
  8
0main
 10
-95.3615
 20
34.5002
 30
-80.4561
 11
-71.0671
 21
18.2692
 31
-80.4561
 12
-94.7551
 22
24.8603
 32
-80.4561
 13
-94.7551
 23
24.8603
 33
-80.4561
 0
3DFACE
  8
0main
 10
-73.5135
 20
34.5002
 30
-80.4561
 11
-71.0671
 21
18.2692
 31
-80.4561
 12
-95.3615
 22
34.5002
 32
-80.4561
 13
-95.3615
 23
34.5002
 33
-80.4561
 0
3DFACE
  8
0main
 10
36.0034
 20
42.7073
 30
-80.4561
 11
58.4665
 21
34.5002
 31
-80.4561
 12
36.0034
 22
26.293
 32
-80.4561
 13
36.0034
 23
26.293
 33
-80.4561
 0
3DFACE
  8
0main
 10
-94.7551
 20
44.1401
 30
-80.4561
 11
-73.5135
 21
34.5002
 31
-80.4561
 12
-95.3615
 22
34.5002
 32
-80.4561
 13
-95.3615
 23
34.5002
 33
-80.4561
 0
3DFACE
  8
0main
 10
-71.0671
 20
50.7312
 30
-80.4561
 11
-73.5135
 21
34.5002
 31
-80.4561
 12
-94.7551
 22
44.1401
 32
-80.4561
 13
-94.7551
 23
44.1401
 33
-80.4561
 0
3DFACE
  8
0main
 10
56.0501
 20
53.6279
 30
-80.4561
 11
58.4665
 21
34.5002
 31
-80.4561
 12
36.0034
 22
42.7073
 32
-80.4561
 13
36.0034
 23
42.7073
 33
-80.4561
 0
3DFACE
  8
0main
 10
-92.7408
 20
54.407
 30
-80.4561
 11
-71.0671
 21
50.7312
 31
-80.4561
 12
-94.7551
 22
44.1401
 32
-80.4561
 13
-94.7551
 23
44.1401
 33
-80.4561
 0
3DFACE
  8
0main
 10
55.8457
 20
54.407
 30
-80.4561
 11
56.0501
 21
53.6279
 31
-80.4561
 12
36.0034
 22
42.7073
 32
-80.4561
 13
36.0034
 23
42.7073
 33
-80.4561
 0
3DFACE
  8
0main
 10
31.1652
 20
58.3924
 30
-80.4561
 11
55.8457
 21
54.407
 31
-80.4561
 12
36.0034
 22
42.7073
 32
-80.4561
 13
36.0034
 23
42.7073
 33
-80.4561
 0
3DFACE
  8
0main
 10
-89.9604
 20
62.8141
 30
-80.4561
 11
-71.0671
 21
50.7312
 31
-80.4561
 12
-92.7408
 22
54.407
 32
-80.4561
 13
-92.7408
 23
54.407
 33
-80.4561
 0
3DFACE
  8
0main
 10
-63.9452
 20
65.52
 30
-80.4561
 11
-71.0671
 21
50.7312
 31
-80.4561
 12
-89.9604
 22
62.8141
 32
-80.4561
 13
-89.9604
 23
62.8141
 33
-80.4561
 0
3DFACE
  8
0main
 10
48.9527
 20
71.5538
 30
-80.4561
 11
55.8457
 21
54.407
 31
-80.4561
 12
31.1652
 22
58.3924
 32
-80.4561
 13
31.1652
 23
58.3924
 33
-80.4561
 0
3DFACE
  8
0main
 10
21.9187
 20
71.9546
 30
-80.4561
 11
48.9527
 21
71.5538
 31
-80.4561
 12
31.1652
 22
58.3924
 32
-80.4561
 13
31.1652
 23
58.3924
 33
-80.4561
 0
3DFACE
  8
0main
 10
-85.057
 20
72.9572
 30
-80.4561
 11
-63.9452
 21
65.52
 31
-80.4561
 12
-89.9604
 22
62.8141
 32
-80.4561
 13
-89.9604
 23
62.8141
 33
-80.4561
 0
3DFACE
  8
0main
 10
48.162
 20
72.9572
 30
-80.4561
 11
48.9527
 21
71.5538
 31
-80.4561
 12
21.9187
 22
71.9546
 32
-80.4561
 13
21.9187
 23
71.9546
 33
-80.4561
 0
3DFACE
  8
0main
 10
-52.7806
 20
77.5525
 30
-80.4561
 11
-63.9452
 21
65.52
 31
-80.4561
 12
-85.057
 22
72.9572
 32
-80.4561
 13
-85.057
 23
72.9572
 33
-80.4561
 0
3DFACE
  8
0main
 10
-80.6723
 20
79.7091
 30
-80.4561
 11
-52.7806
 21
77.5525
 31
-80.4561
 12
-85.057
 22
72.9572
 32
-80.4561
 13
-85.057
 23
72.9572
 33
-80.4561
 0
3DFACE
  8
0main
 10
9.08547
 20
82.1887
 30
-80.4561
 11
48.162
 21
72.9572
 31
-80.4561
 12
21.9187
 22
71.9546
 32
-80.4561
 13
21.9187
 23
71.9546
 33
-80.4561
 0
3DFACE
  8
0main
 10
-38.5654
 20
85.7597
 30
-80.4561
 11
-52.7806
 21
77.5525
 31
-80.4561
 12
-80.6723
 22
79.7091
 32
-80.4561
 13
-80.6723
 23
79.7091
 33
-80.4561
 0
3DFACE
  8
0main
 10
37.6204
 20
87.1514
 30
-80.4561
 11
48.162
 21
72.9572
 31
-80.4561
 12
9.08547
 22
82.1887
 32
-80.4561
 13
9.08547
 23
82.1887
 33
-80.4561
 0
3DFACE
  8
0main
 10
-6.19419
 20
88.1856
 30
-80.4561
 11
37.6204
 21
87.1514
 31
-80.4561
 12
9.08547
 22
82.1887
 32
-80.4561
 13
9.08547
 23
82.1887
 33
-80.4561
 0
3DFACE
  8
0main
 10
35.9389
 20
88.8866
 30
-80.4561
 11
37.6204
 21
87.1514
 31
-80.4561
 12
-6.19419
 22
88.1856
 32
-80.4561
 13
-6.19419
 23
88.1856
 33
-80.4561
 0
3DFACE
  8
0main
 10
-72.8339
 20
88.8866
 30
-80.4561
 11
-38.5654
 21
85.7597
 31
-80.4561
 12
-80.6723
 22
79.7091
 32
-80.4561
 13
-80.6723
 23
79.7091
 33
-80.4561
 0
3DFACE
  8
0main
 10
-22.5626
 20
89.4122
 30
-80.4561
 11
-38.5654
 21
85.7597
 31
-80.4561
 12
-72.8339
 22
88.8866
 32
-80.4561
 13
-72.8339
 23
88.8866
 33
-80.4561
 0
3DFACE
  8
0main
 10
-22.5626
 20
89.4122
 30
-80.4561
 11
35.9389
 21
88.8866
 31
-80.4561
 12
-6.19419
 22
88.1856
 32
-80.4561
 13
-6.19419
 23
88.1856
 33
-80.4561
 0
3DFACE
  8
0main
 10
-67.4744
 20
93.7635
 30
-80.4561
 11
35.9389
 21
88.8866
 31
-80.4561
 12
-22.5626
 22
89.4122
 32
-80.4561
 13
-22.5626
 23
89.4122
 33
-80.4561
 0
3DFACE
  8
0main
 10
-67.4744
 20
93.7635
 30
-80.4561
 11
-22.5626
 21
89.4122
 31
-80.4561
 12
-72.8339
 22
88.8866
 32
-80.4561
 13
-72.8339
 23
88.8866
 33
-80.4561
 0
3DFACE
  8
0main
 10
22.7651
 20
99.4408
 30
-80.4561
 11
35.9389
 21
88.8866
 31
-80.4561
 12
-67.4744
 22
93.7635
 32
-80.4561
 13
-67.4744
 23
93.7635
 33
-80.4561
 0
3DFACE
  8
0main
 10
20.0095
 20
101.11
 30
-80.4561
 11
22.7651
 21
99.4408
 31
-80.4561
 12
-67.4744
 22
93.7635
 32
-80.4561
 13
-67.4744
 23
93.7635
 33
-80.4561
 0
3DFACE
  8
0main
 10
-56.9045
 20
101.11
 30
-80.4561
 11
20.0095
 21
101.11
 31
-80.4561
 12
-67.4744
 22
93.7635
 32
-80.4561
 13
-67.4744
 23
93.7635
 33
-80.4561
 0
3DFACE
  8
0main
 10
-51.1959
 20
104.094
 30
-80.4561
 11
20.0095
 21
101.11
 31
-80.4561
 12
-56.9045
 22
101.11
 32
-80.4561
 13
-56.9045
 23
101.11
 33
-80.4561
 0
3DFACE
  8
0main
 10
5.32021
 20
107.65
 30
-80.4561
 11
20.0095
 21
101.11
 31
-80.4561
 12
-51.1959
 22
104.094
 32
-80.4561
 13
-51.1959
 23
104.094
 33
-80.4561
 0
3DFACE
  8
0main
 10
1.45929
 20
108.793
 30
-80.4561
 11
5.32021
 21
107.65
 31
-80.4561
 12
-51.1959
 22
104.094
 32
-80.4561
 13
-51.1959
 23
104.094
 33
-80.4561
 0
3DFACE
  8
0main
 10
-38.3543
 20
108.793
 30
-80.4561
 11
1.45929
 21
108.793
 31
-80.4561
 12
-51.1959
 22
104.094
 32
-80.4561
 13
-51.1959
 23
104.094
 33
-80.4561
 0
3DFACE
  8
0main
 10
-32.8598
 20
110.052
 30
-80.4561
 11
1.45929
 21
108.793
 31
-80.4561
 12
-38.3543
 22
108.793
 32
-80.4561
 13
-38.3543
 23
108.793
 33
-80.4561
 0
3DFACE
  8
0main
 10
-13.6181
 20
111.262
 30
-80.4561
 11
1.45929
 21
108.793
 31
-80.4561
 12
-32.8598
 22
110.052
 32
-80.4561
 13
-32.8598
 23
110.052
 33
-80.4561
 0
3DFACE
  8
0main
 10
-18.4475
 20
111.414
 30
-80.4561
 11
-13.6181
 21
111.262
 31
-80.4561
 12
-32.8598
 22
110.052
 32
-80.4561
 13
-32.8598
 23
110.052
 33
-80.4561
 0
ENDSEC
  0
EOF
